<svg width="36" height="36" viewBox="0 0 36 36" fill="none" xmlns="http://www.w3.org/2000/svg">
<path d="M22.125 20.25C22.125 22.5255 20.2755 24.375 18 24.375C15.7245 24.375 13.875 22.5255 13.875 20.25C13.875 17.9745 15.7245 16.125 18 16.125C20.2755 16.125 22.125 17.9745 22.125 20.25ZM32.625 13.5V27C32.625 29.2755 30.7755 31.125 28.5 31.125H7.5C5.2245 31.125 3.375 29.2755 3.375 27V13.5C3.375 11.2245 5.2245 9.37496 7.5 9.37496H9.4185C9.579 9.37496 9.723 9.27296 9.7725 9.11996L10.2465 7.69647C10.8105 6.00897 12.3825 4.87646 14.16 4.87646H21.8355C23.6145 4.87646 25.185 6.01047 25.749 7.69647L26.223 9.11996C26.2725 9.27446 26.4165 9.37646 26.577 9.37646H28.4955C30.771 9.37646 32.6205 11.226 32.6205 13.5015L32.625 13.5ZM24.375 20.25C24.375 16.7355 21.516 13.875 18 13.875C14.484 13.875 11.625 16.7355 11.625 20.25C11.625 23.7645 14.484 26.625 18 26.625C21.516 26.625 24.375 23.7645 24.375 20.25ZM27.75 15C27.75 14.172 27.078 13.5 26.25 13.5C25.422 13.5 24.75 14.172 24.75 15C24.75 15.828 25.422 16.5 26.25 16.5C27.078 16.5 27.75 15.828 27.75 15Z" fill="#2E41F4"/>
</svg>
