<svg width="26" height="26" viewBox="0 0 26 26" fill="none" xmlns="http://www.w3.org/2000/svg">
<path d="M15.9792 14.625C15.9792 16.2684 14.6434 17.6042 13 17.6042C11.3566 17.6042 10.0208 16.2684 10.0208 14.625C10.0208 12.9816 11.3566 11.6458 13 11.6458C14.6434 11.6458 15.9792 12.9816 15.9792 14.625ZM23.5625 9.75V19.5C23.5625 21.1434 22.2268 22.4792 20.5833 22.4792H5.41667C3.77325 22.4792 2.4375 21.1434 2.4375 19.5V9.75C2.4375 8.10658 3.77325 6.77083 5.41667 6.77083H6.80225C6.91817 6.77083 7.02217 6.69716 7.05792 6.58666L7.40025 5.55858C7.80758 4.33983 8.94292 3.52191 10.2267 3.52191H15.7701C17.0549 3.52191 18.1892 4.34091 18.5965 5.55858L18.9388 6.58666C18.9746 6.69825 19.0786 6.77191 19.1945 6.77191H20.5801C22.2235 6.77191 23.5592 8.10766 23.5592 9.75108L23.5625 9.75ZM17.6042 14.625C17.6042 12.0867 15.5393 10.0208 13 10.0208C10.4607 10.0208 8.39583 12.0867 8.39583 14.625C8.39583 17.1632 10.4607 19.2292 13 19.2292C15.5393 19.2292 17.6042 17.1632 17.6042 14.625ZM20.0417 10.8333C20.0417 10.2353 19.5563 9.75 18.9583 9.75C18.3603 9.75 17.875 10.2353 17.875 10.8333C17.875 11.4313 18.3603 11.9167 18.9583 11.9167C19.5563 11.9167 20.0417 11.4313 20.0417 10.8333Z" fill="#8C919F"/>
</svg>
