<svg width="17" height="17" viewBox="0 0 17 17" fill="none" xmlns="http://www.w3.org/2000/svg">
<path d="M8.5 0.1875C6.85595 0.1875 5.24881 0.67502 3.88183 1.58841C2.51484 2.5018 1.44941 3.80003 0.820255 5.31894C0.191102 6.83785 0.0264864 8.50922 0.347226 10.1217C0.667966 11.7342 1.45965 13.2153 2.62218 14.3778C3.7847 15.5403 5.26585 16.332 6.87832 16.6528C8.49078 16.9735 10.1621 16.8089 11.6811 16.1797C13.2 15.5506 14.4982 14.4852 15.4116 13.1182C16.325 11.7512 16.8125 10.1441 16.8125 8.5C16.8101 6.29611 15.9336 4.18316 14.3752 2.62478C12.8168 1.06639 10.7039 0.189858 8.5 0.1875ZM12.4841 6.54656L7.73407 11.2966C7.62151 11.4069 7.47015 11.4688 7.3125 11.4688C7.15485 11.4688 7.00349 11.4069 6.89094 11.2966L4.51594 8.92156C4.40414 8.80976 4.34132 8.65812 4.34132 8.5C4.34132 8.34188 4.40414 8.19024 4.51594 8.07844C4.62775 7.96663 4.77939 7.90382 4.9375 7.90382C5.09562 7.90382 5.24726 7.96663 5.35907 8.07844L7.3125 10.0378L11.6409 5.70344C11.7527 5.59163 11.9044 5.52882 12.0625 5.52882C12.2206 5.52882 12.3723 5.59163 12.4841 5.70344C12.5959 5.81524 12.6587 5.96688 12.6587 6.125C12.6587 6.28312 12.5959 6.43476 12.4841 6.54656Z" fill="#2E41F4"/>
</svg>
