<svg width="47" height="47" viewBox="0 0 47 47" fill="none" xmlns="http://www.w3.org/2000/svg">
<circle cx="23.5" cy="23.5" r="23.5" fill="#9361FF"/>
<path d="M27.4034 18.7152L25.7871 17.3362C25.5884 17.1667 25.4092 16.9757 25.2528 16.7666L22.2975 12.8166C22.1382 12.6038 21.8272 12.5815 21.6393 12.7695L14.9449 19.4638C14.7032 19.7056 14.6955 20.0951 14.9275 20.3463L17.4143 23.0376C17.5492 23.1836 17.3458 23.3938 17.1955 23.2639L14.3975 20.8463C14.145 20.6281 13.7669 20.6419 13.5308 20.8779L13.0185 21.3902C12.8645 21.5442 12.8475 21.7882 12.9789 21.962L15.9479 25.8921C16.1048 26.0997 16.2842 26.2893 16.4828 26.4575L18.2541 27.9571C18.5348 28.1947 18.9508 28.1775 19.2108 27.9174L27.4418 19.6865C27.7147 19.4135 27.697 18.9658 27.4034 18.7152Z" fill="white"/>
<path d="M33.484 30.7623C31.312 28.6125 27.9984 26.1813 27.9984 26.1813C27.1575 25.6076 27.3417 24.9798 27.6968 24.6247L29.4247 22.8968C30.326 21.9955 30.326 20.5343 29.4247 19.6331C29.2708 19.4791 29.0211 19.4791 28.8671 19.6331L19.3811 29.1191C19.2271 29.2731 19.2271 29.5227 19.3811 29.6767C20.2823 30.5779 21.7436 30.5779 22.6448 29.6767L24.3727 27.9487C24.7278 27.5936 25.2134 27.3709 25.9294 28.2503C25.9294 28.2503 28.3605 31.564 30.5104 33.7359C31.33 34.564 32.6666 34.5663 33.4904 33.7424C34.3142 32.9186 34.312 31.582 33.484 30.7623ZM32.3721 32.6241C32.0774 32.9188 31.5996 32.9188 31.3049 32.6241C31.0102 32.3294 31.0102 31.8516 31.3049 31.5569C31.5996 31.2622 32.0774 31.2622 32.3721 31.5569C32.6668 31.8516 32.6668 32.3294 32.3721 32.6241Z" fill="white"/>
</svg>
