<svg width="24" height="24" viewBox="0 0 24 24" fill="none" xmlns="http://www.w3.org/2000/svg">
<g id="noun-copy-3496021 1">
<g id="Layer 2">
<path id="Vector" d="M14 5H5C3.34315 5 2 6.34315 2 8V20C2 21.6569 3.34315 23 5 23H14C15.6569 23 17 21.6569 17 20V8C17 6.34315 15.6569 5 14 5Z" fill="#8C919F"/>
<path id="Vector_2" d="M19 0H10C9.20435 0 8.44129 0.31607 7.87868 0.87868C7.31607 1.44129 7 2.20435 7 3H14C15.3261 3 16.5979 3.52678 17.5355 4.46447C18.4732 5.40215 19 6.67392 19 8V18C19.7956 18 20.5587 17.6839 21.1213 17.1213C21.6839 16.5587 22 15.7956 22 15V3C22 2.20435 21.6839 1.44129 21.1213 0.87868C20.5587 0.31607 19.7956 0 19 0Z" fill="#8C919F"/>
</g>
</g>
</svg>
