<svg width="24" height="24" viewBox="0 0 24 24" fill="none" xmlns="http://www.w3.org/2000/svg">
<path d="M11.9999 5.44663C7.62883 5.44663 3.68117 7.8732 1.70409 11.7785L1.59009 12L1.70083 12.2215C3.68117 16.1268 7.62883 18.5534 11.9999 18.5534C16.371 18.5534 20.3187 16.1268 22.2957 12.2215L22.4097 12L22.299 11.7785C20.3187 7.8732 16.371 5.44663 11.9999 5.44663ZM11.9999 15.534C10.0489 15.534 8.46592 13.951 8.46592 12C8.46592 10.049 10.0489 8.466 11.9999 8.466C13.9509 8.466 15.5339 10.049 15.5339 12C15.5339 13.951 13.9509 15.534 11.9999 15.534Z" fill="#8B8E9F"/>
</svg>
