<svg width="35" height="35" viewBox="0 0 35 35" fill="none" xmlns="http://www.w3.org/2000/svg">
<path d="M3.00439 7.75286C3.00439 7.25857 3.40939 6.85857 3.91047 6.85857H19.1612C19.569 5.24893 21.0412 4.05179 22.7951 4.05179C24.549 4.05179 26.0215 5.24893 26.429 6.85857H31.0898C31.5905 6.85857 31.9958 7.25857 31.9958 7.75286C31.9958 8.24715 31.5905 8.64715 31.0898 8.64715H26.429C26.0212 10.2568 24.549 11.4514 22.7951 11.4514C21.0412 11.4514 19.5687 10.2543 19.1612 8.64715H3.91047C3.40939 8.64715 3.00439 8.2475 3.00439 7.75286ZM31.0898 16.7596H14.3265C13.9215 15.15 12.4465 13.9529 10.6926 13.9529C8.93868 13.9529 7.46618 15.15 7.05868 16.7596H3.91047C3.40975 16.7596 3.00439 17.1596 3.00439 17.6539C3.00439 18.1482 3.40939 18.5482 3.91047 18.5482H7.05868C7.46654 20.1554 8.93868 21.3525 10.6926 21.3525C12.4465 21.3525 13.919 20.1579 14.3265 18.5482H31.0898C31.5905 18.5482 31.9958 18.1482 31.9958 17.6539C31.9958 17.1596 31.5908 16.7596 31.0898 16.7596ZM31.0898 26.3554H21.499C21.094 24.7457 19.619 23.5486 17.8651 23.5486C16.1112 23.5486 14.6387 24.7457 14.2337 26.3554H3.91047C3.40975 26.3554 3.00439 26.7554 3.00439 27.2496C3.00439 27.7439 3.40939 28.1439 3.91047 28.1439H14.2337C14.6387 29.7536 16.1112 30.9482 17.8651 30.9482C19.619 30.9482 21.0915 29.7536 21.499 28.1439H31.0898C31.5905 28.1439 31.9958 27.7439 31.9958 27.2496C31.9958 26.755 31.5908 26.3554 31.0898 26.3554Z" fill="#7D7D7D"/>
</svg>
