<svg width="29" height="27" viewBox="0 0 29 27" fill="none" xmlns="http://www.w3.org/2000/svg">
<path d="M0.00427246 3.75286C0.00427246 3.25857 0.409273 2.85857 0.910344 2.85857H16.1611C16.5689 1.24893 18.0411 0.0517864 19.795 0.0517864C21.5489 0.0517864 23.0214 1.24893 23.4289 2.85857H28.0896C28.5903 2.85857 28.9957 3.25857 28.9957 3.75286C28.9957 4.24714 28.5903 4.64714 28.0896 4.64714H23.4289C23.0211 6.25679 21.5489 7.45143 19.795 7.45143C18.0411 7.45143 16.5686 6.25429 16.1611 4.64714H0.910344C0.409273 4.64714 0.00427246 4.2475 0.00427246 3.75286ZM28.0896 12.7596H11.3264C10.9214 11.15 9.44642 9.95286 7.69249 9.95286C5.93856 9.95286 4.46606 11.15 4.05856 12.7596H0.910344C0.40963 12.7596 0.00427246 13.1596 0.00427246 13.6539C0.00427246 14.1482 0.409273 14.5482 0.910344 14.5482H4.05856C4.46642 16.1554 5.93856 17.3525 7.69249 17.3525C9.44642 17.3525 10.9189 16.1579 11.3264 14.5482H28.0896C28.5903 14.5482 28.9957 14.1482 28.9957 13.6539C28.9957 13.1596 28.5907 12.7596 28.0896 12.7596ZM28.0896 22.3554H18.4989C18.0939 20.7457 16.6189 19.5486 14.865 19.5486C13.1111 19.5486 11.6386 20.7457 11.2336 22.3554H0.910344C0.40963 22.3554 0.00427246 22.7554 0.00427246 23.2496C0.00427246 23.7439 0.409273 24.1439 0.910344 24.1439H11.2336C11.6386 25.7536 13.1111 26.9482 14.865 26.9482C16.6189 26.9482 18.0914 25.7536 18.4989 24.1439H28.0896C28.5903 24.1439 28.9957 23.7439 28.9957 23.2496C28.9957 22.755 28.5907 22.3554 28.0896 22.3554Z" fill="black"/>
</svg>
