<svg xmlns="http://www.w3.org/2000/svg" width="203" height="144" viewBox="0 0 203 144" fill="none">
    <g clip-path="url(#clip0_2_1430)">
      <path d="M116.447 86.2194C117.039 82.6533 120.089 80.0351 123.73 79.99C139.436 79.7643 179.496 79.4031 181.635 81.1185C184.321 83.2401 185.687 84.3235 185.505 87.664C185.322 90.7335 181.954 143.774 181.954 143.774H106.978L116.447 86.2194Z" fill="#455A64"/>
      <path d="M173.396 143.684C173.396 143.549 173.35 143.413 173.35 143.233C173.305 142.826 173.259 142.24 173.214 141.472C173.168 140.705 173.077 139.757 173.077 138.673C173.031 137.59 172.986 136.326 172.986 134.972C172.986 134.295 172.986 133.572 172.94 132.805C172.94 132.038 172.94 131.27 172.986 130.458C172.986 128.833 173.077 127.117 173.168 125.312C173.396 121.655 173.714 117.683 174.306 113.53C174.898 109.377 175.626 105.404 176.4 101.883C176.81 100.123 177.174 98.4075 177.629 96.8727C177.857 96.1053 178.039 95.3379 178.221 94.6157C178.449 93.8934 178.631 93.2163 178.813 92.5392C179.177 91.2301 179.587 90.0113 179.905 88.9731C180.224 87.9348 180.543 87.032 180.816 86.3097C181.089 85.5875 181.271 85.0458 181.408 84.6395C181.453 84.4589 181.544 84.3235 181.59 84.1881C181.544 84.2784 181.499 84.4589 181.453 84.6395C181.317 85.0458 181.135 85.5875 180.907 86.3097C180.679 87.032 180.361 87.9348 180.042 88.9731C179.723 90.0113 179.314 91.185 178.949 92.5392C178.767 93.2163 178.585 93.8934 178.358 94.6157C178.176 95.3379 177.993 96.1053 177.766 96.8727C177.356 98.4527 176.992 100.123 176.582 101.883C175.808 105.45 175.08 109.377 174.488 113.53C173.942 117.683 173.578 121.655 173.35 125.312C173.259 127.117 173.168 128.833 173.168 130.458C173.168 131.27 173.123 132.038 173.123 132.805C173.123 133.572 173.123 134.295 173.123 134.972C173.123 136.326 173.168 137.59 173.214 138.673C173.214 139.757 173.305 140.705 173.305 141.472C173.35 142.24 173.35 142.826 173.396 143.233C173.396 143.413 173.396 143.594 173.396 143.684Z" fill="#263238"/>
      <path d="M131.242 106.714C131.242 106.714 131.287 106.668 131.378 106.668C131.469 106.668 131.56 106.623 131.742 106.668C132.061 106.668 132.516 106.849 132.835 107.3C133.199 107.752 133.29 108.474 132.926 109.151C132.744 109.467 132.516 109.783 132.198 110.009C131.879 110.235 131.469 110.37 131.06 110.415C130.65 110.46 130.195 110.325 129.876 110.099C129.512 109.873 129.33 109.512 129.239 109.151C129.102 108.429 129.421 107.752 129.83 107.391C130.65 106.668 131.424 106.668 131.424 106.714C131.333 106.714 131.287 106.714 131.242 106.714C131.151 106.714 131.06 106.759 130.923 106.804C130.65 106.939 130.286 107.12 129.921 107.481C129.557 107.842 129.33 108.474 129.466 109.106C129.512 109.422 129.694 109.738 130.013 109.919C130.286 110.099 130.695 110.189 131.06 110.189C131.424 110.144 131.788 110.054 132.107 109.828C132.38 109.603 132.607 109.332 132.789 109.061C133.108 108.474 133.017 107.797 132.744 107.391C132.471 106.984 132.061 106.804 131.788 106.759C131.424 106.668 131.242 106.759 131.242 106.714Z" fill="#263238"/>
      <path d="M142.986 99.9875C142.986 100.033 142.212 99.8972 140.983 99.9875C139.754 100.078 138.024 100.529 136.477 101.613C134.929 102.696 133.927 104.14 133.427 105.224C132.88 106.352 132.744 107.12 132.698 107.075C132.698 107.075 132.698 106.894 132.789 106.533C132.88 106.172 133.017 105.72 133.245 105.134C133.745 104.005 134.747 102.47 136.34 101.387C137.933 100.258 139.709 99.852 140.938 99.8069C141.575 99.7618 142.076 99.8069 142.44 99.852C142.804 99.8972 142.986 99.9423 142.986 99.9875Z" fill="#263238"/>
      <path d="M121.272 113.755C121.272 113.755 121.317 113.62 121.454 113.394C121.591 113.169 121.818 112.808 122.137 112.446C122.774 111.679 123.821 110.821 125.278 110.325C126.689 109.828 128.1 109.918 129.056 110.099C129.557 110.189 129.921 110.325 130.149 110.46C130.376 110.55 130.513 110.641 130.513 110.641C130.513 110.686 129.967 110.415 129.011 110.28C128.055 110.099 126.735 110.099 125.323 110.55C123.958 111.002 122.865 111.86 122.228 112.582C121.591 113.259 121.317 113.801 121.272 113.755Z" fill="#263238"/>
      <path d="M135.748 115.606C135.748 115.606 135.429 115.426 134.974 115.065C134.519 114.658 133.973 114.071 133.472 113.349C132.971 112.582 132.652 111.86 132.516 111.273C132.334 110.731 132.288 110.37 132.334 110.37C132.425 110.325 132.744 111.769 133.699 113.214C134.655 114.703 135.794 115.561 135.748 115.606Z" fill="#263238"/>
      <path d="M156.552 107.345C156.552 107.345 156.598 107.3 156.689 107.3C156.78 107.3 156.871 107.255 157.053 107.3C157.372 107.3 157.827 107.481 158.145 107.932C158.51 108.384 158.601 109.106 158.237 109.783C158.054 110.099 157.827 110.415 157.508 110.641C157.189 110.866 156.78 111.002 156.37 111.047C155.96 111.092 155.505 110.957 155.186 110.731C154.822 110.505 154.64 110.144 154.549 109.783C154.413 109.061 154.731 108.384 155.141 108.023C155.96 107.3 156.734 107.3 156.734 107.345C156.643 107.345 156.598 107.345 156.552 107.345C156.461 107.345 156.37 107.391 156.234 107.436C155.96 107.571 155.596 107.752 155.232 108.113C154.868 108.474 154.64 109.106 154.777 109.738C154.822 110.054 155.004 110.37 155.323 110.55C155.596 110.731 156.006 110.821 156.37 110.821C156.734 110.776 157.098 110.686 157.417 110.46C157.69 110.235 157.918 109.964 158.1 109.693C158.419 109.106 158.328 108.429 158.054 108.023C157.781 107.616 157.372 107.436 157.098 107.391C156.734 107.3 156.552 107.345 156.552 107.345Z" fill="#263238"/>
      <path d="M168.297 100.619C168.297 100.665 167.523 100.529 166.294 100.619C165.065 100.71 163.335 101.161 161.787 102.245C160.239 103.328 159.238 104.772 158.737 105.856C158.191 106.984 158.054 107.752 158.009 107.707C158.009 107.707 158.009 107.526 158.1 107.165C158.191 106.804 158.327 106.352 158.555 105.766C159.056 104.637 160.057 103.102 161.651 102.019C163.244 100.89 165.019 100.484 166.248 100.439C166.886 100.394 167.386 100.439 167.751 100.484C168.115 100.529 168.297 100.574 168.297 100.619Z" fill="#263238"/>
      <path d="M146.583 114.387C146.583 114.387 146.628 114.252 146.765 114.026C146.901 113.801 147.129 113.439 147.447 113.078C148.085 112.311 149.132 111.453 150.589 110.957C152 110.46 153.411 110.55 154.367 110.731C154.868 110.821 155.232 110.957 155.459 111.092C155.687 111.182 155.824 111.273 155.824 111.273C155.824 111.318 155.277 111.047 154.321 110.912C153.365 110.731 152.045 110.731 150.634 111.182C149.268 111.634 148.176 112.492 147.538 113.214C146.901 113.891 146.583 114.433 146.583 114.387Z" fill="#263238"/>
      <path d="M161.059 116.238C161.059 116.238 160.74 116.058 160.285 115.697C159.829 115.29 159.283 114.703 158.782 113.981C158.282 113.214 157.963 112.492 157.826 111.905C157.644 111.363 157.599 111.002 157.644 111.002C157.735 110.957 158.054 112.401 159.01 113.846C159.966 115.335 161.104 116.193 161.059 116.238Z" fill="#263238"/>
      <path d="M18.5732 139.215C18.4366 139.26 17.7993 139.892 18.7097 140.93C19.6202 141.969 25.1284 144.767 26.1754 143.097C27.2225 141.427 24.7187 140.253 24.7187 140.253L18.5732 139.215Z" fill="#FFBE9D"/>
      <path d="M24.6275 137.409C24.6275 137.409 30.3178 136.777 32.6395 137.093C35.1432 137.409 37.8291 136.145 39.4224 134.43C41.0157 132.715 41.4254 130.458 41.4254 130.458L45.0672 127.93C45.0672 127.93 45.4769 119.398 39.741 120.752L32.9582 120.978C32.9582 120.978 19.7566 123.145 17.7081 124.77C17.7081 124.77 15.2043 127.162 14.476 128.11C14.2028 128.471 13.9752 131.992 16.479 133.166C16.479 133.166 14.9767 135.062 16.2969 136.1L16.9342 136.552C16.9342 136.552 16.0693 138.448 16.8887 138.989C17.7081 139.531 24.0357 141.427 25.8111 140.208C27.6775 138.989 25.5835 137.545 24.6275 137.409Z" fill="#FFBE9D"/>
      <path d="M17.5261 132.85C17.5261 132.85 17.7993 132.85 18.2545 132.94C18.7097 132.986 19.4381 133.076 20.303 133.166C20.7127 133.211 21.2135 133.211 21.7142 133.211C22.215 133.211 22.7612 133.211 23.353 133.256C23.9448 133.302 24.5366 133.437 25.0829 133.798C25.5836 134.159 26.0389 134.791 25.9478 135.559C25.9023 135.92 25.6747 136.236 25.4471 136.461C25.1739 136.687 24.9008 136.823 24.5821 136.958C23.9904 137.184 23.353 137.229 22.8068 137.274C21.6687 137.364 20.6217 137.319 19.7567 137.229C18.8918 137.139 18.209 137.003 17.7538 136.958C17.2985 136.868 17.0254 136.823 17.0254 136.823C17.0254 136.823 17.2985 136.823 17.7538 136.868C18.2545 136.913 18.9373 137.003 19.8023 137.093C20.6672 137.184 21.6687 137.229 22.8068 137.093C23.353 137.048 23.9448 136.958 24.5366 136.777C24.8098 136.687 25.0829 136.552 25.3105 136.326C25.5381 136.145 25.7202 135.875 25.7202 135.559C25.8113 134.972 25.4471 134.385 24.9463 134.024C24.4911 133.663 23.8538 133.572 23.3075 133.527C22.7612 133.482 22.215 133.482 21.7142 133.482C21.2135 133.482 20.7127 133.437 20.303 133.392C19.4381 133.302 18.7552 133.211 18.2545 133.121C17.7993 132.94 17.5261 132.85 17.5261 132.85Z" fill="#EB996E"/>
      <path d="M17.0707 128.787C17.0707 128.787 17.3439 128.787 17.7991 128.878C18.2543 128.923 18.9827 129.013 19.8021 129.103C20.667 129.194 21.6685 129.239 22.8066 129.239C23.3528 129.239 23.9902 129.194 24.582 129.51C24.8551 129.645 25.1282 129.916 25.2648 130.232C25.4014 130.548 25.4014 130.909 25.3558 131.225C25.2193 131.902 24.764 132.444 24.2178 132.805C23.6715 133.166 23.0797 133.302 22.4879 133.347C21.3499 133.437 20.3028 133.256 19.4379 133.211C18.6185 133.121 17.9357 133.076 17.4349 132.986C16.9797 132.94 16.7065 132.895 16.7065 132.895C16.7065 132.895 16.9797 132.895 17.4349 132.895C17.9357 132.94 18.6185 132.986 19.4834 133.031C20.3484 133.076 21.3499 133.211 22.4879 133.121C23.0342 133.076 23.626 132.895 24.1267 132.579C24.6275 132.263 25.0372 131.767 25.1738 131.18C25.3103 130.593 25.0372 129.916 24.5364 129.69C24.0357 129.419 23.3984 129.465 22.8521 129.419C21.714 129.419 20.667 129.329 19.8476 129.239C18.9827 129.149 18.2998 129.013 17.8446 128.923C17.3439 128.833 17.0707 128.787 17.0707 128.787Z" fill="#EB996E"/>
      <path d="M19.984 129.284C19.9385 129.284 19.7564 128.787 19.4833 128.246C19.2101 127.704 18.8915 127.253 18.937 127.208C18.9825 127.162 19.3922 127.524 19.7109 128.11C19.984 128.697 20.0751 129.239 19.984 129.284Z" fill="#EB996E"/>
      <path d="M37.419 121.113L32.0474 120.391C32.0474 120.391 16.8428 117.322 16.7062 117.728C16.5697 118.134 15.7958 118.27 16.3876 119.895C16.9339 121.52 25.7197 122.964 26.1294 123.461C26.5391 123.957 26.8123 126.982 30.2265 128.336C33.6862 129.69 35.8257 129.239 35.8257 129.239" fill="#FFBE9D"/>
      <path d="M35.7804 129.239C35.7804 129.239 35.7349 129.239 35.6438 129.284C35.5528 129.284 35.4617 129.329 35.2796 129.329C34.961 129.374 34.5057 129.374 33.9139 129.329C33.3222 129.284 32.5938 129.194 31.8199 128.968C31.0005 128.742 30.09 128.471 29.1796 127.93C28.2691 127.433 27.4042 126.576 26.8124 125.492C26.4938 124.95 26.3117 124.318 26.0841 123.732C26.0385 123.641 26.0385 123.596 25.993 123.551C25.9475 123.506 25.902 123.506 25.8109 123.461C25.6743 123.416 25.4923 123.371 25.3557 123.28C25.037 123.19 24.7184 123.1 24.3542 123.009C23.034 122.648 21.6228 122.332 20.1661 121.926C19.4377 121.7 18.7094 121.475 17.981 121.204C17.6168 121.068 17.2527 120.888 16.8885 120.662C16.7064 120.572 16.5698 120.436 16.3877 120.301C16.2967 120.211 16.2512 120.12 16.2056 120.03C16.1601 119.94 16.1601 119.849 16.1146 119.759C16.0236 119.353 15.9325 118.947 16.0236 118.54C16.0691 118.315 16.2056 118.134 16.3422 117.999C16.3877 117.908 16.4788 117.863 16.4788 117.773C16.4788 117.773 16.4788 117.773 16.5243 117.728C16.5698 117.683 16.6153 117.683 16.6153 117.683C16.6609 117.683 16.6609 117.683 16.7064 117.683C16.7519 117.683 16.7974 117.683 16.843 117.683C17.6168 117.728 18.3907 117.863 19.1191 117.999C20.6213 118.224 22.0325 118.495 23.3982 118.766C26.1296 119.263 28.5423 119.759 30.6363 120.165C31.1371 120.256 31.6378 120.391 32.093 120.436C32.5483 120.481 33.0035 120.572 33.4132 120.617C34.2326 120.752 34.961 120.843 35.5072 120.933C36.0535 121.023 36.5087 121.068 36.8274 121.113C36.964 121.159 37.1005 121.159 37.1916 121.159C37.2826 121.159 37.3281 121.204 37.3281 121.204C37.3281 121.204 37.2826 121.204 37.1916 121.204C37.1005 121.204 36.964 121.204 36.8274 121.159C36.5087 121.113 36.0535 121.068 35.5072 121.023C34.9154 120.933 34.1871 120.843 33.3677 120.752C32.958 120.707 32.5027 120.662 32.0475 120.572C31.5923 120.481 31.0915 120.391 30.5908 120.301C28.5423 119.895 26.0841 119.443 23.3527 118.947C21.987 118.676 20.5758 118.45 19.0736 118.179C18.3452 118.044 17.5713 117.954 16.7974 117.908C16.7519 117.908 16.7064 117.908 16.6609 117.908H16.6153C16.5698 117.863 16.6153 117.863 16.6153 117.863C16.7974 117.908 16.6609 117.908 16.7064 117.908C16.6609 117.999 16.5698 118.089 16.5243 118.179C16.3877 118.315 16.2967 118.45 16.2512 118.631C16.1601 118.947 16.2056 119.353 16.3422 119.714C16.3877 119.895 16.4333 120.075 16.5698 120.211C16.7064 120.346 16.843 120.436 17.0251 120.572C17.3437 120.752 17.7079 120.933 18.0721 121.068C18.8004 121.339 19.5288 121.61 20.2116 121.791C21.6684 122.197 23.0796 122.558 24.3997 122.919C24.7184 123.009 25.0826 123.1 25.4012 123.19C25.5833 123.235 25.7199 123.28 25.902 123.371C25.993 123.416 26.0841 123.461 26.1296 123.551C26.1751 123.641 26.2206 123.732 26.2661 123.777C26.4938 124.409 26.6758 124.996 26.9945 125.537C27.5408 126.621 28.3602 127.433 29.2706 127.93C30.1811 128.426 31.0915 128.742 31.8654 128.968C32.6393 129.194 33.3677 129.329 33.9595 129.374C34.5513 129.419 35.0065 129.419 35.2796 129.419C35.4162 129.419 35.5528 129.419 35.6438 129.374C35.7349 129.239 35.7804 129.239 35.7804 129.239Z" fill="#EB996E"/>
      <path d="M22.9432 137.139C22.9432 137.139 23.1253 137.139 23.4895 137.184C23.8536 137.229 24.3544 137.364 24.9462 137.635C25.2193 137.771 25.538 137.951 25.8566 138.177C26.1753 138.403 26.4939 138.764 26.5395 139.215C26.585 139.712 26.2663 140.163 25.8566 140.389C25.4469 140.66 24.9007 140.705 24.3999 140.705C22.4424 140.569 20.6671 140.298 19.4379 139.982C18.8006 139.802 18.2999 139.666 17.9812 139.531C17.6626 139.396 17.4805 139.305 17.4805 139.305C17.4805 139.305 17.6626 139.35 18.0267 139.441C18.3909 139.531 18.8917 139.666 19.4835 139.802C20.7126 140.073 22.488 140.344 24.3999 140.434C24.8551 140.434 25.3559 140.389 25.7201 140.163C26.0842 139.937 26.3574 139.576 26.3119 139.17C26.2663 138.809 25.9932 138.493 25.7201 138.267C25.4469 138.041 25.1283 137.861 24.8551 137.725C23.7626 137.184 22.9432 137.184 22.9432 137.139Z" fill="#EB996E"/>
      <path d="M62.548 106.307C62.548 106.307 69.2854 95.2928 70.7876 88.0251C72.2899 80.7574 80.1198 69.2464 82.669 66.2219C85.1728 63.1975 95.2788 59.7216 95.2788 59.7216L99.0117 57.7354L127.873 55.2075C127.873 55.2075 147.084 57.1937 152.865 62.4752C158.692 67.7567 163.199 79.7643 163.199 85.768C163.199 91.7718 169.071 143.819 169.071 143.819L97.9646 143.729L99.5579 118.044C99.5579 118.044 90.9542 112.266 88.678 107.255C86.4019 102.245 87.6765 104.772 87.6765 104.772C87.6765 104.772 79.619 121.745 76.8421 123.777C74.0653 125.763 41.7897 135.604 41.7897 135.604L37.374 118.811L62.548 106.307Z" fill="#5971F2"/>
      <path d="M146.492 64.5969C145.718 64.8226 136.067 89.5148 135.384 91.7718C134.701 94.0289 135.384 108.158 135.384 108.158L138.571 113.981C138.571 113.981 137.66 118.224 138.343 120.256L124.094 122.964C124.094 122.964 120.453 120.482 117.084 122.964L100.286 124.364C100.286 124.364 105.203 124.409 103.746 131.947C102.289 139.305 101.197 140.93 101.197 140.93L160.33 139.576C160.33 139.576 166.886 139.26 165.884 126.711C164.883 114.207 162.06 79.6289 162.06 79.6289C162.06 79.6289 157.736 61.1662 146.492 64.5969Z" fill="#5971F2"/>
      <path d="M135.293 106.172C135.293 106.172 135.248 106.082 135.157 105.856C135.066 105.63 134.929 105.314 134.792 104.953C134.656 104.547 134.428 104.095 134.246 103.508C134.064 102.967 133.836 102.335 133.609 101.613C133.381 100.89 133.154 100.123 132.971 99.2652C132.744 98.4075 132.562 97.5047 132.38 96.5116C132.061 94.5705 131.788 92.4038 131.697 90.1467C131.606 87.8897 131.697 85.7229 131.879 83.7367C132.016 82.7436 132.107 81.8408 132.243 80.9831C132.334 80.5317 132.38 80.1254 132.471 79.7191C132.562 79.3129 132.653 78.9517 132.698 78.5906C132.835 77.8683 133.017 77.1912 133.199 76.6495C133.336 76.0627 133.472 75.6113 133.609 75.205C133.745 74.8439 133.836 74.5279 133.927 74.3022C134.019 74.0765 134.019 73.9862 134.064 73.9862C134.064 73.9862 134.064 74.1216 133.973 74.3022C133.927 74.5279 133.836 74.8439 133.7 75.205C133.563 75.6113 133.427 76.1078 133.336 76.6495C133.199 77.2364 133.017 77.8683 132.88 78.5906C132.789 78.9517 132.744 79.3129 132.653 79.7191C132.562 80.1254 132.516 80.5317 132.471 80.9831C132.334 81.8408 132.243 82.7887 132.107 83.7367C131.924 85.6777 131.833 87.8445 131.924 90.1016C132.016 92.3586 132.289 94.4803 132.607 96.4213C132.789 97.3693 132.971 98.3172 133.154 99.1298C133.336 99.9875 133.563 100.755 133.745 101.477C133.927 102.199 134.155 102.831 134.337 103.373C134.519 103.96 134.701 104.411 134.838 104.818C134.974 105.179 135.066 105.495 135.157 105.72C135.248 106.036 135.293 106.172 135.293 106.172Z" fill="#263238"/>
      <path d="M155.869 132.94C155.869 132.94 155.824 132.895 155.733 132.76C155.642 132.624 155.505 132.444 155.323 132.263C155.141 132.038 154.959 131.767 154.686 131.451C154.413 131.135 154.14 130.774 153.821 130.413C153.502 130.051 153.138 129.6 152.683 129.194C152.273 128.742 151.818 128.336 151.317 127.885C150.316 126.982 149.178 126.079 147.903 125.176C146.628 124.319 145.354 123.596 144.17 122.964C143.578 122.693 142.987 122.377 142.44 122.152C141.894 121.926 141.393 121.7 140.893 121.565C140.437 121.384 139.982 121.249 139.618 121.114C139.254 120.978 138.89 120.888 138.616 120.798C138.343 120.707 138.161 120.662 137.979 120.617C137.843 120.572 137.751 120.527 137.751 120.527C137.751 120.527 137.843 120.527 137.979 120.572C138.161 120.617 138.343 120.662 138.616 120.707C138.89 120.752 139.254 120.843 139.618 120.978C140.028 121.114 140.437 121.204 140.938 121.384C141.439 121.565 141.94 121.745 142.486 121.971C143.032 122.197 143.624 122.468 144.216 122.739C145.445 123.325 146.719 124.048 147.994 124.95C149.269 125.853 150.407 126.756 151.408 127.704C151.909 128.156 152.364 128.607 152.774 129.058C153.184 129.51 153.548 129.916 153.866 130.322C154.185 130.683 154.458 131.09 154.731 131.406C154.959 131.722 155.187 131.993 155.323 132.263C155.46 132.489 155.596 132.67 155.687 132.805C155.824 132.85 155.869 132.94 155.869 132.94Z" fill="#263238"/>
      <path d="M160.831 129.645C160.786 129.69 160.285 129.103 159.284 128.291C158.783 127.885 158.191 127.478 157.463 127.027C156.734 126.621 155.915 126.214 155.004 125.853C154.094 125.537 153.184 125.266 152.364 125.131C151.545 124.996 150.771 124.905 150.133 124.86C148.859 124.815 148.085 124.905 148.085 124.86C148.085 124.86 148.267 124.815 148.631 124.77C148.813 124.725 149.041 124.725 149.269 124.725C149.542 124.725 149.815 124.68 150.133 124.725C150.771 124.725 151.545 124.815 152.364 124.95C153.184 125.086 154.094 125.357 155.05 125.673C155.96 126.034 156.825 126.44 157.554 126.892C158.282 127.343 158.874 127.794 159.375 128.201C159.648 128.381 159.83 128.607 160.012 128.787C160.194 128.968 160.331 129.103 160.467 129.239C160.695 129.465 160.831 129.645 160.831 129.645Z" fill="#263238"/>
      <path d="M155.369 121.384C155.323 121.429 154.64 120.888 153.366 120.256C153.047 120.12 152.683 119.94 152.319 119.804C151.954 119.624 151.499 119.534 151.044 119.398C150.133 119.172 149.132 118.947 148.039 118.856C146.947 118.811 145.945 118.856 144.989 118.947C144.534 119.037 144.079 119.082 143.669 119.218C143.26 119.308 142.895 119.398 142.531 119.534C141.165 119.985 140.437 120.436 140.392 120.391C140.392 120.391 140.574 120.256 140.938 120.075C141.12 119.985 141.348 119.85 141.575 119.759C141.848 119.669 142.121 119.488 142.486 119.398C142.804 119.263 143.214 119.127 143.624 119.037C144.033 118.902 144.489 118.856 144.944 118.766C145.9 118.631 146.947 118.586 148.039 118.631C149.132 118.721 150.179 118.902 151.089 119.172C151.545 119.308 151.954 119.443 152.364 119.624C152.774 119.759 153.092 119.94 153.411 120.12C153.73 120.256 154.003 120.436 154.23 120.617C154.458 120.752 154.686 120.888 154.822 121.023C155.186 121.249 155.369 121.384 155.369 121.384Z" fill="#263238"/>
      <path d="M120.771 139.892C120.726 139.892 121.09 138.944 121.181 137.364C121.272 136.597 121.227 135.649 121.181 134.611C121.09 133.572 120.862 132.444 120.589 131.27C120.271 130.097 119.861 129.058 119.451 128.065C118.996 127.117 118.541 126.305 118.085 125.673C117.221 124.364 116.447 123.732 116.492 123.687C116.492 123.687 116.674 123.822 116.993 124.138C117.175 124.273 117.357 124.499 117.539 124.725C117.63 124.86 117.767 124.996 117.858 125.131C117.949 125.266 118.085 125.447 118.176 125.582C118.677 126.214 119.132 127.072 119.588 127.975C120.043 128.923 120.453 130.006 120.771 131.18C121.09 132.354 121.272 133.482 121.363 134.566C121.454 135.604 121.454 136.552 121.318 137.364C121.318 137.545 121.272 137.771 121.272 137.906C121.227 138.087 121.227 138.267 121.181 138.403C121.135 138.719 121.044 138.989 120.999 139.17C120.908 139.666 120.817 139.892 120.771 139.892Z" fill="#263238"/>
      <path d="M110.847 122.829C110.847 122.739 110.802 122.603 110.802 122.423C110.756 122.061 110.665 121.565 110.574 120.933C110.392 119.624 110.164 117.773 109.846 115.471C109.299 110.821 108.617 104.411 108.07 97.3242C107.57 90.237 107.296 83.7818 107.16 79.1323C107.114 76.785 107.069 74.9342 107.069 73.6251C107.069 72.9931 107.069 72.4966 107.069 72.1354C107.069 71.9549 107.069 71.8646 107.069 71.7292C107.069 71.8194 107.069 71.9549 107.069 72.1354C107.069 72.4966 107.114 72.9931 107.114 73.6251C107.16 74.9342 107.205 76.8301 107.296 79.1323C107.479 83.7818 107.752 90.237 108.298 97.3242C108.799 104.411 109.482 110.821 109.982 115.471C110.255 117.773 110.483 119.624 110.62 120.933C110.711 121.565 110.756 122.061 110.802 122.423C110.802 122.603 110.847 122.693 110.847 122.829Z" fill="#263238"/>
      <path d="M87.6765 105.179C87.6765 105.179 87.5399 104.953 87.3578 104.502C87.1757 104.05 86.9026 103.418 86.5839 102.606C85.9011 101.026 84.8996 98.8589 83.6705 96.4665C82.4414 94.1191 81.3488 92.0426 80.5294 90.4627C80.1197 89.6953 79.801 89.0633 79.6189 88.6119C79.3913 88.1605 79.3003 87.9348 79.3003 87.9348C79.3003 87.9348 79.4369 88.1605 79.71 88.5668C79.9831 89.0182 80.3018 89.6502 80.7115 90.3724C81.5309 91.9072 82.7145 93.9837 83.9436 96.3762C85.1727 98.7235 86.1742 100.935 86.8115 102.561C87.1302 103.373 87.4033 104.005 87.5399 104.502C87.5854 104.908 87.6765 105.179 87.6765 105.179Z" fill="#263238"/>
      <path d="M84.0345 96.8276C84.0345 96.8276 83.8979 96.8276 83.6248 96.7373C83.3517 96.6922 82.9875 96.5568 82.5323 96.4213C81.6218 96.1053 80.3927 95.6539 79.0725 95.022C77.7524 94.39 76.6143 93.6677 75.8404 93.126C75.4307 92.8552 75.1121 92.6295 74.93 92.4489C74.7024 92.2683 74.6113 92.1781 74.6113 92.1781C74.6113 92.1329 75.1121 92.4941 75.9315 92.9906C76.7509 93.4872 77.889 94.1643 79.2091 94.7962C80.5293 95.4282 81.7584 95.9248 82.6233 96.2859C83.4882 96.6019 84.0345 96.7825 84.0345 96.8276Z" fill="#263238"/>
      <path d="M77.9345 112.221C77.9345 112.221 77.7525 112.13 77.4338 111.905C77.1151 111.679 76.7054 111.408 76.1136 111.092C74.9756 110.415 73.3823 109.557 71.5159 108.88C69.6494 108.203 67.874 107.797 66.5994 107.571C65.9621 107.481 65.4158 107.391 65.0516 107.345C64.6875 107.3 64.5054 107.255 64.5054 107.255C64.5054 107.255 64.6875 107.255 65.0972 107.255C65.4613 107.255 66.0076 107.3 66.6449 107.391C67.9651 107.571 69.7405 107.932 71.6524 108.655C73.5189 109.377 75.1577 110.234 76.2502 110.957C76.7965 111.318 77.2517 111.634 77.5248 111.86C77.7525 112.085 77.9345 112.221 77.9345 112.221Z" fill="#263238"/>
      <path d="M127.144 55.2978C127.144 55.2978 127.144 55.4332 127.099 55.6589C127.053 55.9298 127.008 56.2909 126.962 56.6972C126.826 57.6 126.689 58.9091 126.416 60.5342C126.143 62.1592 125.779 64.0552 125.141 66.1316C124.504 68.2081 123.639 70.4652 122.273 72.5868C121.591 73.7153 120.726 74.7084 119.906 75.6113L119.815 75.7015L119.724 75.6113C118.495 73.9862 116.947 72.8125 115.399 72.0451C114.626 71.6389 113.852 71.4132 113.123 71.2326C112.395 71.052 111.712 70.9617 111.029 70.9617C109.755 70.9166 108.753 71.1423 108.07 71.368C107.388 71.5937 107.069 71.7743 107.069 71.7291C107.069 71.7291 107.16 71.684 107.296 71.5937C107.479 71.5034 107.706 71.368 108.025 71.2777C108.708 71.0069 109.709 70.7812 110.984 70.7812C111.621 70.7812 112.349 70.8715 113.078 71.052C113.806 71.2326 114.626 71.5034 115.399 71.8646C116.993 72.632 118.586 73.8056 119.815 75.4758H119.633C120.452 74.573 121.272 73.5799 121.955 72.4965C123.275 70.3749 124.185 68.163 124.823 66.1316C125.46 64.0552 125.824 62.1592 126.143 60.5342C126.461 58.9091 126.644 57.6 126.78 56.6972C126.871 56.2458 126.917 55.9298 126.962 55.6589C127.099 55.3881 127.144 55.2978 127.144 55.2978Z" fill="#263238"/>
      <path d="M127.509 55.5686L123.138 49.7906L118.359 49.9711L102.881 58.0514L127.509 55.5686Z" fill="#5971F2"/>
      <path d="M107.114 71.7291C107.114 71.7291 107.023 71.7291 106.841 71.7291C106.659 71.7291 106.431 71.684 106.113 71.5937C105.475 71.4583 104.656 71.1423 103.655 70.5555C103.154 70.2846 102.653 70.0138 101.97 69.8784C101.333 69.7429 100.65 69.7429 99.9217 69.8784C98.5105 70.1492 97.0993 71.2777 96.462 72.8577L96.2344 73.5348V72.8125C96.2344 72.632 96.2344 72.4514 96.2344 72.2708C96.2799 68.7047 96.2799 65.4997 96.462 63.1523C96.5075 61.9787 96.6441 61.0307 96.7351 60.3987C96.7806 60.0828 96.8262 59.8119 96.8717 59.6765C96.9172 59.4959 96.9172 59.4056 96.9172 59.4056C96.9172 59.4056 96.8717 59.7668 96.8262 60.3987C96.7806 61.0307 96.6896 61.9787 96.6441 63.1523C96.553 65.4997 96.553 68.7047 96.5075 72.2708C96.5075 72.4514 96.5075 72.632 96.5075 72.8125L96.2799 72.7674C96.9172 71.0972 98.4195 69.9686 99.8762 69.6978C101.378 69.3818 102.79 69.8332 103.7 70.4652C104.656 71.052 105.475 71.4132 106.067 71.5486C106.75 71.684 107.114 71.7291 107.114 71.7291Z" fill="#263238"/>
      <path d="M123.138 21.8934V56.5166C123.138 58.5028 122.456 60.3987 121.135 61.9335C119.178 64.2357 116.811 66.2219 114.125 67.7116L107.069 71.6389L101.242 66.4928C99.5122 64.958 98.5107 62.8364 98.4197 60.5793C98.3286 58.0514 98.3286 55.5235 98.3286 55.5235C98.3286 55.5235 88.4502 54.8013 87.5398 45.1862C87.0845 40.627 86.948 31.3279 86.948 22.7511C86.9024 12.9555 94.5047 4.8301 104.338 4.01756L104.611 3.97242C114.808 3.65643 123.184 11.7818 123.138 21.8934Z" fill="#FFBE9D"/>
      <path d="M98.3286 55.2978C98.3286 55.2978 104.52 55.2978 110.711 50.6934C110.711 50.6934 108.298 57.8709 98.5107 57.8257L98.3286 55.2978Z" fill="#EB996E"/>
      <path d="M90.2251 29.1611C90.2706 29.8834 90.9079 30.4702 91.6818 30.4251C92.4557 30.4251 93.0475 29.7931 93.002 29.0708C92.9565 28.3486 92.3191 27.7617 91.5453 27.8069C90.8169 27.8069 90.2251 28.4389 90.2251 29.1611Z" fill="#263238"/>
      <path d="M89.4514 26.543C89.6335 26.7235 90.635 25.8658 92.1373 25.7304C93.6395 25.595 94.7776 26.2721 94.9597 26.0464C95.0507 25.9561 94.8231 25.6401 94.3224 25.3242C93.8216 25.0082 93.0022 24.7373 92.0462 24.8276C91.1358 24.9179 90.3619 25.3242 89.9522 25.6853C89.497 26.1367 89.3604 26.4978 89.4514 26.543Z" fill="#263238"/>
      <path d="M104.474 28.5743C104.52 29.2966 105.157 29.8834 105.931 29.8383C106.705 29.8383 107.297 29.2063 107.251 28.484C107.205 27.7618 106.568 27.175 105.794 27.2201C105.066 27.2201 104.474 27.8069 104.474 28.5743Z" fill="#263238"/>
      <path d="M104.201 25.6401C104.383 25.8207 105.385 24.963 106.887 24.8276C108.389 24.6922 109.527 25.3693 109.709 25.1436C109.8 25.0533 109.573 24.7373 109.072 24.4213C108.571 24.1053 107.752 23.8345 106.796 23.9248C105.885 24.015 105.111 24.4213 104.702 24.7824C104.246 25.2339 104.11 25.5498 104.201 25.6401Z" fill="#263238"/>
      <path d="M99.6942 37.1059C99.6942 37.0157 98.7382 36.9254 97.236 36.8802C96.8718 36.8802 96.4621 36.8351 96.4166 36.5643C96.3255 36.2934 96.4166 35.8871 96.5987 35.4357C96.8718 34.4878 97.1905 33.4947 97.5091 32.4564C98.7382 28.2132 99.6032 24.7373 99.4211 24.6922C99.239 24.647 98.1009 28.0326 96.8718 32.2759C96.5987 33.3141 96.28 34.3072 96.0524 35.2552C95.9614 35.7066 95.7338 36.2031 95.9614 36.7448C96.0979 37.0157 96.3711 37.1962 96.6442 37.2414C96.9173 37.2865 97.0994 37.2865 97.2815 37.2865C98.7382 37.2414 99.6942 37.1511 99.6942 37.1059Z" fill="#263238"/>
      <path d="M104.155 37.7379C103.927 37.7379 104.064 39.363 102.744 40.6269C101.469 41.8909 99.6938 41.8458 99.6938 42.0715C99.6938 42.1617 100.104 42.3423 100.832 42.2972C101.56 42.252 102.562 41.936 103.381 41.1686C104.155 40.4012 104.474 39.4533 104.474 38.7762C104.474 38.099 104.292 37.7379 104.155 37.7379Z" fill="#263238"/>
      <path d="M103.336 19.8621C103.518 20.2683 104.975 19.9524 106.75 19.9975C108.525 20.0426 109.982 20.4038 110.164 20.0426C110.255 19.8621 109.982 19.5009 109.39 19.1398C108.799 18.7787 107.843 18.5078 106.796 18.4627C105.749 18.4176 104.793 18.6884 104.155 19.0044C103.518 19.3204 103.245 19.6815 103.336 19.8621Z" fill="#263238"/>
      <path d="M89.6337 22.2094C89.9069 22.5254 90.9084 22.074 92.183 21.9837C93.4121 21.8031 94.5047 22.0289 94.6867 21.6677C94.7778 21.4872 94.5957 21.1712 94.095 20.9003C93.5942 20.6295 92.8203 20.4038 92.0009 20.5392C91.136 20.6295 90.4531 20.9906 90.0434 21.3969C89.6337 21.7129 89.4972 22.074 89.6337 22.2094Z" fill="#263238"/>
      <path d="M111.667 12.1881L111.712 12.2332C113.351 13.3166 114.534 14.9868 114.99 16.9279C114.99 16.973 115.035 17.0633 115.035 17.1085C115.627 19.8169 115.809 22.6608 116.446 25.3693C117.084 28.0777 116.947 30.1542 119.724 30.7862C121.454 31.1925 122.911 30.1994 123.548 29.2514C123.776 28.8903 123.776 28.3937 123.776 27.9423C123.73 21.2614 125.096 18.6433 124.504 11.6915C124.322 9.79562 123.275 8.08026 121.636 7.1323C120.088 6.22947 118.176 5.28151 116.628 6.18433C115.035 7.08715 113.214 10.2922 112.031 11.6915" fill="#263238"/>
      <path d="M120.225 26.543C120.407 26.4527 126.735 24.0151 127.099 30.6508C127.418 37.2866 120.68 36.2483 120.635 36.0677C120.589 35.842 120.225 26.543 120.225 26.543Z" fill="#FFBE9D"/>
      <path d="M122.547 33.4496C122.592 33.4044 122.683 33.5398 122.865 33.585C123.047 33.6753 123.412 33.7204 123.73 33.5398C124.413 33.269 124.959 32.0953 124.914 30.9217C124.914 30.3348 124.732 29.748 124.504 29.2966C124.276 28.8 123.958 28.484 123.594 28.4389C123.229 28.3938 123.002 28.6195 122.911 28.8C122.82 28.9806 122.865 29.116 122.865 29.116C122.865 29.116 122.729 29.0257 122.774 28.7549C122.774 28.6195 122.865 28.484 123.002 28.3486C123.138 28.2132 123.366 28.1229 123.639 28.1681C124.14 28.1681 124.641 28.6195 124.914 29.116C125.187 29.6126 125.415 30.2445 125.415 30.9217C125.46 32.2759 124.823 33.5398 123.867 33.8558C123.412 33.9913 123.002 33.901 122.774 33.7204C122.547 33.585 122.501 33.4496 122.547 33.4496Z" fill="#EB996E"/>
      <path d="M116.947 7.13229C118.358 4.37869 113.579 0.947966 110.164 0.180568C106.841 -0.58683 102.653 1.35424 99.4666 2.70847C97.4636 3.56615 95.4606 4.69467 93.3211 4.73982C91.8643 4.78496 90.4076 4.37869 88.9964 4.01756C87.5852 3.65643 86.1285 3.2953 84.6718 3.52101C83.215 3.74671 81.8038 4.64953 81.3486 6.00377C80.8934 7.40314 81.8493 9.16364 83.3061 9.25392C81.3941 8.39624 78.8449 9.93104 78.7083 12.0075C78.5717 14.084 80.9389 15.9348 82.9419 15.3028C81.9404 14.6709 80.5747 15.9799 80.8023 17.1085C81.0299 18.2821 82.168 19.0495 83.3061 19.4107C86.174 20.4038 89.4061 19.7266 92.183 18.553C94.9599 17.3793 97.5091 15.664 100.286 14.4C103.063 13.1361 107.661 10.879 110.62 11.6464C112.805 12.1881 114.444 14.6257 115.627 13.9486C116.72 13.3166 117.357 12.0527 117.494 10.7887C117.539 9.61505 117.266 8.3511 116.947 7.13229Z" fill="#263238"/>
      <path d="M82.4867 9.16364C82.5322 9.1185 82.8509 9.61506 83.6703 10.3373C84.4442 11.0144 85.7188 11.9172 87.5852 12.4138C89.3606 12.8652 91.7733 12.8652 93.9129 11.6464C96.098 10.4727 97.8733 8.26082 99.9219 6.18433C101.97 4.10784 104.474 2.43763 107.114 1.98621C109.709 1.5348 112.213 2.25706 113.67 3.65643C115.126 5.05581 115.536 6.72603 115.536 7.80941C115.536 8.35111 115.445 8.75737 115.354 9.02822C115.263 9.29907 115.172 9.43449 115.172 9.43449C115.126 9.43449 115.354 8.84766 115.263 7.80941C115.217 6.77117 114.717 5.23637 113.351 4.01756C111.985 2.79875 109.664 2.12164 107.205 2.61819C104.793 3.0696 102.38 4.6044 100.377 6.68089C98.3286 8.71223 96.5077 10.9241 94.186 12.1881C91.8644 13.4972 89.3151 13.4069 87.4487 12.8652C85.5367 12.3235 84.2621 11.3304 83.4882 10.563C83.124 10.1567 82.8509 9.84076 82.7143 9.56991C82.5322 9.29907 82.4412 9.16364 82.4867 9.16364Z" fill="#455A64"/>
      <path d="M121.909 26.0915C121.909 26.1367 121.591 25.911 121.318 25.4144C120.999 24.9179 120.771 24.1053 120.771 23.0671C120.726 20.9455 122.456 18.5078 122.456 15.5285C122.501 14.084 122.091 12.6846 121.409 11.6464C120.68 10.6082 119.679 10.0213 118.768 9.75048C117.858 9.47963 117.038 9.52477 116.538 9.61505C115.991 9.75048 115.718 9.8859 115.718 9.84076C115.718 9.79562 115.946 9.56991 116.492 9.38935C117.038 9.20878 117.903 9.02822 118.95 9.29907C119.952 9.56991 121.135 10.1567 121.955 11.3304C122.774 12.4589 123.23 13.9937 123.184 15.5737C123.184 17.1536 122.729 18.5981 122.228 19.8621C121.773 21.0809 121.363 22.2094 121.318 23.1574C121.044 25.0533 122 26.0464 121.909 26.0915Z" fill="#455A64"/>
      <path d="M120.407 35.842L119.315 34.8489C118.905 34.4878 118.905 33.8558 119.269 33.4947L123.321 29.1611C123.685 28.7548 124.322 28.7548 124.686 29.116L125.779 30.1091C126.189 30.4702 126.189 31.1022 125.824 31.4633L121.773 35.7969C121.409 36.158 120.771 36.2031 120.407 35.842Z" fill="#263238"/>
      <path d="M163.289 87.3029C163.289 87.3029 163.289 87.3931 163.335 87.5737C163.335 87.7543 163.38 88.0251 163.38 88.3411C163.426 89.0182 163.517 90.0565 163.608 91.3656C163.79 94.0289 164.063 97.911 164.382 102.831C164.7 107.752 165.11 113.71 165.565 120.527C165.656 122.242 165.793 124.003 165.93 125.763C165.975 126.666 166.021 127.569 166.066 128.517C166.112 128.968 166.066 129.465 166.066 129.916C166.021 130.367 166.066 130.864 165.975 131.361C165.93 131.857 165.839 132.309 165.793 132.805C165.702 133.302 165.565 133.753 165.474 134.25C165.338 134.701 165.156 135.198 165.019 135.649C164.792 136.1 164.655 136.552 164.382 137.003C163.426 138.764 161.924 140.389 159.875 141.066C146.582 141.066 131.423 141.066 115.354 141.066C110.574 141.066 105.84 141.066 101.242 141.066H101.105L101.151 140.93C101.561 139.396 102.016 137.906 102.426 136.416C102.653 135.649 102.835 134.927 103.063 134.159C103.29 133.437 103.473 132.67 103.609 131.947C103.837 130.458 103.7 128.923 103.199 127.524C102.972 126.846 102.608 126.169 102.152 125.628C101.697 125.086 101.014 124.68 100.331 124.589L99.3755 124.454L100.286 124.364C106.158 123.867 111.803 123.416 117.084 122.964H117.038C118.085 122.197 119.405 121.791 120.68 121.881C121.955 121.926 123.138 122.332 124.185 123.009H124.094C129.238 122.061 134.018 121.159 138.343 120.346L138.297 120.436C138.115 119.895 138.07 119.308 138.07 118.766C138.07 118.224 138.07 117.683 138.115 117.141C138.206 116.103 138.343 115.065 138.525 114.072V114.117C137.387 111.995 136.34 110.054 135.384 108.293C135.156 103.102 135.065 98.9944 135.111 96.1957C135.111 94.7963 135.202 93.7129 135.247 92.9906C135.293 92.6295 135.338 92.3587 135.384 92.1781C135.338 92.3587 135.293 92.6295 135.293 92.9906C135.247 93.7129 135.202 94.7963 135.202 96.1957C135.202 98.9944 135.293 103.102 135.52 108.293V108.248C136.476 110.054 137.569 111.95 138.707 114.072V114.117V114.162C138.525 115.11 138.388 116.148 138.297 117.186C138.252 117.728 138.252 118.224 138.252 118.766C138.252 119.308 138.297 119.85 138.479 120.391L138.525 120.482H138.434C134.064 121.294 129.329 122.197 124.185 123.19H124.14H124.094C123.093 122.558 121.909 122.152 120.68 122.107C119.451 122.061 118.222 122.423 117.175 123.19H117.129H117.084C111.758 123.641 106.158 124.093 100.286 124.589V124.364C101.06 124.499 101.743 124.905 102.243 125.492C102.744 126.079 103.108 126.756 103.336 127.478C103.837 128.923 103.973 130.503 103.746 132.038C103.655 132.805 103.427 133.572 103.199 134.295C102.972 135.017 102.79 135.784 102.562 136.552C102.152 138.041 101.697 139.576 101.287 141.066L101.196 140.93C105.794 140.93 110.529 140.93 115.308 140.93C131.378 140.93 146.582 140.976 159.83 140.976H159.784C160.74 140.66 161.65 140.073 162.379 139.396C163.107 138.673 163.699 137.861 164.2 137.003C164.427 136.552 164.609 136.1 164.837 135.649C164.974 135.198 165.156 134.701 165.292 134.25C165.383 133.753 165.52 133.302 165.611 132.85C165.656 132.354 165.747 131.902 165.793 131.451C165.884 130.999 165.839 130.503 165.884 130.051C165.884 129.6 165.93 129.103 165.884 128.652C165.839 127.749 165.793 126.801 165.747 125.898C165.611 124.093 165.52 122.332 165.429 120.617C164.974 113.801 164.609 107.842 164.291 102.922C163.972 98.0013 163.744 94.1192 163.562 91.4558C163.471 90.1467 163.426 89.1085 163.38 88.4314C163.38 88.0703 163.335 87.8446 163.335 87.664C163.289 87.3931 163.289 87.3029 163.289 87.3029Z" fill="#263238"/>
      <path d="M150.406 62.7009C150.406 62.7009 150.133 62.8815 149.587 63.1975C149.086 63.5135 148.312 64.01 147.493 64.6871C145.809 66.0414 143.715 68.2984 142.03 71.1423C140.346 73.9862 139.208 76.7849 138.389 78.8163C137.979 79.8094 137.66 80.6219 137.433 81.2088C137.341 81.4796 137.25 81.7053 137.159 81.8407C137.114 81.9762 137.068 82.0664 137.068 82.0664C137.068 82.0664 137.068 81.9762 137.114 81.8407C137.159 81.6602 137.25 81.4345 137.341 81.1636C137.524 80.5768 137.842 79.7642 138.206 78.726C138.98 76.6947 140.073 73.8508 141.803 70.9617C143.533 68.0727 145.627 65.8157 147.356 64.4614C148.221 63.7843 148.995 63.2878 149.542 63.0169C149.815 62.8815 150.042 62.7461 150.179 62.7009C150.315 62.7009 150.406 62.7009 150.406 62.7009Z" fill="#263238"/>
      <g opacity="0.3">
        <path d="M132.607 79.9448C130.65 84.0978 129.876 88.8376 130.058 93.442C130.24 98.0464 130.786 102.651 130.331 107.21C129.876 111.769 128.282 116.464 124.823 119.534C124.413 119.895 123.958 120.256 123.73 120.752C123.502 121.249 123.502 121.926 123.958 122.287C124.367 122.603 124.914 122.513 125.369 122.423C128.647 121.836 132.015 121.429 135.293 120.888C136.021 120.752 138.388 120.301 138.388 120.301C138.388 120.301 138.07 118.495 138.206 117.638C138.297 116.825 138.616 114.026 138.616 114.026C138.525 113.62 138.206 113.259 137.979 112.853C135.794 108.88 135.247 105.901 135.247 105.901C134.109 103.599 133.608 101.342 133.108 99.1749C131.605 93.2614 131.651 87.4382 132.607 79.9448Z" fill="black"/>
      </g>
      <g opacity="0.3">
        <path d="M96.5079 73.1737C96.7811 73.8508 97.0542 74.5279 97.3273 75.205C97.4184 75.4307 97.5094 75.6564 97.737 75.7016C98.1467 75.837 98.4654 75.3404 98.6475 74.9793C99.4214 73.4445 100.969 72.3611 102.699 72.1806C104.065 72.0451 105.521 72.4063 106.887 72.1354C105.704 71.4132 104.474 70.6909 103.109 70.2846C101.789 69.8784 100.286 69.7429 98.9661 70.2395C97.646 70.736 96.5534 71.9549 96.4624 73.3091" fill="black"/>
      </g>
      <g opacity="0.3">
        <path d="M107.752 71.4583C109.391 71.5035 110.984 71.5035 112.577 71.8646C114.171 72.2257 115.673 72.9931 116.72 74.2119C117.813 75.521 118.222 77.2815 118.677 78.9517C118.769 79.2677 118.905 79.674 119.269 79.674C119.451 79.674 119.633 79.5837 119.816 79.4483C122.547 77.4621 124.322 74.4376 125.324 71.2326C126.325 68.0276 126.553 64.642 126.598 61.3016C125.278 63.6038 124.732 66.222 123.867 68.7499C123.002 71.2326 121.727 73.7605 119.497 75.205C119.588 74.6182 119.36 74.0765 118.996 73.6251C118.632 73.1737 118.177 72.8577 117.676 72.5417C114.671 70.7361 110.893 70.2846 107.524 71.3229" fill="black"/>
      </g>
      <path d="M100.696 124.634H95.1423C95.1423 124.634 82.578 120.12 79.9833 120.572C77.6616 120.978 69.1489 126.576 67.4645 127.704C67.2824 127.839 67.1459 128.02 67.0548 128.201C66.7362 129.103 67.1459 130.142 68.0563 130.503L68.2384 130.593L68.1474 130.864C68.0563 131.18 68.0108 131.541 68.0108 131.857C68.0563 133.031 69.6951 133.392 70.2869 132.399L69.9683 132.986C69.8317 133.211 69.7862 133.482 69.7862 133.753L69.8317 134.25C69.8772 134.836 70.2414 135.333 70.7877 135.513C71.2884 135.694 71.8802 135.513 72.2444 135.152C73.3369 133.979 75.6586 131.631 77.2519 131.36C78.6631 131.135 80.9848 131.09 82.396 131.09C83.1243 131.09 83.7616 131.541 84.0348 132.218C83.0788 132.263 76.5691 135.649 74.2474 136.868C73.519 137.229 73.0183 137.906 72.8817 138.718C72.7907 139.441 73.1549 140.208 74.6116 139.847C77.6616 139.125 83.2154 136.597 83.2154 136.597C83.2154 136.597 86.0833 135.784 87.9042 137.093C90.499 138.899 91.6826 139.576 93.9132 138.854C96.1438 138.132 97.7826 137.048 97.7826 137.048L102.198 136.597C102.198 136.552 106.386 126.214 100.696 124.634Z" fill="#FFBE9D"/>
      <path d="M84.0803 126.756C84.0803 126.801 83.1699 126.53 81.7131 126.44C80.2564 126.35 78.1624 126.53 76.1139 127.388C74.0653 128.246 72.472 129.645 71.5616 130.728C70.6056 131.857 70.1959 132.67 70.1504 132.624C70.1504 132.624 70.2414 132.399 70.4235 132.038C70.6056 131.676 70.9698 131.18 71.425 130.593C72.3355 129.419 73.9288 128.02 76.0228 127.117C78.1168 126.214 80.2564 126.079 81.7131 126.214C82.4415 126.305 83.0333 126.395 83.443 126.485C83.8527 126.666 84.0803 126.756 84.0803 126.756Z" fill="#EB996E"/>
      <path d="M82.7601 123.732C82.7601 123.777 81.8497 123.371 80.3019 123.325C78.7541 123.28 76.6146 123.732 74.566 124.95C72.563 126.169 71.0153 127.704 69.9683 128.833C69.4675 129.374 69.0123 129.826 68.6936 130.142C68.375 130.458 68.2384 130.638 68.1929 130.593C68.1929 130.593 68.3294 130.413 68.6026 130.051C68.8757 129.735 69.2854 129.239 69.8317 128.652C70.8787 127.523 72.381 125.944 74.4295 124.68C76.478 123.461 78.7086 123.009 80.2564 123.1C81.0303 123.145 81.6676 123.28 82.0773 123.416C82.3049 123.461 82.4415 123.551 82.5325 123.596C82.6691 123.686 82.7601 123.732 82.7601 123.732Z" fill="#EB996E"/>
      <path d="M22.0332 144L6.91966 106.398C5.5995 103.147 7.96668 99.6263 11.5174 99.6263H58.5878C60.7274 99.6263 62.5938 100.981 63.2767 102.967L76.2506 140.885L91.4097 140.976C92.6388 140.976 93.6403 142.781 93.6403 144L76.979 143.819L22.0332 144Z" fill="#263238"/>
      <path d="M43.7929 123.371C43.7929 125.041 42.4272 126.395 40.7429 126.395C39.0585 126.395 37.6929 125.041 37.6929 123.371C37.6929 121.7 39.0585 120.346 40.7429 120.346C42.4272 120.346 43.7929 121.7 43.7929 123.371Z" fill="#F5F5F5"/>
      <path d="M195.324 143.774C195.324 143.819 151.596 143.91 97.6419 143.91C43.728 143.91 0 143.865 0 143.774C0 143.729 43.728 143.639 97.6817 143.639C151.596 143.684 195.324 143.729 195.324 143.774Z" fill="#263238"/>
    </g>
    <defs>
      <clipPath id="clip0_2_1430">
        <rect width="203" height="144" fill="white"/>
      </clipPath>
    </defs>
  </svg>