<svg xmlns="http://www.w3.org/2000/svg" width="164" height="148" viewBox="0 0 164 148" fill="none">
    <g clip-path="url(#clip0_3_1691)">
      <path d="M144.436 45.825C145.318 36.7983 147.39 28.2709 143.707 19.6283C136.955 3.68746 116.584 -4.7631 100.741 2.80399C92.6462 6.64515 85.7026 12.2533 76.8024 14.3275C52.6724 19.8588 15.4991 -9.79502 2.41742 24.737C-2.071 36.5678 -0.267961 52.2013 7.8649 62.1115C10.4736 65.2997 13.6577 68.0654 15.6141 71.676C20.9082 81.6247 13.4275 92.5336 10.0132 101.829C1.99543 123.762 32.2251 135.9 48.6443 138.128C75.7667 141.816 98.1704 110.741 125.139 123.417C143.937 132.251 160.433 110.741 156.98 89.2302C154.717 75.1331 143.285 61.689 144.359 47.3231C144.359 46.8237 144.397 46.3244 144.436 45.825Z" fill="#5971F2"/>
      <path opacity="0.7" d="M144.436 45.825C145.318 36.7983 147.39 28.2709 143.707 19.6283C136.955 3.68746 116.584 -4.7631 100.741 2.80399C92.6462 6.64515 85.7026 12.2533 76.8024 14.3275C52.6724 19.8588 15.4991 -9.79502 2.41742 24.737C-2.071 36.5678 -0.267961 52.2013 7.8649 62.1115C10.4736 65.2997 13.6577 68.0654 15.6141 71.676C20.9082 81.6247 13.4275 92.5336 10.0132 101.829C1.99543 123.762 32.2251 135.9 48.6443 138.128C75.7667 141.816 98.1704 110.741 125.139 123.417C143.937 132.251 160.433 110.741 156.98 89.2302C154.717 75.1331 143.285 61.689 144.359 47.3231C144.359 46.8237 144.397 46.3244 144.436 45.825Z" fill="white"/>
      <path d="M122.991 112.162H36.8283C34.3731 112.162 32.3398 110.165 32.3398 107.668V51.2028C32.3398 48.9365 34.1812 47.0927 36.4446 47.0927H123.413C125.676 47.0927 127.517 48.9365 127.517 51.2028V107.668C127.479 110.165 125.484 112.162 122.991 112.162Z" fill="white"/>
      <path d="M122.991 112.354H36.8282C34.2579 112.354 32.1479 110.241 32.1479 107.668V51.2027C32.1479 48.8212 34.0661 46.9006 36.4446 46.9006H123.413C125.791 46.9006 127.709 48.8212 127.709 51.2027V107.668C127.671 110.28 125.561 112.354 122.991 112.354ZM36.4446 47.3232C34.2963 47.3232 32.5316 49.0901 32.5316 51.2411V107.706C32.5316 110.088 34.4497 112.008 36.8282 112.008H123.029C125.407 112.008 127.325 110.088 127.325 107.706V51.2411C127.325 49.0901 125.561 47.3232 123.413 47.3232H36.4446Z" fill="#263238"/>
      <path d="M68.2853 53.5458H62.9146V57.0797H68.2853V53.5458Z" fill="#263238"/>
      <path d="M50.9071 75.2484H45.9199V80.2035H50.9071V75.2484Z" fill="#263238"/>
      <path d="M72.8888 57.8864H67.8633V62.8415H72.8888V57.8864Z" fill="#263238"/>
      <path d="M62.0705 53.5458H56.6997V57.0797H62.0705V53.5458Z" fill="#263238"/>
      <path d="M78.7584 57.8864H73.7329V62.8415H78.7584V57.8864Z" fill="#263238"/>
      <path d="M74.4616 53.5458H69.0908V57.0797H74.4616V53.5458Z" fill="#263238"/>
      <path d="M47.9147 69.4866H38.4775V74.4417H47.9147V69.4866Z" fill="#263238"/>
      <path d="M61.1881 57.8864H56.1626V62.8415H61.1881V57.8864Z" fill="#263238"/>
      <path d="M45.0759 75.2484H38.4775V80.2035H45.0759V75.2484Z" fill="#263238"/>
      <path d="M80.6764 53.5458H75.3057V57.0797H80.6764V53.5458Z" fill="#263238"/>
      <path d="M49.4493 57.8864H44.4238V62.8415H49.4493V57.8864Z" fill="#263238"/>
      <path d="M49.6794 53.5458H44.3086V57.0797H49.6794V53.5458Z" fill="#263238"/>
      <path d="M55.8556 53.5458H50.4849V57.0797H55.8556V53.5458Z" fill="#263238"/>
      <path d="M55.3185 57.8864H50.293V62.8415H55.3185V57.8864Z" fill="#263238"/>
      <path d="M67.0191 57.8864H61.9937V62.8415H67.0191V57.8864Z" fill="#263238"/>
      <path d="M105.497 53.5458H100.126V57.0797H105.497V53.5458Z" fill="#263238"/>
      <path d="M111.673 53.5458H106.303V57.0797H111.673V53.5458Z" fill="#263238"/>
      <path d="M108.029 57.8864H103.003V62.8415H108.029V57.8864Z" fill="#263238"/>
      <path d="M113.86 57.8864H108.834V62.8415H113.86V57.8864Z" fill="#263238"/>
      <path d="M123.105 75.2484H115.74V80.2035H123.105V75.2484Z" fill="#263238"/>
      <path d="M117.888 53.5458H112.517V57.0797H117.888V53.5458Z" fill="#263238"/>
      <path d="M43.5798 57.8864H38.4775V62.8415H43.5798V57.8864Z" fill="#263238"/>
      <path d="M86.8913 53.5458H81.5205V57.0797H86.8913V53.5458Z" fill="#263238"/>
      <path d="M93.0675 53.5458H87.6968V57.0797H93.0675V53.5458Z" fill="#263238"/>
      <path d="M90.4586 57.8864H85.4331V62.8415H90.4586V57.8864Z" fill="#263238"/>
      <path d="M102.159 57.8864H97.1338V62.8415H102.159V57.8864Z" fill="#263238"/>
      <path d="M84.5895 57.8864H79.564V62.8415H84.5895V57.8864Z" fill="#263238"/>
      <path d="M96.2901 57.8864H91.2646V62.8415H96.2901V57.8864Z" fill="#263238"/>
      <path d="M99.2824 53.5458H93.9116V57.0797H99.2824V53.5458Z" fill="#263238"/>
      <path d="M91.6483 75.2484H86.6611V80.2035H91.6483V75.2484Z" fill="#263238"/>
      <path d="M117.735 69.4866H112.748V74.4417H117.735V69.4866Z" fill="#263238"/>
      <path d="M111.904 69.4866H106.917V74.4417H111.904V69.4866Z" fill="#263238"/>
      <path d="M114.934 75.2484H109.947V80.2035H114.934V75.2484Z" fill="#263238"/>
      <path d="M109.103 75.2484H104.116V80.2035H109.103V75.2484Z" fill="#263238"/>
      <path d="M97.4793 75.2484H92.4922V80.2035H97.4793V75.2484Z" fill="#263238"/>
      <path d="M103.272 75.2484H98.2847V80.2035H103.272V75.2484Z" fill="#263238"/>
      <path d="M106.111 69.4866H101.124V74.4417H106.111V69.4866Z" fill="#263238"/>
      <path d="M100.28 69.4866H95.2925V74.4417H100.28V69.4866Z" fill="#263238"/>
      <path d="M123.144 53.5458H118.732V57.0797H123.144V53.5458Z" fill="#263238"/>
      <path d="M43.4647 53.5458H38.4775V57.0797H43.4647V53.5458Z" fill="#263238"/>
      <path d="M123.144 81.0486H38.4775V86.1957H123.144V81.0486Z" fill="#263238"/>
      <path d="M123.106 57.8864H114.704V62.8415H123.106V57.8864Z" fill="#263238"/>
      <path d="M123.144 69.4866H118.579V74.4417H123.144V69.4866Z" fill="#263238"/>
      <path d="M117.159 68.6032H116.315V63.6865H111.328V68.6032H110.484V63.6865H105.535V68.6032H104.691V63.6865H99.7042V68.6032H98.8602V63.6865H93.8731V68.6032H93.0291V63.6865H88.0803V68.6032H87.2364V63.6865H82.2492V68.6032H81.4053V63.6865H76.4181V68.6032H75.5741V63.6865H70.6254V68.6032H69.7814V63.6865H64.7943V68.6032H63.9503V63.6865H58.9632V68.6032H58.1192V63.6865H53.1704V68.6032H52.3264V63.6865H47.3393V68.6032H46.4953V63.6865H38.4775V68.6032H123.144V63.6865H117.159V68.6032Z" fill="#263238"/>
      <path d="M76.9935 69.4866H72.0063V74.4417H76.9935V69.4866Z" fill="#263238"/>
      <path d="M94.4486 69.4866H89.4614V74.4417H94.4486V69.4866Z" fill="#263238"/>
      <path d="M65.3695 69.4866H60.3823V74.4417H65.3695V69.4866Z" fill="#263238"/>
      <path d="M68.3621 75.2484H63.375V80.2035H68.3621V75.2484Z" fill="#263238"/>
      <path d="M71.201 69.4866H66.2139V74.4417H71.201V69.4866Z" fill="#263238"/>
      <path d="M59.5384 69.4866H54.5513V74.4417H59.5384V69.4866Z" fill="#263238"/>
      <path d="M56.7381 75.2484H51.751V80.2035H56.7381V75.2484Z" fill="#263238"/>
      <path d="M62.5692 75.2484H57.582V80.2035H62.5692V75.2484Z" fill="#263238"/>
      <path d="M82.8245 69.4866H77.8374V74.4417H82.8245V69.4866Z" fill="#263238"/>
      <path d="M85.8167 75.2484H80.8296V80.2035H85.8167V75.2484Z" fill="#263238"/>
      <path d="M88.6556 69.4866H83.6685V74.4417H88.6556V69.4866Z" fill="#263238"/>
      <path d="M74.1932 75.2484H69.2061V80.2035H74.1932V75.2484Z" fill="#263238"/>
      <path d="M80.0242 75.2484H75.0371V80.2035H80.0242V75.2484Z" fill="#263238"/>
      <path d="M53.7459 69.4866H48.7588V74.4417H53.7459V69.4866Z" fill="#263238"/>
      <path d="M132.927 11.7924H26.3937C24.1686 11.7924 22.519 13.9051 23.0945 16.0945L30.8821 45.1337C31.2657 46.6318 32.6468 47.6689 34.1813 47.6689H45.0379V49.6663H114.743V47.6305H125.101C126.635 47.6305 127.978 46.5934 128.4 45.0953L136.187 16.0945C136.763 13.9051 135.152 11.7924 132.927 11.7924Z" fill="#263238"/>
      <path d="M114.781 49.8199H45.0376C44.9225 49.8199 44.8458 49.7431 44.8458 49.6279V47.8225H34.181C32.5698 47.8225 31.112 46.7086 30.69 45.1721L22.9024 16.1329C22.5955 15.0574 22.8257 13.905 23.5162 13.0216C24.2067 12.1381 25.2425 11.6003 26.355 11.6003H132.888C134 11.6003 135.036 12.0997 135.727 13.0216C136.417 13.905 136.647 15.0574 136.341 16.1329L128.553 45.1721C128.131 46.747 126.712 47.8225 125.062 47.8225H114.896V49.6279C114.973 49.7431 114.858 49.8199 114.781 49.8199ZM45.2294 49.4358H114.551V47.6305C114.551 47.5152 114.627 47.4384 114.742 47.4384H125.1C126.558 47.4384 127.824 46.4781 128.208 45.0569L135.995 16.0177C136.264 15.0574 136.072 14.0203 135.458 13.2136C134.844 12.407 133.924 11.946 132.926 11.946H26.3934C25.396 11.946 24.4753 12.407 23.8615 13.2136C23.2477 14.0203 23.0559 15.019 23.3244 16.0177L31.0736 45.0569C31.4573 46.4781 32.7232 47.4384 34.181 47.4384H45.0376C45.1527 47.4384 45.2294 47.5152 45.2294 47.6305V49.4358Z" fill="#263238"/>
      <path d="M120.881 45.0953H38.4394L30.1914 15.3647H129.09L120.881 45.0953Z" fill="#5971F2"/>
      <path d="M120.88 45.2874H38.4393C38.3626 45.2874 38.2858 45.249 38.2475 45.1337L29.9995 15.4415C29.9995 15.3647 29.9995 15.3263 30.0379 15.2879C30.0762 15.2495 30.1146 15.2111 30.1913 15.2111H129.09C129.167 15.2111 129.205 15.2495 129.243 15.2879C129.282 15.3263 129.282 15.4031 129.282 15.4415L121.034 45.1337C121.034 45.2105 120.957 45.2874 120.88 45.2874ZM38.5927 44.9032H120.727L128.86 15.5952H30.4599L38.5927 44.9032Z" fill="#263238"/>
      <path d="M43.9251 32.0353V32.4195H42.4673V32.0353H43.9251Z" fill="#263238"/>
      <path d="M45.7283 32.0353V32.4195H44.2705V32.0353H45.7283Z" fill="#263238"/>
      <path d="M47.531 32.0353V32.4195H46.0732V32.0353H47.531Z" fill="#263238"/>
      <path d="M49.3342 32.0353V32.4195H47.8765V32.0353H49.3342Z" fill="#263238"/>
      <path d="M51.1375 32.0353V32.4195H49.6797V32.0353H51.1375Z" fill="#263238"/>
      <path d="M52.9402 32.0353V32.4195H51.4824V32.0353H52.9402Z" fill="#263238"/>
      <path d="M54.7815 32.0353V32.4195H53.3237V32.0353H54.7815Z" fill="#263238"/>
      <path d="M56.5463 34.0711L54.9351 29.8074H55.3187L56.9299 34.0711H56.5463Z" fill="#263238"/>
      <path d="M42.429 25.8126V26.1967H40.9712V25.8126H42.429Z" fill="#263238"/>
      <path d="M44.2703 25.8126V26.1967H42.8125V25.8126H44.2703Z" fill="#263238"/>
      <path d="M46.0735 25.8126V26.1967H44.6157V25.8126H46.0735Z" fill="#263238"/>
      <path d="M47.8762 25.8126V26.1967H46.4185V25.8126H47.8762Z" fill="#263238"/>
      <path d="M49.6795 25.8126V26.1967H48.2217V25.8126H49.6795Z" fill="#263238"/>
      <path d="M52.7483 25.8126V26.1967H51.2905V25.8126H52.7483Z" fill="#263238"/>
      <path d="M54.5515 25.8126V26.1967H53.0938V25.8126H54.5515Z" fill="#263238"/>
      <path d="M56.3547 25.8126V26.1967H54.897V25.8126H56.3547Z" fill="#263238"/>
      <path d="M58.1575 25.8126V26.1967H56.6997V25.8126H58.1575Z" fill="#263238"/>
      <path d="M59.9988 25.8126V26.1967H58.541V25.8126H59.9988Z" fill="#263238"/>
      <path d="M61.802 25.8126V26.1967H60.3442V25.8126H61.802Z" fill="#263238"/>
      <path d="M63.6052 25.8126V26.1967H62.1475V25.8126H63.6052Z" fill="#263238"/>
      <path d="M66.6741 25.8126V26.1967H65.2163V25.8126H66.6741Z" fill="#263238"/>
      <path d="M68.4773 25.8126V26.1967H67.0195V25.8126H68.4773Z" fill="#263238"/>
      <path d="M70.28 25.8126V26.1967H68.8223V25.8126H70.28Z" fill="#263238"/>
      <path d="M73.3494 25.8126V26.1967H71.8916V25.8126H73.3494Z" fill="#263238"/>
      <path d="M75.1521 25.8126V26.1967H73.6943V25.8126H75.1521Z" fill="#263238"/>
      <path d="M76.9553 25.8126V26.1967H75.4976V25.8126H76.9553Z" fill="#263238"/>
      <path d="M83.7454 25.8126V26.1967H82.2876V25.8126H83.7454Z" fill="#263238"/>
      <path d="M85.5867 25.8126V26.1967H84.1289V25.8126H85.5867Z" fill="#263238"/>
      <path d="M87.3899 25.8126V26.1967H85.9321V25.8126H87.3899Z" fill="#263238"/>
      <path d="M89.1931 25.8126V26.1967H87.7354V25.8126H89.1931Z" fill="#263238"/>
      <path d="M90.9959 25.8126V26.1967H89.5381V25.8126H90.9959Z" fill="#263238"/>
      <path d="M94.0652 25.8126V26.1967H92.6074V25.8126H94.0652Z" fill="#263238"/>
      <path d="M95.8679 25.8126V26.1967H94.4102V25.8126H95.8679Z" fill="#263238"/>
      <path d="M97.6712 25.8126V26.1967H96.2134V25.8126H97.6712Z" fill="#263238"/>
      <path d="M100.74 25.8126V26.1967H99.2822V25.8126H100.74Z" fill="#263238"/>
      <path d="M103.809 25.8126V26.1967H102.351V25.8126H103.809Z" fill="#263238"/>
      <path d="M128.054 88.923L123.95 104.787L127.824 105.939L128.054 88.923Z" fill="white"/>
      <path d="M127.824 106.131H127.786L123.911 104.979C123.796 104.941 123.758 104.864 123.796 104.749L127.901 88.8845C127.939 88.8077 128.016 88.7309 128.131 88.7309C128.246 88.7309 128.285 88.8077 128.285 88.923L128.054 105.939C128.054 106.016 128.016 106.055 127.978 106.093C127.901 106.131 127.863 106.131 127.824 106.131ZM124.18 104.672L127.632 105.67L127.824 90.4978L124.18 104.672Z" fill="#263238"/>
      <path d="M129.896 72.1755C129.896 72.1755 129.205 71.3304 129.436 69.7556C129.666 68.1807 131.546 67.835 131.546 67.835C131.546 67.835 131.968 67.5277 133.464 68.1039C134.96 68.68 146.622 70.2549 154.064 71.2536C161.507 72.2523 163.924 71.5993 163.809 74.1729C163.693 76.7465 157.172 99.7166 157.057 100.446C156.98 101.176 129.896 72.1755 129.896 72.1755Z" fill="white"/>
      <path d="M157.095 100.677C156.826 100.677 155.714 99.8318 143.131 86.5414C136.494 79.5121 129.819 72.4059 129.742 72.3291C129.704 72.2907 129.013 71.4072 129.244 69.7555C129.474 68.1807 131.162 67.7581 131.469 67.6813C131.622 67.6045 132.159 67.4124 133.54 67.9502C135.036 68.5264 146.967 70.1397 154.103 71.0999C156.021 71.3688 157.594 71.5225 158.86 71.6377C162.696 71.9834 164.115 72.1371 164.038 74.2113C163.962 76.055 160.663 88.1163 158.706 95.3377C157.939 98.1033 157.325 100.331 157.325 100.523V100.638L157.21 100.677C157.133 100.677 157.095 100.677 157.095 100.677ZM130.049 72.0602C140.062 82.7771 155.023 98.6411 156.941 100.178C157.095 99.563 157.555 97.9113 158.284 95.2224C160.241 88.0395 163.54 75.9782 163.617 74.1729C163.693 72.5212 162.734 72.3675 158.783 71.9834C157.517 71.8682 155.906 71.7145 154.026 71.4456C146.43 70.4085 134.921 68.8337 133.387 68.2575C132.044 67.7581 131.66 67.9886 131.622 67.9886L131.584 68.027H131.545C131.545 68.027 129.781 68.3727 129.589 69.7939C129.435 71.1768 130.011 71.9834 130.049 72.0602Z" fill="#263238"/>
      <path d="M161.206 76.421L129.883 72.1703L124.819 109.585L156.142 113.836L161.206 76.421Z" fill="white"/>
      <path d="M156.174 114.044L124.793 109.78C124.678 109.78 124.601 109.665 124.64 109.55L129.704 72.137C129.704 72.0986 129.742 72.0218 129.78 72.0218C129.819 71.9834 129.857 71.9834 129.934 71.9834L161.276 76.2471C161.391 76.2471 161.468 76.3623 161.43 76.4776L156.366 113.89C156.366 113.929 156.327 114.006 156.289 114.006C156.251 114.006 156.212 114.044 156.174 114.044ZM125.062 109.435L156.02 113.622L161.046 76.5928L130.049 72.4059L125.062 109.435Z" fill="#263238"/>
      <path d="M157.248 84.2367L155.407 84.0063C155.368 84.0063 155.33 83.9679 155.33 83.891C155.33 83.8526 155.407 83.8142 155.445 83.8142L157.287 84.0447C157.325 84.0447 157.363 84.0831 157.363 84.1599C157.325 84.1983 157.287 84.2367 157.248 84.2367Z" fill="#263238"/>
      <path d="M153.988 83.8142C153.949 83.8142 153.949 83.8142 153.988 83.8142L144.013 82.4698C143.975 82.4698 143.937 82.4314 143.937 82.3545C143.937 82.3161 144.013 82.2777 144.052 82.2777L154.026 83.6221C154.064 83.6221 154.103 83.6605 154.103 83.7374C154.064 83.7758 154.026 83.8142 153.988 83.8142Z" fill="#263238"/>
      <path d="M142.555 82.2393L131.891 80.7797C131.852 80.7797 131.814 80.7413 131.814 80.6645C131.814 80.6261 131.891 80.5876 131.929 80.5876L142.555 82.0473C142.594 82.0473 142.632 82.0857 142.632 82.1625C142.632 82.2009 142.594 82.2393 142.555 82.2393Z" fill="#263238"/>
      <path d="M156.788 87.5785L152.53 87.0024C152.491 87.0024 152.453 86.9639 152.453 86.8871C152.453 86.8487 152.491 86.8103 152.568 86.8103L156.788 87.3865C156.826 87.3865 156.865 87.4249 156.865 87.5017C156.865 87.5401 156.826 87.5785 156.788 87.5785Z" fill="#263238"/>
      <path d="M148.233 86.3878L131.469 84.1215C131.43 84.1215 131.392 84.0831 131.392 84.0063C131.392 83.9679 131.469 83.9294 131.507 83.9294L148.272 86.1957C148.31 86.1957 148.348 86.2341 148.348 86.311C148.31 86.3878 148.272 86.3878 148.233 86.3878Z" fill="#263238"/>
      <path d="M156.328 90.8819L139.947 88.654C139.908 88.654 139.87 88.6156 139.87 88.5388C139.87 88.462 139.908 88.462 139.985 88.462L156.328 90.6899C156.366 90.6899 156.404 90.7283 156.404 90.8051C156.443 90.8435 156.366 90.8819 156.328 90.8819Z" fill="#263238"/>
      <path d="M138.297 88.4236L131.008 87.4249C130.97 87.4249 130.932 87.3865 130.932 87.3097C130.932 87.2713 131.008 87.2328 131.047 87.2328L138.336 88.2315C138.374 88.2315 138.412 88.27 138.412 88.3468C138.374 88.4236 138.336 88.4236 138.297 88.4236Z" fill="#263238"/>
      <path d="M155.867 94.2238L145.394 92.8025C145.356 92.8025 145.317 92.7641 145.317 92.6873C145.317 92.6489 145.394 92.6105 145.432 92.6105L155.905 94.0317C155.944 94.0317 155.982 94.0701 155.982 94.1469C155.982 94.1854 155.944 94.2238 155.867 94.2238Z" fill="#263238"/>
      <path d="M144.205 92.6488L136.494 91.6117C136.456 91.6117 136.417 91.5733 136.417 91.4965C136.417 91.4581 136.494 91.4197 136.533 91.4197L144.205 92.4568C144.243 92.4568 144.282 92.4952 144.282 92.572C144.282 92.6104 144.243 92.6488 144.205 92.6488Z" fill="#263238"/>
      <path d="M135.19 91.4197L130.548 90.8051C130.51 90.8051 130.471 90.7667 130.471 90.6899C130.471 90.6515 130.51 90.613 130.586 90.613L135.228 91.2276C135.267 91.2276 135.305 91.266 135.305 91.3429C135.305 91.3813 135.228 91.4197 135.19 91.4197Z" fill="#263238"/>
      <path d="M155.445 97.5272L151.686 97.0278C151.647 97.0278 151.609 96.9894 151.609 96.9126C151.609 96.8742 151.647 96.8358 151.724 96.8358L155.483 97.3351C155.522 97.3351 155.56 97.3735 155.56 97.4503C155.522 97.4887 155.484 97.5272 155.445 97.5272Z" fill="#263238"/>
      <path d="M149.154 96.6821L130.087 94.1085C130.049 94.1085 130.011 94.0701 130.011 93.9933C130.011 93.9549 130.049 93.9164 130.126 93.9164L149.192 96.49C149.23 96.49 149.269 96.5284 149.269 96.6053C149.269 96.6437 149.23 96.6821 149.154 96.6821Z" fill="#263238"/>
      <path d="M154.985 100.869L144.397 99.4477C144.359 99.4477 144.32 99.4093 144.32 99.3325C144.32 99.2941 144.359 99.2557 144.435 99.2557L155.023 100.677C155.062 100.677 155.1 100.715 155.1 100.792C155.062 100.831 155.023 100.869 154.985 100.869Z" fill="#263238"/>
      <path d="M142.594 99.1788L129.666 97.4119C129.627 97.4119 129.589 97.3735 129.589 97.2967C129.589 97.2583 129.627 97.2198 129.704 97.2198L142.632 98.9868C142.671 98.9868 142.709 99.0252 142.709 99.102C142.671 99.1404 142.632 99.1788 142.594 99.1788Z" fill="#263238"/>
      <path d="M154.525 104.172L147.658 103.25C147.619 103.25 147.581 103.212 147.581 103.135C147.581 103.097 147.658 103.058 147.696 103.058L154.563 103.98C154.601 103.98 154.64 104.019 154.64 104.096C154.64 104.172 154.601 104.172 154.525 104.172Z" fill="#263238"/>
      <path d="M145.969 103.02L133.693 101.368C133.655 101.368 133.617 101.33 133.617 101.253C133.617 101.215 133.655 101.176 133.732 101.176L145.969 102.828C146.008 102.828 146.046 102.866 146.046 102.943C146.085 102.982 146.046 103.02 145.969 103.02Z" fill="#263238"/>
      <path d="M132.274 101.176L129.205 100.754C129.167 100.754 129.128 100.715 129.128 100.638C129.128 100.6 129.167 100.562 129.244 100.562L132.313 100.984C132.351 100.984 132.389 101.023 132.389 101.099C132.389 101.138 132.351 101.176 132.274 101.176Z" fill="#263238"/>
      <path d="M161.238 76.6312C161.123 76.6312 161.046 76.516 161.046 76.4007C161.085 76.055 161.43 73.0205 162.581 72.6364C162.965 72.5212 163.387 72.6748 163.847 73.1357C163.924 73.2126 163.924 73.3278 163.847 73.4046C163.77 73.4815 163.655 73.4815 163.578 73.4046C163.271 73.0589 162.965 72.9053 162.734 72.9821C162.044 73.2126 161.583 75.21 161.468 76.4007C161.43 76.5544 161.353 76.6312 161.238 76.6312Z" fill="#263238"/>
      <path d="M150.612 116.618L150.574 119.921L148.655 117.194L140.906 91.1124L142.863 90.5362L150.612 116.618Z" fill="white"/>
      <path d="M150.573 120.113C150.497 120.113 150.458 120.075 150.42 120.036L148.502 117.309L148.464 117.271L140.714 91.1892C140.676 91.074 140.753 90.9972 140.829 90.9587L142.786 90.3826C142.824 90.3826 142.901 90.3826 142.939 90.3826C142.978 90.421 143.016 90.4594 143.016 90.4978L150.765 116.579V116.618L150.727 119.921C150.727 119.998 150.689 120.075 150.573 120.113C150.612 120.113 150.612 120.113 150.573 120.113ZM148.809 117.117L150.382 119.345L150.42 116.656L142.748 90.7667L141.136 91.2276L148.809 117.117Z" fill="#263238"/>
      <path d="M142.419 90.6616L141.353 90.9791L149.094 117.046L150.16 116.728L142.419 90.6616Z" fill="#5971F2"/>
      <path d="M149.116 117.155C149.077 117.155 149.039 117.117 149.039 117.079L141.29 90.9972C141.29 90.9588 141.29 90.8819 141.366 90.8819L142.44 90.5746C142.479 90.5746 142.479 90.5746 142.517 90.5746C142.556 90.5746 142.556 90.6131 142.556 90.6131L150.305 116.695C150.305 116.733 150.305 116.733 150.305 116.771C150.305 116.81 150.266 116.81 150.266 116.81L149.116 117.155ZM141.481 91.0356L149.154 116.925L150.036 116.656L142.364 90.7667L141.481 91.0356Z" fill="#263238"/>
      <path d="M150.573 120.113C150.497 120.113 150.458 120.075 150.42 120.036L148.502 117.309C148.463 117.271 148.463 117.194 148.463 117.117C148.463 117.04 148.54 117.002 148.578 117.002L150.535 116.426C150.612 116.426 150.65 116.426 150.688 116.464C150.727 116.502 150.765 116.541 150.765 116.618L150.727 119.921C150.727 119.998 150.688 120.075 150.573 120.113C150.612 120.113 150.612 120.113 150.573 120.113ZM148.962 117.309L150.382 119.345L150.42 116.887L148.962 117.309Z" fill="#263238"/>
      <path d="M149.614 118.577L150.573 119.921L150.612 118.269L149.614 118.577Z" fill="#263238"/>
      <path d="M150.573 120.113C150.497 120.113 150.458 120.075 150.42 120.036L149.461 118.692C149.422 118.654 149.422 118.577 149.422 118.5C149.422 118.423 149.499 118.385 149.537 118.385L150.535 118.077C150.612 118.077 150.65 118.077 150.688 118.116C150.727 118.154 150.765 118.193 150.765 118.269V119.921C150.765 119.998 150.727 120.075 150.612 120.113C150.612 120.113 150.612 120.113 150.573 120.113ZM149.921 118.692L150.381 119.345V118.538L149.921 118.692Z" fill="#263238"/>
      <path d="M141.022 87.9243C140.484 88.0779 140.178 88.6541 140.331 89.1919L140.906 91.1125L142.863 90.5363L142.287 88.6157C142.134 88.0395 141.559 87.7322 141.022 87.9243Z" fill="white"/>
      <path d="M140.906 91.3045C140.868 91.3045 140.829 91.3045 140.829 91.2661C140.791 91.2277 140.753 91.1892 140.753 91.1508L140.177 89.2303C140.101 88.923 140.101 88.5773 140.292 88.3084C140.446 88.0395 140.714 87.809 141.021 87.7322C141.328 87.6554 141.673 87.6554 141.942 87.8474C142.211 88.0011 142.441 88.27 142.517 88.5773L143.093 90.4978C143.131 90.6131 143.055 90.6899 142.978 90.7283L141.021 91.3045C140.945 91.3045 140.906 91.3045 140.906 91.3045ZM141.328 88.0395C141.251 88.0395 141.175 88.0395 141.098 88.0779C140.868 88.1547 140.714 88.27 140.599 88.462C140.484 88.6541 140.484 88.8846 140.523 89.115L141.06 90.882L142.671 90.421L142.134 88.6541C142.057 88.4236 141.942 88.27 141.75 88.1547C141.597 88.0779 141.443 88.0395 141.328 88.0395Z" fill="#263238"/>
      <path d="M141.021 87.9242C140.484 88.0779 140.177 88.654 140.331 89.1918L140.599 90.1137L142.556 89.5375L142.287 88.6156C142.134 88.0395 141.558 87.7322 141.021 87.9242Z" fill="#263238"/>
      <path d="M140.599 90.3058C140.522 90.3058 140.446 90.2674 140.407 90.1521L140.139 89.2302C140.062 88.9229 140.062 88.5772 140.254 88.3084C140.407 88.0395 140.676 87.809 140.983 87.7322C141.635 87.5401 142.287 87.9242 142.479 88.5388L142.747 89.4607C142.747 89.4991 142.747 89.5759 142.747 89.6144C142.709 89.6528 142.671 89.6912 142.632 89.6912L140.676 90.2674C140.637 90.3058 140.637 90.3058 140.599 90.3058ZM141.328 88.0395C141.251 88.0395 141.175 88.0395 141.098 88.0779C140.868 88.1547 140.714 88.2699 140.599 88.462C140.484 88.6541 140.484 88.8845 140.522 89.115L140.753 89.8448L142.364 89.3839L142.134 88.6541C142.057 88.4236 141.942 88.2699 141.75 88.1547C141.597 88.0779 141.443 88.0395 141.328 88.0395Z" fill="#263238"/>
      <path d="M43.6951 73.7887C43.6568 73.7887 43.6184 73.7887 43.5801 73.7503C43.5033 73.7119 43.465 73.5583 43.5033 73.4814C43.7335 73.0973 44.002 72.7516 44.2322 72.4059C44.3089 72.3291 44.424 72.2907 44.5008 72.3675C44.5775 72.4443 44.6158 72.5596 44.5391 72.6364C44.2706 72.9821 44.0404 73.3662 43.8102 73.7119C43.8102 73.7503 43.7335 73.7887 43.6951 73.7887Z" fill="white"/>
      <path d="M45.4599 71.292C45.4216 71.292 45.3832 71.292 45.3448 71.2536C45.2681 71.1768 45.2297 71.0615 45.3065 70.9847C46.9177 68.9873 48.2604 67.7581 48.2988 67.7581C48.3755 67.6813 48.4906 67.6813 48.5673 67.7581C48.644 67.8349 48.644 67.9502 48.5673 68.027C48.5673 68.027 47.1862 69.2562 45.6517 71.2152C45.575 71.2536 45.5366 71.292 45.4599 71.292Z" fill="white"/>
      <path d="M41.2399 74.7106C41.2016 74.7106 41.2016 74.7106 41.1632 74.7106C41.0865 74.6722 41.0097 74.557 41.0865 74.4417C42.0072 72.5595 43.9253 69.8323 43.9637 69.7939C44.0404 69.7171 44.1555 69.6787 44.2322 69.7555C44.3089 69.8323 44.3473 69.9476 44.2706 70.0244C44.2706 70.0628 42.3524 72.7516 41.4317 74.6338C41.355 74.6722 41.3166 74.7106 41.2399 74.7106Z" fill="white"/>
      <path d="M70.3953 79.6273C70.357 79.6273 70.3186 79.6273 70.2803 79.5889C70.2035 79.5505 70.1652 79.3968 70.2035 79.32C70.4337 78.9743 70.6639 78.5902 70.9324 78.2445C71.0091 78.1676 71.1242 78.1292 71.201 78.2061C71.2777 78.2829 71.316 78.3981 71.2393 78.4749C70.9708 78.8206 70.7406 79.2048 70.5104 79.5505C70.5104 79.5889 70.4721 79.6273 70.3953 79.6273Z" fill="white"/>
      <path d="M72.1982 77.1305C72.1598 77.1305 72.1215 77.1305 72.0831 77.0921C72.0064 77.0153 71.968 76.9001 72.0448 76.8233C73.656 74.8258 74.9987 73.5967 75.037 73.5967C75.1138 73.5199 75.2288 73.5199 75.3056 73.5967C75.3823 73.6735 75.3823 73.7887 75.3056 73.8656C75.3056 73.8656 73.9245 75.0947 72.39 77.0537C72.3133 77.1305 72.2366 77.1305 72.1982 77.1305Z" fill="white"/>
      <path d="M67.9401 80.5876C67.9018 80.5876 67.9018 80.5876 67.8634 80.5876C67.7867 80.5492 67.7099 80.434 67.7867 80.3187C68.7074 78.4366 70.6255 75.7093 70.6639 75.6709C70.7406 75.5941 70.8557 75.5557 70.9324 75.6325C71.0091 75.7093 71.0475 75.8246 70.9708 75.9014C70.9708 75.9398 69.0526 78.6286 68.1319 80.5108C68.0936 80.5492 68.0168 80.5876 67.9401 80.5876Z" fill="white"/>
      <path d="M109.41 69.0641C109.372 69.0641 109.334 69.0641 109.295 69.0257C108.95 68.7952 108.566 68.5263 108.221 68.3343C108.144 68.2959 108.106 68.1422 108.144 68.0654C108.183 67.9886 108.336 67.9502 108.413 67.9886C108.797 68.219 109.142 68.4495 109.525 68.7184C109.602 68.7952 109.641 68.9105 109.564 68.9873C109.564 69.0257 109.487 69.0641 109.41 69.0641Z" fill="white"/>
      <path d="M114.091 72.9821C114.052 72.9821 113.976 72.9437 113.937 72.9053C113.937 72.9053 112.71 71.5609 110.715 70.0244C110.638 69.9476 110.6 69.8323 110.677 69.7555C110.753 69.6787 110.868 69.6403 110.945 69.7171C112.978 71.292 114.206 72.6364 114.244 72.6364C114.321 72.7132 114.321 72.8284 114.244 72.9053C114.206 72.9821 114.168 72.9821 114.091 72.9821Z" fill="white"/>
      <path d="M112.019 68.68C111.981 68.68 111.942 68.68 111.904 68.6416C111.866 68.6416 109.142 66.7594 107.262 65.876C107.147 65.8376 107.109 65.7223 107.185 65.6071C107.224 65.4919 107.339 65.4534 107.454 65.5303C109.372 66.4137 112.134 68.2959 112.134 68.3343C112.211 68.4111 112.249 68.5264 112.173 68.6032C112.134 68.6416 112.057 68.68 112.019 68.68Z" fill="white"/>
      <path d="M69.1679 97.5271H69.1295C69.0144 97.4887 68.9761 97.4119 68.9761 97.2967C69.283 96.1059 69.5899 94.1085 69.7817 92.6489C69.7817 92.5336 69.8968 92.4568 70.0119 92.4952C70.127 92.4952 70.2037 92.6105 70.1653 92.7257C69.9735 94.1853 69.6666 96.1827 69.3597 97.4119C69.3213 97.4503 69.2446 97.5271 69.1679 97.5271Z" fill="#263238"/>
      <path d="M70.0888 91.8038C69.9737 91.8038 69.897 91.6886 69.897 91.5733C69.9353 91.1508 69.9737 90.8435 69.9737 90.8435C69.9737 90.7283 70.0888 90.6515 70.2039 90.6899C70.319 90.6899 70.3957 90.8051 70.3573 90.9203C70.3573 90.9203 70.319 91.1892 70.2806 91.6502C70.2806 91.7654 70.2039 91.8038 70.0888 91.8038Z" fill="#263238"/>
      <path d="M69.6666 99.2941C69.6282 99.2941 69.5898 99.2941 69.5898 99.2557C69.5131 99.2173 69.4747 99.102 69.5131 98.9868C70.2803 97.4887 71.0092 94.9536 71.0476 94.9152C71.086 94.7999 71.2011 94.7615 71.2778 94.7999C71.3929 94.8383 71.4312 94.9536 71.3929 95.0304C71.3545 95.1456 70.6256 97.6424 69.8584 99.1404C69.82 99.2557 69.7433 99.2941 69.6666 99.2941Z" fill="#263238"/>
      <path d="M92.4538 102.367C92.4155 102.367 92.3387 102.367 92.3004 102.329C90.4973 100.523 90.1904 97.2198 90.1904 97.1046C90.1904 96.9894 90.2672 96.9125 90.3822 96.9125C90.4973 96.9125 90.5741 96.9894 90.5741 97.1046C90.5741 97.143 90.8426 100.37 92.5689 102.098C92.6456 102.175 92.6456 102.29 92.5689 102.367C92.5305 102.367 92.4922 102.367 92.4538 102.367Z" fill="#263238"/>
      <path d="M92.454 103.903C92.4156 103.903 92.3772 103.903 92.3389 103.865C90.766 102.828 89.9988 100.523 89.9604 100.446C89.922 100.331 89.9988 100.254 90.0755 100.216C90.1522 100.177 90.2673 100.254 90.3057 100.331C90.3057 100.37 91.0729 102.597 92.5307 103.558C92.6074 103.635 92.6458 103.75 92.5691 103.827C92.5691 103.865 92.4923 103.903 92.454 103.903Z" fill="#263238"/>
      <path d="M37.4419 121.112C37.4419 121.112 39.7053 113.699 39.7053 101.906C39.7053 90.1138 41.6618 81.5096 44.0786 77.7452C46.4955 73.9809 48.7589 72.4444 49.7946 72.4444C50.8304 72.4444 50.1015 73.7888 48.6054 75.7862C47.1093 77.7452 45.7282 78.8208 45.1528 81.2407C44.5773 83.6606 44.539 86.6951 45.3062 86.3878C46.0735 86.0806 47.2627 80.0499 48.3369 77.7836C49.411 75.5174 51.9429 72.6365 53.4774 71.2921C54.9736 69.9477 58.3111 65.8376 59.8073 66.9132C61.3034 67.9887 60.4211 69.4867 59.5004 70.1013C58.5797 70.7159 54.9736 74.3266 53.324 76.5929C51.6744 78.8592 50.6003 84.6209 51.521 84.7362C52.4417 84.8898 55.127 76.4392 56.6615 74.5955C58.1577 72.7901 64.219 67.7966 65.5617 67.643C66.9044 67.4893 67.0578 69.602 65.8686 70.6775C64.6793 71.753 60.5745 76.2856 59.2318 78.9744C57.8891 81.6632 57.2753 86.6951 58.4646 85.466C59.6538 84.2752 61.6487 79.2817 63.2983 77.5916C64.9479 75.9399 69.935 70.6391 71.1626 71.2537C72.3518 71.8683 72.0833 73.3663 71.0092 74.4418C69.935 75.5174 65.8686 81.2407 64.8328 84.2752C63.7586 87.3097 62.5694 95.7603 63.1832 94.5695C63.797 93.3788 65.7535 87.1561 66.7893 84.5825C67.8634 82.0089 69.9734 80.8182 70.2419 82.0089C70.5488 83.1997 69.935 83.8143 69.1677 86.5415C68.4005 89.2687 68.4005 96.5285 66.1371 100.6C63.8737 104.672 55.127 115.696 53.8994 118.73C52.7102 121.765 49.9865 128.41 49.9865 128.41" fill="white"/>
      <path d="M49.9863 128.564C49.948 128.564 49.948 128.564 49.9096 128.564C49.7945 128.525 49.7562 128.41 49.7945 128.295C49.8329 128.218 52.5183 121.611 53.7075 118.615C54.3597 116.963 57.3136 112.853 60.1524 108.897C62.4925 105.632 64.9094 102.29 65.9452 100.446C67.4413 97.7577 67.94 93.6476 68.3236 90.3442C68.5154 88.7309 68.6689 87.3481 68.9374 86.4262C69.206 85.4659 69.4361 84.7745 69.628 84.2368C69.9732 83.2381 70.165 82.7387 69.9732 82.0089C69.8965 81.74 69.743 81.7016 69.628 81.7016C69.0142 81.6632 67.6715 82.6619 66.8659 84.6209C66.3671 85.8885 65.6383 87.9627 64.9477 89.9601C64.2188 92.0343 63.5667 93.9933 63.2598 94.6079C63.1447 94.8384 62.9912 94.8384 62.9145 94.8C62.7611 94.7231 62.5309 94.6463 63.183 90.3826C63.605 87.7322 64.1421 85.3891 64.5641 84.16C65.6383 81.087 69.743 75.3253 70.7788 74.2497C71.3926 73.6352 71.7379 72.8669 71.6228 72.2523C71.5461 71.8682 71.3543 71.5993 70.9707 71.4073C70.0116 70.9463 65.6383 75.4021 63.9887 77.0538C63.7585 77.3227 63.5283 77.5147 63.3365 77.7068C62.4542 78.5903 61.4567 80.4724 60.5744 82.1241C59.8071 83.5838 59.0783 84.9666 58.5028 85.5428C58.1576 85.8885 57.9274 85.8117 57.8123 85.6964C57.045 85.1587 57.8507 80.9718 58.9248 78.8207C60.2675 76.1319 64.3339 71.5609 65.5999 70.447C66.3288 69.794 66.4822 68.7953 66.2521 68.2191C66.137 67.9887 65.9068 67.7198 65.4464 67.7582C64.1805 67.9118 58.1192 72.9053 56.6614 74.6339C55.9709 75.4405 55.0118 77.7452 54.0911 79.9347C52.595 83.507 51.9428 84.9282 51.3674 84.8514C51.2523 84.8514 51.0988 84.7745 50.9837 84.5057C50.485 83.2765 51.5976 78.3598 53.0553 76.4008C54.7433 74.0961 58.3877 70.447 59.3084 69.8708C59.8071 69.5635 60.3059 68.9105 60.3442 68.2191C60.3442 67.7582 60.114 67.3357 59.6153 66.9899C58.5412 66.2601 56.2394 68.6417 54.6666 70.2165C54.2062 70.6775 53.8226 71.0616 53.5157 71.3689C52.1346 72.6365 49.526 75.4789 48.4135 77.822C47.9531 78.8207 47.4544 80.5108 46.994 82.1625C46.1501 85.0818 45.7664 86.3494 45.3061 86.5415C45.1526 86.6183 44.9992 86.5799 44.8457 86.4646C44.2319 85.9269 44.3854 83.2381 44.8841 81.1638C45.3445 79.2817 46.2652 78.2061 47.3393 76.9386C47.6846 76.516 48.0298 76.0935 48.4135 75.6326C49.948 73.5967 50.1781 72.9438 50.063 72.7133C50.0247 72.6365 49.8712 72.6365 49.7945 72.6365C48.8738 72.6365 46.6488 74.0193 44.2319 77.822C42.122 81.1254 39.897 89.1535 39.897 101.906C39.897 113.583 37.6336 121.074 37.6336 121.15C37.5952 121.266 37.4801 121.304 37.4034 121.266C37.2883 121.227 37.2499 121.112 37.2883 121.035C37.3267 120.958 39.5517 113.506 39.5517 101.906C39.5517 91.1893 41.2397 81.8937 43.9634 77.63C46.3419 73.904 48.6436 72.2523 49.8712 72.2523C50.2549 72.2523 50.4083 72.406 50.485 72.5596C50.7152 73.059 50.2549 74.0193 48.7971 75.9014C48.4135 76.4008 48.0682 76.8233 47.7229 77.2074C46.6488 78.475 45.8048 79.4737 45.3445 81.2791C44.8074 83.4301 44.8074 85.8501 45.191 86.1958C45.191 86.1958 45.2294 86.2342 45.2677 86.1958C45.613 86.0421 46.2652 83.7374 46.7639 82.0857C47.2242 80.434 47.7229 78.7055 48.1833 77.7068C49.2958 75.3253 51.9428 72.406 53.3622 71.1384C53.6691 70.8695 54.0528 70.447 54.5131 70.0245C56.2394 68.2575 58.6179 65.8376 59.9606 66.7595C60.6895 67.2972 60.8429 67.8734 60.8429 68.2959C60.8429 69.1026 60.2291 69.8708 59.6537 70.2549C58.7714 70.8311 55.2036 74.4034 53.5157 76.7081C52.0579 78.7055 51.0988 83.4301 51.5208 84.4672C51.5592 84.5441 51.5976 84.5825 51.5976 84.5825C51.9812 84.5057 53.0937 81.8553 53.9377 79.8963C54.8584 77.6684 55.8558 75.3637 56.5463 74.5186C57.9657 72.7901 64.1038 67.6814 65.5615 67.4893C66.0986 67.4125 66.5206 67.6814 66.7508 68.1807C67.0577 68.9105 66.8659 70.1013 66.0219 70.8695C64.7559 71.9835 60.7662 76.4776 59.4235 79.128C58.2343 81.548 57.7739 85.3123 58.1959 85.5428C58.1959 85.5428 58.2343 85.5428 58.3877 85.4275C58.9248 84.8898 59.6537 83.5454 60.3826 82.0857C61.3033 80.3188 62.3007 78.475 63.183 77.5531C63.3749 77.3611 63.5667 77.169 63.8352 76.9001C67.5564 73.0974 70.2801 70.6775 71.2776 71.1768C71.7763 71.4073 72.0448 71.8298 72.1599 72.3292C72.275 73.059 71.8914 73.9425 71.2008 74.6723C70.2034 75.671 66.0986 81.4327 65.0628 84.4288C64.2188 86.8104 63.3749 92.2648 63.2598 94.0701C63.605 93.1867 64.1421 91.6118 64.7176 89.9601C65.4081 87.9243 66.137 85.8501 66.6357 84.5825C67.4797 82.5467 68.9374 81.3559 69.7814 81.4327C70.1267 81.4711 70.3568 81.6632 70.4719 82.0473C70.6637 82.8924 70.4719 83.4685 70.1267 84.5057C69.9349 85.0434 69.7047 85.7348 69.4361 86.6951C69.206 87.5786 69.0142 88.9614 68.8223 90.5363C68.4387 93.8781 67.94 97.9881 66.4055 100.754C65.3697 102.636 63.068 105.824 60.6128 109.243C57.7739 113.161 54.8584 117.232 54.2062 118.846C53.017 121.842 50.2932 128.449 50.2932 128.525C50.1398 128.525 50.0631 128.564 49.9863 128.564Z" fill="#263238"/>
      <path d="M122.377 121.112C122.377 121.112 120.113 113.698 120.113 101.906C120.113 90.1137 118.157 81.5095 115.74 77.7452C113.323 73.9808 111.06 72.4444 110.024 72.4444C108.95 72.4444 109.717 73.7888 111.213 75.7862C112.709 77.7452 114.09 78.8207 114.666 81.2406C115.279 83.6606 115.279 86.6951 114.512 86.3878C113.745 86.0805 112.556 80.0499 111.482 77.7836C110.407 75.5173 107.875 72.6364 106.341 71.292C104.845 69.9476 101.507 65.8376 100.011 66.9131C98.515 67.9886 99.3973 69.4867 100.318 70.1013C101.239 70.7158 104.845 74.3265 106.494 76.5928C108.144 78.8591 109.218 84.6209 108.297 84.7361C107.377 84.8897 104.691 76.4392 103.157 74.5954C101.661 72.7901 95.5994 67.7966 94.2568 67.6429C92.9141 67.4893 92.7606 69.6019 93.9499 70.6774C95.1391 71.753 99.2439 76.2855 100.587 78.9743C101.929 81.6632 102.543 86.6951 101.354 85.4659C100.165 84.2752 98.1697 79.2816 96.5202 77.5915C94.8706 75.9398 89.8834 70.639 88.6558 71.2536C87.4666 71.8682 87.7351 73.3662 88.8093 74.4418C89.8834 75.5173 93.9499 81.2406 94.9856 84.2752C96.0598 87.3097 97.249 95.7602 96.6352 94.5695C96.0214 93.3787 94.0649 87.156 93.0292 84.5824C91.955 82.0089 89.8451 80.8181 89.5765 82.0089C89.2696 83.1996 89.8834 83.8142 90.6507 86.5414C91.4179 89.2687 91.4179 96.5285 93.6813 100.6C95.9447 104.672 104.691 115.696 105.919 118.73C107.108 121.765 109.832 128.41 109.832 128.41" fill="white"/>
      <path d="M109.87 128.564C109.794 128.564 109.717 128.525 109.678 128.449C109.64 128.372 106.955 121.765 105.765 118.769C105.113 117.156 102.198 113.084 99.3589 109.166C96.9037 105.747 94.6019 102.521 93.5662 100.677C92.0317 97.9113 91.5329 93.7628 91.1493 90.4594C90.9575 88.8461 90.8041 87.4633 90.5355 86.6183C90.267 85.6964 90.0368 85.005 89.845 84.4288C89.4614 83.3917 89.2696 82.8155 89.4997 81.9705C89.5765 81.5863 89.845 81.3943 90.1903 81.3559C91.0726 81.2791 92.492 82.4698 93.336 84.5056C93.8347 85.7732 94.5636 87.8474 95.2541 89.8833C95.8296 91.535 96.3666 93.1482 96.7119 93.9933C96.5968 92.188 95.7528 86.7335 94.9088 84.352C93.8731 81.3559 89.7683 75.5941 88.7708 74.5954C88.0419 73.8656 87.6967 72.9821 87.8118 72.2523C87.8885 71.753 88.1954 71.3689 88.6941 71.1C89.6915 70.6006 92.3769 73.0206 96.1365 76.8233C96.3666 77.0922 96.5968 77.2842 96.7886 77.4763C97.7093 78.3982 98.6684 80.2419 99.5891 82.0089C100.356 83.4301 101.047 84.8129 101.584 85.3507C101.699 85.4659 101.776 85.4659 101.776 85.4659C102.198 85.2355 101.737 81.4711 100.51 79.0512C99.2055 76.4008 95.1774 71.9066 93.9114 70.7927C93.0291 70.0244 92.8373 68.8337 93.1825 68.1039C93.4127 67.6045 93.8347 67.374 94.3718 67.4125C95.8679 67.5661 101.968 72.7133 103.387 74.4418C104.116 75.3253 105.075 77.5915 105.996 79.8194C106.801 81.74 107.914 84.4288 108.336 84.5056C108.336 84.5056 108.374 84.4672 108.412 84.3904C108.834 83.3533 107.875 78.6287 106.418 76.6312C104.73 74.3265 101.162 70.7543 100.28 70.1781C99.7042 69.794 99.0904 69.0257 99.0904 68.2191C99.0904 67.7966 99.2438 67.2204 99.9727 66.6826C101.315 65.7608 103.656 68.1807 105.42 69.9476C105.881 70.4086 106.264 70.7927 106.571 71.0616C107.99 72.3291 110.638 75.2484 111.75 77.63C112.21 78.6287 112.709 80.3572 113.169 82.0089C113.668 83.699 114.32 86.0037 114.666 86.1189C114.704 86.1189 114.704 86.1189 114.742 86.1189C115.126 85.7732 115.126 83.3533 114.589 81.2022C114.129 79.4353 113.285 78.3982 112.21 77.1306C111.865 76.7081 111.52 76.2855 111.136 75.8246C109.717 73.9424 109.218 72.9821 109.448 72.4828C109.525 72.3291 109.678 72.1755 110.062 72.1755C111.29 72.1755 113.591 73.8272 115.97 77.5531C118.694 81.8168 120.382 91.1124 120.382 101.829C120.382 113.468 122.607 120.881 122.645 120.958C122.683 121.073 122.607 121.15 122.53 121.189C122.415 121.227 122.338 121.15 122.3 121.074C122.261 120.997 120.036 113.506 120.036 101.829C120.036 89.0766 117.773 81.0486 115.701 77.7452C113.246 73.9424 111.021 72.5596 110.139 72.5596C110.024 72.5596 109.909 72.5596 109.87 72.6364C109.755 72.8669 109.947 73.5199 111.52 75.5557C111.903 76.0167 112.249 76.4392 112.594 76.8617C113.668 78.1293 114.55 79.2048 115.049 81.087C115.548 83.1612 115.701 85.85 115.088 86.3878C114.972 86.503 114.781 86.5414 114.627 86.4646C114.167 86.2726 113.745 85.005 112.939 82.0857C112.479 80.434 111.98 78.7439 111.52 77.7452C110.446 75.4021 107.837 72.5596 106.418 71.292C106.111 70.9847 105.727 70.6006 105.267 70.1397C103.732 68.5648 101.392 66.1833 100.318 66.9131C99.8193 67.2588 99.5891 67.6429 99.5891 68.1423C99.5891 68.7953 100.126 69.4483 100.625 69.794C101.507 70.3701 105.152 74.0193 106.878 76.324C108.336 78.3214 109.448 83.1996 108.95 84.4288C108.834 84.6977 108.681 84.7361 108.566 84.7745C108.029 84.8513 107.338 83.4301 105.842 79.8578C104.921 77.6684 103.962 75.4021 103.272 74.557C101.814 72.7901 95.7528 67.835 94.4869 67.6813C94.0265 67.6429 93.7963 67.9118 93.6812 68.1423C93.4127 68.7184 93.6045 69.7556 94.3334 70.3701C95.5994 71.4841 99.6658 76.0551 101.008 78.7439C102.083 80.8949 102.888 85.0818 102.121 85.6196C102.006 85.6964 101.776 85.7732 101.43 85.4659C100.855 84.8897 100.126 83.5069 99.3589 82.0473C98.4766 80.3956 97.4791 78.475 96.5968 77.63C96.405 77.4379 96.2132 77.2458 95.9446 76.9769C94.295 75.2868 89.9217 70.8311 88.9626 71.3304C88.579 71.5225 88.3488 71.7914 88.3105 72.1755C88.1954 72.7901 88.5407 73.5583 89.1545 74.1729C90.1902 75.21 94.295 80.9718 95.3692 84.0831C95.7912 85.3123 96.3283 87.6554 96.7503 90.3058C97.4408 94.5311 97.1722 94.6463 97.0188 94.7231C96.9421 94.7615 96.7886 94.7615 96.6735 94.5311C96.3666 93.9165 95.6761 91.9575 94.9856 89.8833C94.295 87.8859 93.5662 85.8116 93.0674 84.544C92.2618 82.5851 90.9191 81.5479 90.3053 81.6248C90.1902 81.6248 90.0368 81.6632 89.9601 81.9321C89.7683 82.6619 89.9601 83.1612 90.3053 84.1599C90.4972 84.6977 90.7273 85.3891 90.9959 86.3494C91.2644 87.2713 91.4179 88.6541 91.6097 90.2674C91.9933 93.5708 92.492 97.6424 93.9881 100.37C95.0239 102.213 97.4408 105.594 99.7809 108.82C102.62 112.777 105.574 116.848 106.226 118.538C107.415 121.534 110.139 128.141 110.139 128.218C110.177 128.333 110.139 128.41 110.024 128.487C109.909 128.564 109.87 128.564 109.87 128.564Z" fill="#263238"/>
      <path d="M27.8896 144.159H50.9072C51.2141 143.007 51.5977 141.701 52.0581 140.318C53.8611 134.902 59.7306 128.103 59.7306 128.103C59.7306 128.103 54.0913 122.648 45.2679 119.921C36.4445 117.194 29.9996 118.001 29.9996 118.001C29.9996 118.001 31.9944 125.068 30.3832 132.981C29.2323 138.589 28.4267 142.123 27.8896 144.159Z" fill="#263238"/>
      <path d="M50.9071 144.351H27.8896C27.8128 144.351 27.7745 144.313 27.7361 144.274C27.6978 144.236 27.6978 144.159 27.6978 144.121C28.2732 142.008 29.0788 138.282 30.153 132.981C31.7258 125.222 29.8077 118.154 29.7693 118.077C29.7693 118.039 29.7693 117.962 29.8077 117.924C29.8461 117.885 29.8844 117.847 29.9611 117.847C30.0379 117.847 36.5595 117.079 45.3445 119.768C54.0912 122.456 59.8456 127.911 59.884 127.949C59.9607 128.026 59.9607 128.141 59.884 128.218C59.8072 128.295 54.0145 135.055 52.2498 140.395C51.8278 141.662 51.4442 142.93 51.0989 144.236C51.0606 144.274 50.9838 144.351 50.9071 144.351ZM28.1581 143.967H50.7537C51.0989 142.738 51.4442 141.47 51.8662 140.241C53.5158 135.286 58.618 129.102 59.462 128.103C58.5413 127.296 53.1321 122.572 45.1911 120.113C37.4035 117.732 31.4189 118.077 30.1913 118.193C30.4982 119.46 31.956 125.952 30.5366 133.058C29.5008 138.205 28.6952 141.777 28.1581 143.967Z" fill="#263238"/>
      <path d="M108.758 144.159H132.658C131.891 142.161 130.241 137.859 128.591 133.519C126.328 127.642 127.249 119.729 126.328 119.729C125.407 119.729 115.241 119.038 110.292 120.651C105.305 122.226 99.666 126.758 99.666 126.758C99.666 126.758 103.502 131.06 106.226 136.477C107.454 138.896 108.259 141.739 108.758 144.159Z" fill="#263238"/>
      <path d="M132.696 144.351H108.796C108.72 144.351 108.643 144.274 108.605 144.197C107.952 141.163 107.108 138.589 106.073 136.553C103.387 131.214 99.5894 126.912 99.5511 126.874C99.5127 126.835 99.5127 126.797 99.5127 126.72C99.5127 126.682 99.5511 126.605 99.5894 126.605C99.6278 126.566 105.344 122.034 110.293 120.459C114.666 119.076 122.952 119.422 125.638 119.537C126.021 119.537 126.29 119.575 126.405 119.575C126.942 119.575 127.019 120.459 127.134 122.994C127.287 125.798 127.517 130.023 128.86 133.519L132.926 144.159C132.965 144.236 132.926 144.274 132.888 144.351C132.811 144.312 132.735 144.351 132.696 144.351ZM108.912 143.967H132.389L128.4 133.596C127.057 130.062 126.827 125.798 126.673 122.956C126.597 121.534 126.52 120.036 126.29 119.883C126.175 119.883 125.945 119.883 125.561 119.844C122.875 119.729 114.666 119.383 110.331 120.766C105.919 122.187 100.855 125.99 99.9347 126.72C100.625 127.527 103.963 131.521 106.38 136.323C107.415 138.397 108.259 140.971 108.912 143.967Z" fill="#263238"/>
    </g>
    <defs>
      <clipPath id="clip0_3_1691">
        <rect width="164" height="148" fill="white"/>
      </clipPath>
    </defs>
  </svg>