<svg xmlns="http://www.w3.org/2000/svg" width="179" height="159" viewBox="0 0 179 159" fill="none">
    <path d="M168.614 109.384H10.3867C4.86387 109.384 0.386719 113.861 0.386719 119.384V148.339C0.386719 153.862 4.86387 158.339 10.3867 158.339H168.614C174.137 158.339 178.614 153.862 178.614 148.339V119.384C178.614 113.861 174.137 109.384 168.614 109.384Z" fill="#F5F7FF"/>
    <path d="M117.871 135.61C117.871 135.668 94.0378 135.785 64.769 135.785C35.3957 135.785 11.667 135.727 11.667 135.61C11.667 135.551 35.5002 135.434 64.769 135.434C94.1424 135.493 117.871 135.551 117.871 135.61Z" fill="#263238"/>
    <path d="M118.185 141.576C118.185 141.635 94.247 141.752 64.7691 141.752C35.2912 141.752 11.3535 141.693 11.3535 141.576C11.3535 141.518 35.2912 141.401 64.7691 141.401C94.247 141.401 118.185 141.459 118.185 141.576Z" fill="#263238"/>
    <path d="M15.2827 118.413L16.6316 121.104L19.6226 121.513L17.4526 123.619L17.9218 126.602L15.2827 125.198L12.6436 126.602L13.1128 123.619L10.9429 121.513L13.9338 121.104L15.2827 118.413Z" fill="#5971F2"/>
    <path d="M25.1357 118.413L26.4846 121.104L29.4755 121.513L27.3056 123.619L27.8334 126.602L25.1357 125.198L22.4966 126.602L22.9658 123.619L20.8545 121.513L23.7868 121.104L25.1357 118.413Z" fill="#E8E9F3"/>
    <path d="M34.9882 118.413L36.3371 121.104L39.3281 121.513L37.1581 123.619L37.686 126.602L34.9882 125.198L32.3491 126.602L32.877 123.619L30.707 121.513L33.698 121.104L34.9882 118.413Z" fill="#E8E9F3"/>
    <path d="M44.8408 118.413L46.1896 121.104L49.1806 121.513L47.0107 123.619L47.5385 126.602L44.8408 125.198L42.2017 126.602L42.7295 123.619L40.5596 121.513L43.5505 121.104L44.8408 118.413Z" fill="#E8E9F3"/>
    <path d="M54.7519 118.413L56.0422 121.104L59.0331 121.513L56.8632 123.619L57.391 126.602L54.7519 125.198L52.0542 126.602L52.582 123.619L50.4121 121.513L53.4031 121.104L54.7519 118.413Z" fill="#E8E9F3"/>
    <path d="M32.7011 149.415C32.7011 149.473 28.068 149.59 22.4379 149.59C16.7492 149.59 12.1748 149.531 12.1748 149.415C12.1748 149.298 16.8079 149.239 22.4379 149.239C28.068 149.298 32.7011 149.356 32.7011 149.415Z" fill="#E8E9F3"/>
    <path d="M142.991 152.69C152.287 152.69 159.823 145.174 159.823 135.902C159.823 126.631 152.287 119.115 142.991 119.115C133.696 119.115 126.16 126.631 126.16 135.902C126.16 145.174 133.696 152.69 142.991 152.69Z" fill="#5971F2"/>
    <path d="M139.004 117.126C139.356 115.43 140.587 114.494 142.229 113.85C143.871 113.207 145.807 113.382 147.273 114.377C148.27 115.02 149.032 116.015 150.146 116.307C152.023 116.833 154.076 115.371 155.835 116.073C156.891 116.482 157.595 117.711 157.36 118.822C157.125 119.934 156.07 120.869 154.955 120.869C156.187 121.22 156.656 122.917 156.011 124.028C155.366 125.14 153.958 125.607 152.727 125.432C151.495 125.256 150.322 124.555 149.325 123.794C148.328 123.034 147.449 122.098 146.393 121.396C145.337 120.694 144.106 120.168 142.816 120.343C141.115 120.519 139.707 121.922 139.062 123.502C138.417 125.081 138.3 126.836 138.3 128.532C138.3 130.228 138.359 131.983 137.948 133.621C137.889 133.797 137.831 134.031 137.655 134.089C137.362 134.206 137.127 133.914 136.951 133.68C135.25 130.872 134.077 127.772 133.55 124.496C133.256 122.624 133.198 120.811 134.136 119.173C135.074 117.535 137.655 116.19 139.004 117.126Z" fill="#263238"/>
    <path d="M136.13 125.257L136.365 144.442C136.423 147.718 137.127 152.515 142.288 152.222C146.745 151.637 147.859 147.367 147.801 144.325C147.801 142.863 147.742 141.693 147.801 141.518C147.801 141.518 152.668 140.991 152.962 136.136C153.079 133.797 153.02 128.942 152.844 124.555C152.668 119.875 148.915 116.073 144.223 115.839H143.754C138.769 115.839 135.954 120.168 136.13 125.257Z" fill="#FFBE9D"/>
    <path d="M147.859 141.401C147.859 141.401 144.751 141.518 141.584 139.295C141.584 139.295 142.933 142.863 147.801 142.629L147.859 141.401Z" fill="#EB996E"/>
    <path d="M150.968 127.479C150.968 127.83 150.674 128.123 150.264 128.123C149.853 128.123 149.56 127.83 149.56 127.479C149.56 127.128 149.853 126.836 150.264 126.836C150.674 126.836 150.968 127.128 150.968 127.479Z" fill="#263238"/>
    <path d="M151.73 126.894C151.613 126.953 151.144 126.543 150.381 126.543C149.619 126.485 149.091 126.836 148.974 126.777C148.915 126.719 149.032 126.602 149.267 126.426C149.502 126.251 149.912 126.134 150.381 126.134C150.85 126.134 151.202 126.368 151.437 126.543C151.73 126.66 151.789 126.836 151.73 126.894Z" fill="#263238"/>
    <path d="M143.754 127.245C143.754 127.596 143.461 127.889 143.05 127.889C142.64 127.889 142.347 127.596 142.347 127.245C142.347 126.894 142.64 126.602 143.05 126.602C143.461 126.602 143.754 126.894 143.754 127.245Z" fill="#263238"/>
    <path d="M144.399 126.66C144.282 126.719 143.813 126.309 143.05 126.309C142.288 126.251 141.76 126.602 141.643 126.543C141.584 126.485 141.702 126.368 141.936 126.192C142.171 126.017 142.581 125.9 143.05 125.9C143.52 125.9 143.871 126.134 144.106 126.309C144.399 126.485 144.458 126.66 144.399 126.66Z" fill="#263238"/>
    <path d="M146.862 132.334C146.862 132.276 147.332 132.217 148.094 132.159C148.27 132.159 148.446 132.1 148.505 131.983C148.563 131.866 148.505 131.632 148.387 131.398C148.211 130.93 148.094 130.462 147.918 129.936C147.214 127.83 146.745 126.134 146.804 126.075C146.862 126.075 147.508 127.713 148.211 129.819C148.387 130.345 148.505 130.813 148.68 131.281C148.739 131.515 148.856 131.749 148.739 132.042C148.68 132.159 148.563 132.276 148.387 132.276C148.27 132.334 148.153 132.276 148.035 132.334C147.332 132.393 146.862 132.393 146.862 132.334Z" fill="#263238"/>
    <path d="M147.214 134.908C147.097 134.966 146.745 134.264 145.865 134.089C144.986 133.914 144.282 134.381 144.223 134.264C144.165 134.206 144.341 134.031 144.634 133.855C144.927 133.68 145.455 133.563 145.983 133.621C146.511 133.738 146.921 134.089 147.097 134.323C147.214 134.674 147.273 134.908 147.214 134.908Z" fill="#263238"/>
    <path d="M144.693 125.49C144.634 125.666 143.871 125.549 142.992 125.607C142.112 125.666 141.408 125.9 141.291 125.666C141.232 125.549 141.35 125.373 141.643 125.198C141.936 125.023 142.405 124.847 142.933 124.789C143.461 124.73 143.93 124.847 144.223 125.023C144.575 125.198 144.751 125.373 144.693 125.49Z" fill="#263238"/>
    <path d="M151.554 124.73C151.437 124.906 150.909 124.672 150.264 124.672C149.619 124.613 149.091 124.73 149.033 124.555C148.974 124.438 149.091 124.321 149.326 124.145C149.56 123.97 149.971 123.911 150.381 123.911C150.792 123.97 151.144 124.087 151.378 124.321C151.554 124.438 151.672 124.613 151.554 124.73Z" fill="#263238"/>
    <path d="M136.365 128.825C136.306 128.766 133.08 127.655 133.022 130.989C132.963 134.323 136.306 133.68 136.306 133.563C136.365 133.504 136.365 128.825 136.365 128.825Z" fill="#FFBE9D"/>
    <path d="M135.368 132.334C135.368 132.334 135.309 132.393 135.192 132.393C135.074 132.451 134.957 132.451 134.781 132.393C134.429 132.276 134.136 131.691 134.136 131.106C134.136 130.813 134.195 130.521 134.312 130.287C134.429 130.053 134.605 129.878 134.781 129.878C134.957 129.819 135.074 129.936 135.133 130.053C135.192 130.17 135.133 130.228 135.192 130.228C135.192 130.228 135.25 130.17 135.25 130.053C135.25 129.994 135.192 129.936 135.133 129.819C135.074 129.761 134.957 129.702 134.84 129.702C134.605 129.702 134.371 129.936 134.253 130.228C134.136 130.462 134.019 130.813 134.019 131.164C134.019 131.808 134.371 132.451 134.84 132.627C135.074 132.685 135.25 132.627 135.368 132.568C135.309 132.393 135.368 132.334 135.368 132.334Z" fill="#EB996E"/>
    <path d="M153.959 123.619C151.789 124.087 149.384 123.443 147.801 121.922C146.686 120.869 145.807 119.407 144.341 118.881C143.344 118.53 142.229 118.705 141.291 119.173C140.353 119.641 139.59 120.343 138.886 121.162C139.707 123.677 138.945 126.368 138.183 128.942C138.124 129.234 138.007 129.527 137.772 129.702C137.362 129.995 136.775 129.702 136.482 129.351C135.954 128.766 135.778 127.947 135.661 127.128C135.426 125.315 135.485 123.502 135.954 121.747C136.423 119.992 137.362 118.354 138.71 117.184C140.411 115.722 142.757 115.02 144.986 115.137C147.214 115.254 149.443 116.249 151.144 117.652C151.965 118.296 152.668 119.115 153.079 120.109" fill="#263238"/>
    <path d="M168.614 0H10.3867C4.86387 0 0.386719 4.47715 0.386719 10V38.9551C0.386719 44.4779 4.86387 48.9551 10.3867 48.9551H168.614C174.137 48.9551 178.614 44.4779 178.614 38.9551V10C178.614 4.47715 174.137 0 168.614 0Z" fill="#F5F7FF"/>
    <path d="M117.871 25.1523C117.871 25.2108 94.0378 25.3278 64.769 25.3278C35.3957 25.3278 11.667 25.2693 11.667 25.1523C11.667 25.0938 35.5002 24.9768 64.769 24.9768C94.1424 24.9768 117.871 25.0353 117.871 25.1523Z" fill="#263238"/>
    <path d="M118.185 31.0601C118.185 31.1186 94.247 31.2356 64.7691 31.2356C35.2912 31.2356 11.3535 31.1771 11.3535 31.0601C11.3535 31.0016 35.2912 30.8846 64.7691 30.8846C94.247 30.9431 118.185 31.0016 118.185 31.0601Z" fill="#263238"/>
    <path d="M15.2832 7.89661L16.6321 10.5873L19.623 11.0553L17.4531 13.161L17.9223 16.0857L15.2832 14.6819L12.6441 16.0857L13.1133 13.161L10.9434 11.0553L13.9343 10.5873L15.2832 7.89661Z" fill="#5971F2"/>
    <path d="M25.1357 7.89661L26.4846 10.5873L29.4755 11.0553L27.3056 13.161L27.8334 16.0857L25.1357 14.6819L22.4966 16.0857L22.9658 13.161L20.8545 11.0553L23.7868 10.5873L25.1357 7.89661Z" fill="#5971F2"/>
    <path d="M34.9882 7.89661L36.3371 10.5873L39.3281 11.0553L37.1581 13.161L37.686 16.0857L34.9882 14.6819L32.3491 16.0857L32.877 13.161L30.707 11.0553L33.698 10.5873L34.9882 7.89661Z" fill="#5971F2"/>
    <path d="M44.8408 7.89661L46.1896 10.5873L49.1806 11.0553L47.0107 13.161L47.5385 16.0857L44.8408 14.6819L42.2017 16.0857L42.7295 13.161L40.5596 11.0553L43.5505 10.5873L44.8408 7.89661Z" fill="#5971F2"/>
    <path d="M54.7519 7.89661L56.0422 10.5873L59.0331 11.0553L56.8632 13.161L57.391 16.0857L54.7519 14.6819L52.0542 16.0857L52.582 13.161L50.4121 11.0553L53.4031 10.5873L54.7519 7.89661Z" fill="#5971F2"/>
    <path d="M32.7011 38.9567C32.7011 39.0152 28.068 39.1322 22.4379 39.1322C16.7492 39.1322 12.1748 39.0737 12.1748 38.9567C12.1748 38.8397 16.8079 38.7812 22.4379 38.7812C28.068 38.7812 32.7011 38.8397 32.7011 38.9567Z" fill="#E8E9F3"/>
    <path d="M142.991 42.2324C152.287 42.2324 159.823 34.7163 159.823 25.4447C159.823 16.1731 152.287 8.65704 142.991 8.65704C133.696 8.65704 126.16 16.1731 126.16 25.4447C126.16 34.7163 133.696 42.2324 142.991 42.2324Z" fill="#5971F2"/>
    <path d="M134.546 13.8629L135.837 34.9206C136.013 38.1963 138.769 40.7115 141.995 40.7115C145.455 40.7115 148.211 37.9038 148.211 34.5112C148.211 31.9374 148.152 29.5392 148.152 29.5392C148.152 29.5392 153.02 28.7788 153.079 23.9238C153.079 21.6426 152.785 16.9631 152.434 12.6346C152.023 7.83807 147.976 4.09448 143.167 4.09448H142.933C137.889 4.44544 134.077 8.83247 134.546 13.8629Z" fill="#EB996E"/>
    <path d="M148.211 29.4807C148.211 29.4807 145.161 29.7146 141.877 27.6674C141.877 27.6674 143.402 31.177 148.211 30.709V29.4807Z" fill="#D1734A"/>
    <path d="M151.32 15.7933C151.261 15.9103 150.733 15.5008 149.971 15.5008C149.208 15.5008 148.681 15.8518 148.622 15.7933C148.563 15.7348 148.681 15.6178 148.915 15.4423C149.15 15.2669 149.56 15.0914 150.029 15.0914C150.499 15.0914 150.909 15.2669 151.085 15.4423C151.32 15.6178 151.378 15.7348 151.32 15.7933Z" fill="#263238"/>
    <path d="M144.047 15.7933C143.989 15.9103 143.461 15.5008 142.699 15.5008C141.936 15.5008 141.408 15.8518 141.35 15.7933C141.291 15.7348 141.408 15.6178 141.643 15.4423C141.877 15.2669 142.288 15.0914 142.757 15.0914C143.226 15.0914 143.637 15.2669 143.813 15.4423C144.047 15.6178 144.106 15.7348 144.047 15.7933Z" fill="#263238"/>
    <path d="M146.804 20.4727C146.804 20.4143 147.273 20.3558 148.035 20.2388C148.211 20.2388 148.387 20.1803 148.446 20.0633C148.505 19.9463 148.387 19.7123 148.329 19.4784C148.153 19.0104 147.977 18.5425 147.742 18.016C146.98 15.9687 146.393 14.2724 146.452 14.2139C146.511 14.1554 147.214 15.8518 148.035 17.899C148.211 18.4255 148.387 18.8934 148.563 19.3614C148.622 19.5953 148.739 19.8293 148.681 20.1218C148.622 20.2388 148.505 20.3558 148.387 20.4143C148.27 20.4727 148.153 20.4727 148.035 20.4727C147.273 20.5312 146.804 20.5312 146.804 20.4727Z" fill="#263238"/>
    <path d="M144.282 12.0497C144.223 12.2251 143.461 12.1666 142.581 12.2836C141.701 12.3421 140.998 12.6346 140.88 12.4591C140.822 12.4006 140.939 12.1666 141.232 11.9912C141.525 11.8157 141.995 11.5817 142.464 11.5232C142.992 11.4647 143.461 11.5232 143.813 11.6987C144.106 11.8157 144.282 11.9327 144.282 12.0497Z" fill="#263238"/>
    <path d="M151.144 12.6931C151.026 12.8686 150.498 12.6931 149.853 12.6931C149.208 12.6346 148.739 12.8101 148.563 12.6346C148.504 12.5761 148.622 12.4006 148.798 12.2251C149.032 12.0497 149.384 11.9327 149.853 11.9327C150.264 11.9327 150.674 12.1082 150.85 12.2836C151.144 12.4006 151.202 12.5761 151.144 12.6931Z" fill="#263238"/>
    <path d="M139.825 8.54001C139.004 9.18344 138.535 10.0608 138.359 10.9967C138.359 11.0552 138.359 11.0552 138.359 11.1137C138.183 12.5176 138.183 13.9214 138.007 15.2668C137.831 16.6706 137.303 18.0745 136.306 19.0104C135.896 19.4198 135.133 19.6538 134.781 19.1858C134.664 19.0104 134.605 18.7764 134.605 18.5424C134.371 15.2083 133.432 12.2251 133.432 8.77398C133.432 7.83808 133.902 6.96068 134.664 6.37574C135.368 5.8493 136.306 5.32286 137.127 5.67382C137.948 6.08327 139.004 7.60411 139.649 8.24754" fill="#263238"/>
    <path d="M136.189 16.0858C136.13 16.0273 132.846 15.0914 132.963 18.4255C133.08 21.7596 136.365 20.9407 136.365 20.8237C136.365 20.7068 136.189 16.0858 136.189 16.0858Z" fill="#EB996E"/>
    <path d="M135.309 19.5954C135.309 19.5954 135.25 19.6539 135.133 19.7124C135.016 19.7709 134.898 19.7709 134.722 19.7124C134.371 19.5954 134.077 19.069 134.019 18.4256C134.019 18.1331 134.077 17.8406 134.136 17.6066C134.253 17.3727 134.371 17.1972 134.547 17.1387C134.722 17.0802 134.84 17.1972 134.898 17.3142C134.957 17.4312 134.898 17.4897 134.957 17.4897C134.957 17.4897 135.016 17.4312 135.016 17.3142C135.016 17.2557 134.957 17.1972 134.898 17.1387C134.84 17.0802 134.722 17.0217 134.605 17.0802C134.371 17.0802 134.136 17.3727 134.019 17.6066C133.901 17.8991 133.843 18.1916 133.843 18.5425C133.901 19.186 134.253 19.8294 134.722 19.9464C134.957 20.0049 135.133 19.9464 135.25 19.8294C135.309 19.6539 135.309 19.5954 135.309 19.5954Z" fill="#D1734A"/>
    <path d="M137.01 6.2588C136.189 4.91345 138.417 3.04165 140.059 2.51521C141.701 1.98877 143.871 2.80768 145.513 3.33412C146.569 3.68508 147.566 4.15303 148.622 4.09454C149.325 4.03605 150.029 3.80207 150.733 3.5681C151.437 3.33412 152.14 3.10015 152.844 3.15864C153.548 3.21713 154.31 3.5681 154.604 4.27002C154.897 4.91345 154.486 5.84935 153.783 5.96633C154.721 5.43989 156.011 6.14182 156.187 7.13621C156.363 8.18909 155.249 9.18348 154.252 8.94951C154.721 8.59855 155.425 9.18348 155.366 9.76842C155.307 10.3534 154.78 10.7628 154.252 10.9968C152.844 11.5817 151.261 11.4062 149.795 10.9383C148.387 10.4703 147.038 9.70993 145.631 9.18348C144.223 8.65704 141.819 7.72114 140.411 8.24759C139.356 8.59855 138.652 9.88541 138.065 9.59294C137.479 9.30047 137.127 8.71553 137.01 8.1306C136.834 7.54566 136.892 6.90223 137.01 6.2588Z" fill="#263238"/>
    <path d="M154.134 5.84932C154.134 5.84932 153.959 6.0833 153.607 6.49275C153.255 6.84371 152.668 7.37016 151.789 7.66262C150.909 7.95509 149.736 8.07208 148.622 7.54564C147.507 7.0192 146.51 6.0248 145.396 5.08891C144.282 4.15301 142.992 3.39259 141.643 3.2756C140.353 3.15862 139.121 3.62657 138.476 4.38698C137.831 5.1474 137.655 5.96631 137.713 6.55125C137.713 6.84371 137.831 7.0192 137.831 7.13618C137.889 7.25317 137.948 7.31166 137.948 7.31166C138.007 7.31166 137.831 7.0192 137.831 6.49275C137.831 5.96631 138.007 5.20589 138.652 4.50397C139.297 3.86054 140.411 3.39259 141.643 3.56807C142.874 3.68506 144.106 4.38698 145.162 5.32288C146.276 6.25878 147.273 7.31166 148.446 7.83811C149.677 8.36455 150.909 8.24756 151.789 7.8966C152.727 7.54564 153.313 7.0192 153.665 6.55125C153.841 6.31727 153.959 6.14179 154.017 6.0248C154.134 5.96631 154.134 5.84932 154.134 5.84932Z" fill="#455A64"/>
    <path d="M135.309 15.9102C135.309 15.9102 135.426 15.7932 135.602 15.5593C135.72 15.3253 135.837 14.8573 135.778 14.3309C135.72 13.278 134.781 12.1081 134.664 10.6458C134.605 9.94388 134.723 9.18346 135.016 8.65702C135.309 8.13058 135.837 7.77962 136.247 7.60414C136.717 7.42865 137.068 7.42865 137.362 7.42865C137.655 7.48715 137.772 7.54564 137.772 7.48715C137.772 7.48715 137.655 7.37016 137.362 7.31167C137.068 7.25317 136.658 7.19468 136.13 7.37016C135.661 7.54564 135.074 7.8966 134.723 8.48154C134.371 9.06648 134.195 9.88539 134.312 10.6458C134.371 11.4062 134.664 12.1666 134.957 12.7516C135.25 13.3365 135.485 13.863 135.544 14.3309C135.72 15.3838 135.25 15.9102 135.309 15.9102Z" fill="#455A64"/>
    <path d="M144.282 21.4087C144.399 22.1106 144.751 22.871 145.338 23.339C145.924 23.8069 146.745 23.9824 147.39 23.6899C147.977 23.456 148.387 22.871 148.739 22.3446L144.282 21.4087Z" fill="white"/>
    <path d="M168.614 55.0745H10.3867C4.86387 55.0745 0.386719 59.5516 0.386719 65.0745V94.0295C0.386719 99.5524 4.86387 104.03 10.3867 104.03H168.614C174.137 104.03 178.614 99.5524 178.614 94.0295V65.0745C178.614 59.5516 174.137 55.0745 168.614 55.0745Z" fill="#F5F7FF"/>
    <path d="M117.871 80.8783C117.871 80.9368 94.0378 81.0538 64.769 81.0538C35.3957 81.0538 11.667 80.9953 11.667 80.8783C11.667 80.7613 35.5002 80.7028 64.769 80.7028C94.1424 80.7028 117.871 80.8198 117.871 80.8783Z" fill="#263238"/>
    <path d="M118.185 86.7862C118.185 86.8447 94.247 86.9617 64.7691 86.9617C35.2912 86.9617 11.3535 86.9032 11.3535 86.7862C11.3535 86.6692 35.2912 86.6107 64.7691 86.6107C94.247 86.6692 118.185 86.7277 118.185 86.7862Z" fill="#263238"/>
    <path d="M15.2827 63.6227L16.6316 66.3134L19.6226 66.7813L17.4526 68.8871L17.9218 71.8118L15.2827 70.4079L12.6436 71.8118L13.1128 68.8871L10.9429 66.7813L13.9338 66.3134L15.2827 63.6227Z" fill="#5971F2"/>
    <path d="M25.1357 63.6227L26.4846 66.3134L29.4755 66.7813L27.3056 68.8871L27.8334 71.8118L25.1357 70.4079L22.4966 71.8118L22.9658 68.8871L20.8545 66.7813L23.7868 66.3134L25.1357 63.6227Z" fill="#5971F2"/>
    <path d="M34.9882 63.6227L36.3371 66.3134L39.3281 66.7813L37.1581 68.8871L37.686 71.8118L34.9882 70.4079L32.3491 71.8118L32.877 68.8871L30.707 66.7813L33.698 66.3134L34.9882 63.6227Z" fill="#5971F2"/>
    <path d="M44.8408 63.6227L46.1896 66.3134L49.1806 66.7813L47.0107 68.8871L47.5385 71.8118L44.8408 70.4079L42.2017 71.8118L42.7295 68.8871L40.5596 66.7813L43.5505 66.3134L44.8408 63.6227Z" fill="#E8E9F3"/>
    <path d="M54.7519 63.6227L56.0422 66.3134L59.0331 66.7813L56.8632 68.8871L57.391 71.8118L54.7519 70.4079L52.0542 71.8118L52.582 68.8871L50.4121 66.7813L53.4031 66.3134L54.7519 63.6227Z" fill="#E8E9F3"/>
    <path d="M32.7011 94.6829C32.7011 94.7414 28.068 94.8584 22.4379 94.8584C16.7492 94.8584 12.1748 94.7999 12.1748 94.6829C12.1748 94.6244 16.8079 94.5074 22.4379 94.5074C28.068 94.5074 32.7011 94.5659 32.7011 94.6829Z" fill="#E8E9F3"/>
    <path d="M159.38 84.9499C161.49 75.9204 155.861 66.8943 146.808 64.7896C137.755 62.685 128.705 68.2987 126.595 77.3283C124.485 86.3579 130.113 95.384 139.167 97.4887C148.22 99.5933 157.27 93.9795 159.38 84.9499Z" fill="#5971F2"/>
    <path d="M160.292 79.0651C159.823 78.7141 159.178 78.6556 158.709 78.3047C157.712 77.6027 158.005 76.0819 157.829 74.912C157.595 73.6252 156.715 72.5723 156.011 71.4024C155.307 70.291 154.486 68.6532 155.014 67.4833L145.513 84.7975H160.351C160.351 84.7975 160.82 82.0483 160.879 81.2878C160.937 80.5274 160.937 79.5915 160.292 79.0651Z" fill="#263238"/>
    <path d="M140.587 61.868C141.056 60.4641 142.581 59.7037 144.047 59.5282C145.513 59.3527 146.217 59.9377 147.683 59.6452C149.677 59.1772 150.792 58.5338 152.082 58.7678C153.255 58.9433 154.78 59.3527 155.835 60.5811C156.598 61.4585 156.656 63.5643 156.304 64.7341C156.011 65.787 155.19 66.6059 154.956 67.7173C154.78 68.7117 155.073 69.7061 155.307 70.7005C155.953 73.6252 155.483 76.9593 153.489 79.2406C151.554 81.5218 147.977 82.5747 145.279 81.2293" fill="#263238"/>
    <path d="M148.68 90.5298L148.622 86.2013C148.622 86.2013 152.903 85.5578 153.9 80.001C154.369 77.2518 154.31 72.6893 154.134 68.9457C153.959 65.6115 150.44 62.2189 147.097 62.5114L136.247 64.3832V66.1965L136.541 90.7053C136.599 94.0394 139.297 96.6716 142.64 96.6716C145.983 96.7301 148.739 93.9224 148.68 90.5298Z" fill="#FFBE9D"/>
    <path d="M152.258 72.3968C152.258 72.7477 151.965 73.0987 151.554 73.0987C151.144 73.0987 150.85 72.8062 150.85 72.4553C150.85 72.1043 151.144 71.7534 151.554 71.7534C151.906 71.7534 152.258 72.0458 152.258 72.3968Z" fill="#263238"/>
    <path d="M153.079 71.3439C152.961 71.4609 152.434 71.0515 151.671 70.993C150.909 70.993 150.322 71.3439 150.264 71.2854C150.205 71.2269 150.322 71.0515 150.557 70.876C150.792 70.7005 151.202 70.525 151.671 70.525C152.14 70.525 152.551 70.7005 152.786 70.876C153.079 71.1685 153.137 71.3439 153.079 71.3439Z" fill="#263238"/>
    <path d="M144.81 72.2798C144.81 72.6308 144.517 72.9818 144.106 72.9818C143.696 72.9818 143.402 72.6893 143.402 72.3383C143.402 71.9874 143.696 71.6364 144.106 71.6364C144.458 71.5779 144.81 71.8704 144.81 72.2798Z" fill="#263238"/>
    <path d="M145.514 71.3439C145.396 71.4609 144.868 71.0515 144.106 70.993C143.344 70.993 142.757 71.3439 142.699 71.2854C142.64 71.2269 142.757 71.0515 142.992 70.876C143.226 70.7005 143.637 70.525 144.106 70.525C144.575 70.525 144.986 70.7005 145.22 70.876C145.455 71.1685 145.572 71.3439 145.514 71.3439Z" fill="#263238"/>
    <path d="M148.211 77.1348C148.211 77.0763 148.68 77.0178 149.443 76.9593C149.619 76.9593 149.853 76.9008 149.853 76.7838C149.912 76.6668 149.795 76.4329 149.736 76.1989C149.56 75.7309 149.384 75.2045 149.208 74.6781C148.446 72.5138 147.859 70.759 147.977 70.759C148.035 70.7005 148.739 72.4553 149.501 74.5611C149.677 75.0875 149.853 75.614 150.029 76.0819C150.088 76.3159 150.205 76.5499 150.147 76.8423C150.088 76.9593 149.971 77.0763 149.795 77.1348C149.677 77.1933 149.56 77.1933 149.443 77.1933C148.68 77.1933 148.211 77.1933 148.211 77.1348Z" fill="#263238"/>
    <path d="M148.563 86.2598C148.563 86.2598 144.81 86.4353 141.115 84.1541C141.115 84.1541 142.874 88.0146 148.446 87.6052L148.563 86.2598Z" fill="#7C3B29"/>
    <path d="M147.859 78.9481C147.566 78.5972 147.097 78.3632 146.628 78.4217C146.276 78.4802 145.924 78.5972 145.748 78.8896C145.513 79.1821 145.513 79.5331 145.689 79.8255C145.865 80.118 146.334 80.1765 146.686 80.118C147.038 80.001 147.39 79.767 147.683 79.5331C147.742 79.4746 147.859 79.4161 147.918 79.2991C147.918 79.1821 147.918 79.0651 147.859 78.9481Z" fill="#7C3B29"/>
    <path d="M145.924 77.6027C146.041 77.6027 146.041 78.4216 146.745 79.0651C147.449 79.65 148.328 79.5915 148.328 79.7085C148.328 79.767 148.153 79.884 147.742 79.884C147.39 79.884 146.862 79.767 146.393 79.416C145.983 79.0651 145.807 78.5386 145.748 78.1877C145.748 77.8367 145.865 77.6027 145.924 77.6027Z" fill="#263238"/>
    <path d="M145.748 68.3607C145.689 68.5947 144.927 68.4777 143.989 68.5362C143.109 68.5947 142.347 68.8872 142.229 68.6532C142.171 68.5362 142.288 68.3607 142.581 68.1853C142.874 68.0098 143.344 67.7758 143.871 67.7758C144.399 67.7173 144.927 67.8343 145.22 67.9513C145.631 68.0683 145.807 68.2438 145.748 68.3607Z" fill="#263238"/>
    <path d="M152.844 69.1212C152.727 69.2967 152.199 69.1212 151.554 69.0627C150.909 69.0042 150.381 69.1797 150.264 68.9457C150.205 68.8287 150.322 68.6532 150.557 68.5362C150.792 68.3608 151.202 68.2438 151.613 68.2438C152.023 68.2438 152.434 68.4193 152.668 68.5947C152.844 68.8872 152.903 69.0627 152.844 69.1212Z" fill="#263238"/>
    <path d="M142.64 59.8793C143.754 61.6341 144.106 63.8568 143.578 65.9041C143.05 67.8929 141.701 69.7062 139.883 70.7591C139.238 71.1101 138.535 71.4025 138.183 72.0459C137.714 72.8064 137.889 73.8008 138.007 74.7366C138.241 77.1934 137.479 79.7086 135.837 81.5804C134.781 79.5331 133.667 77.4274 133.198 75.1461C132.963 73.9762 132.904 72.8064 132.435 71.695C132.201 71.0516 131.79 70.4081 131.614 69.7647C131.204 68.5363 131.38 67.191 131.79 66.0211C132.553 63.7983 134.195 61.9266 136.247 60.9322C138.359 59.8793 140.822 59.7038 143.05 60.4642" fill="#263238"/>
    <path d="M132.904 63.7398C130.383 67.4249 131.614 69.8231 130.617 71.6949C129.913 73.0403 128.271 73.6252 127.098 74.6196C125.515 75.965 124.87 78.1877 124.928 80.2935C124.987 82.3993 125.691 84.3881 126.336 86.3768C130.852 86.3768 135.368 86.4353 139.883 86.4353C140.939 83.1597 138.3 79.5916 139.18 76.2574C139.473 75.0876 140.177 74.0347 140.177 72.8648C140.177 72.1044 139.942 71.344 139.766 70.5836C139.297 68.4193 139.473 66.138 140.411 64.0908" fill="#263238"/>
    <path d="M156.304 62.102C156.304 62.102 156.187 61.9265 156.011 61.6341C155.777 61.3416 155.425 60.9906 154.838 60.7566C154.252 60.4642 153.489 60.3472 152.668 60.3472C151.847 60.4057 150.968 60.6397 150.029 60.9321C149.091 61.2246 148.27 61.5756 147.39 61.8095C146.569 61.985 145.807 62.0435 145.162 61.985C144.517 61.9265 143.989 61.751 143.695 61.5756C143.52 61.5171 143.402 61.4001 143.344 61.3416C143.285 61.2831 143.226 61.2831 143.226 61.2246C143.226 61.2246 143.402 61.3416 143.695 61.4586C143.989 61.6341 144.517 61.751 145.162 61.8095C145.807 61.868 146.569 61.8095 147.39 61.5756C148.211 61.4001 149.091 61.0491 149.971 60.6982C150.909 60.4057 151.789 60.1132 152.668 60.1132C153.548 60.1132 154.311 60.2887 154.897 60.5227C155.483 60.8151 155.894 61.1661 156.07 61.4586C156.187 61.6341 156.246 61.751 156.304 61.8095C156.304 62.0435 156.304 62.102 156.304 62.102Z" fill="#455A64"/>
    <path d="M154.369 71.5779C154.369 71.5779 154.428 71.5779 154.486 71.6364C154.545 71.6364 154.604 71.6949 154.604 71.7534C154.662 71.8119 154.721 71.8704 154.78 71.9289C155.014 72.2214 155.249 72.7478 155.366 73.4497C155.425 73.8007 155.425 74.1517 155.425 74.5611C155.425 74.9706 155.425 75.38 155.425 75.848C155.425 76.3159 155.483 76.7839 155.601 77.2518C155.718 77.7198 155.953 78.1877 156.304 78.5387C156.656 78.8896 157.126 79.0651 157.595 79.3576C158.005 79.5916 158.416 79.9425 158.65 80.352C159.12 81.1709 159.061 82.0483 158.885 82.7502C158.709 83.4522 158.474 83.9201 158.357 84.2711C158.298 84.4465 158.24 84.5635 158.181 84.6805C158.123 84.7975 158.123 84.7975 158.123 84.7975C158.123 84.7975 158.123 84.739 158.181 84.6805C158.24 84.5635 158.298 84.4465 158.357 84.2711C158.474 83.9201 158.709 83.3937 158.885 82.7502C158.944 82.3993 159.002 82.0483 158.944 81.6388C158.944 81.2294 158.826 80.8199 158.592 80.469C158.357 80.0595 158.005 79.7671 157.595 79.5331C157.184 79.2991 156.715 79.0651 156.304 78.7142C155.894 78.3632 155.659 77.8368 155.542 77.3688C155.425 76.9009 155.366 76.3744 155.366 75.965C155.366 75.497 155.366 75.0876 155.366 74.6781C155.366 74.2687 155.366 73.9177 155.307 73.5667C155.19 72.9233 155.014 72.3968 154.78 72.1044C154.545 71.6949 154.369 71.5779 154.369 71.5779Z" fill="#455A64"/>
    <path d="M131.321 85.8504C131.321 85.8504 131.321 85.8504 131.262 85.7919C131.262 85.7334 131.204 85.6749 131.145 85.5579C131.086 85.3824 130.969 85.09 130.793 84.739C130.676 84.3881 130.559 83.9201 130.441 83.3352C130.383 82.8087 130.324 82.1653 130.441 81.4634C130.559 80.7614 130.793 80.001 131.321 79.3576C131.79 78.6557 132.553 78.1292 133.256 77.6028C133.608 77.3103 133.96 77.0179 134.253 76.6669C134.547 76.3159 134.781 75.848 134.898 75.38C135.133 74.3856 134.957 73.3913 134.781 72.3384C134.547 71.2855 134.312 70.2911 134.371 69.2382C134.371 68.7118 134.488 68.2438 134.722 67.7759C134.898 67.3079 135.25 66.957 135.543 66.606C136.247 65.9626 137.01 65.5531 137.772 65.2606C138.534 64.9682 139.238 64.6757 139.883 64.3832C140.528 64.0908 141.056 63.7983 141.467 63.4473C141.877 63.0964 142.171 62.7454 142.405 62.3945C142.581 62.0435 142.698 61.751 142.757 61.5755C142.698 61.751 142.64 62.0435 142.405 62.3945C142.229 62.7454 141.936 63.0964 141.467 63.5058C141.056 63.8568 140.47 64.2078 139.883 64.5002C139.238 64.7927 138.534 65.0267 137.772 65.3776C137.01 65.6701 136.247 66.0796 135.602 66.723C135.25 67.0155 135.016 67.4249 134.781 67.8344C134.605 68.2438 134.488 68.7703 134.488 69.2382C134.429 70.2326 134.664 71.227 134.898 72.2799C135.133 73.3328 135.25 74.3856 135.016 75.38C134.898 75.9065 134.664 76.3159 134.371 76.7254C134.077 77.1349 133.667 77.4273 133.315 77.7198C132.611 78.3047 131.849 78.7727 131.38 79.4746C130.91 80.118 130.676 80.8784 130.5 81.5219C130.265 82.8672 130.559 84.0371 130.734 84.739C130.852 85.09 130.969 85.3824 131.028 85.5579C131.086 85.6749 131.086 85.7334 131.086 85.7919C131.321 85.7919 131.321 85.8504 131.321 85.8504Z" fill="#455A64"/>
    <path d="M142.757 61.2245C142.757 61.2245 142.698 61.2245 142.64 61.2245C142.581 61.2245 142.464 61.2245 142.346 61.2245C142.112 61.2245 141.76 61.166 141.291 61.166C140.411 61.1075 139.062 61.1075 137.537 61.5755C136.775 61.8095 135.954 62.1604 135.25 62.7454C134.488 63.3303 133.843 64.0907 133.373 65.0266C132.904 65.9625 132.846 67.1324 132.846 68.2438C132.846 69.4136 132.963 70.5835 132.728 71.8119C132.611 72.3968 132.435 72.9817 132.083 73.5082C131.79 74.0346 131.321 74.4441 130.852 74.7366C129.855 75.38 128.799 75.7894 128.037 76.4329C127.216 77.0763 126.746 78.0707 126.571 78.9481C126.395 79.884 126.453 80.7614 126.629 81.5218C126.805 82.2822 127.098 82.9842 127.392 83.5106C127.685 84.0955 127.978 84.505 128.213 84.9144C128.447 85.2654 128.682 85.5579 128.799 85.7334C128.682 85.5579 128.447 85.2654 128.154 84.9144C127.919 84.5635 127.567 84.0955 127.274 83.5106C126.981 82.9257 126.688 82.2822 126.453 81.5218C126.277 80.7614 126.219 79.8255 126.395 78.8896C126.571 77.9537 127.04 76.9593 127.861 76.3159C128.682 75.614 129.737 75.2045 130.734 74.6196C131.204 74.3271 131.614 73.9176 131.966 73.3912C132.259 72.9233 132.494 72.3383 132.552 71.7534C132.787 70.5835 132.67 69.3551 132.67 68.2438C132.67 67.0739 132.728 65.9625 133.198 64.9681C133.667 63.9737 134.37 63.2133 135.133 62.6284C135.895 62.0434 136.716 61.6925 137.479 61.4585C139.062 60.9906 140.352 61.049 141.232 61.1075C141.701 61.1075 142.053 61.166 142.288 61.2245C142.405 61.2245 142.464 61.283 142.581 61.283C142.757 61.2245 142.757 61.2245 142.757 61.2245Z" fill="#455A64"/>
    <path d="M135.661 86.4352C135.661 86.4352 136.071 86.3182 136.541 85.7918C136.775 85.5578 137.068 85.2069 137.244 84.7389C137.42 84.271 137.596 83.7445 137.655 83.1011C137.714 82.4577 137.596 81.7557 137.479 81.0538C137.303 80.3519 137.01 79.5915 136.775 78.7726C136.482 78.0122 136.189 77.1348 136.013 76.2573C135.837 75.3799 135.778 74.3855 136.013 73.4497C136.13 72.9817 136.365 72.5138 136.599 72.1043C136.892 71.6948 137.186 71.3439 137.538 71.0514C138.241 70.408 138.945 69.94 139.59 69.4136C140.235 68.8872 140.88 68.4192 141.35 67.8343C141.819 67.2493 142.171 66.6644 142.405 66.0795C142.874 64.9096 142.992 63.8567 142.933 63.1548C142.933 62.9793 142.933 62.8038 142.933 62.6868C142.933 62.5698 142.933 62.4529 142.874 62.3359C142.874 62.2774 142.874 62.1604 142.874 62.1019C142.874 62.0434 142.874 62.0434 142.874 62.0434C142.874 62.0434 142.992 62.4529 143.05 63.1548C143.109 63.8567 142.992 64.9096 142.523 66.1379C142.288 66.7229 141.936 67.3663 141.467 67.9513C140.998 68.5362 140.353 69.0626 139.707 69.5891C139.062 70.1155 138.3 70.5835 137.655 71.2269C137.303 71.5194 137.01 71.8703 136.775 72.2798C136.541 72.6892 136.306 73.0987 136.189 73.5666C135.954 74.5025 136.013 75.4384 136.189 76.3158C136.365 77.1932 136.658 78.0122 136.951 78.8311C137.244 79.5915 137.479 80.3519 137.655 81.1123C137.831 81.8142 137.889 82.5747 137.831 83.1596C137.772 83.803 137.596 84.388 137.42 84.7974C137.186 85.2654 136.951 85.6163 136.658 85.8503C136.423 86.0843 136.13 86.2598 136.013 86.3182C135.954 86.3767 135.895 86.3767 135.837 86.4352C135.661 86.4352 135.661 86.4352 135.661 86.4352Z" fill="#455A64"/>
    <path d="M143.344 63.6228C144.751 64.6172 146.334 65.6701 148.094 65.5531C149.15 65.4946 150.088 65.0267 151.085 64.6757C152.082 64.3248 153.196 64.2078 154.076 64.7342C154.662 64.6757 154.897 63.9153 154.662 63.3889C154.428 62.8624 153.841 62.57 153.313 62.3945C150.205 61.3416 147.038 62.5115 143.519 62.7454" fill="#263238"/>
    <path d="M156.187 64.5002C156.187 64.5002 156.304 64.3247 156.304 63.9737C156.304 63.6228 156.128 63.0378 155.542 62.6869C155.249 62.5114 154.897 62.3944 154.545 62.3944C154.134 62.3944 153.724 62.4529 153.313 62.5699C152.492 62.8624 151.671 63.4473 150.733 63.8568C150.264 64.0322 149.795 64.2077 149.267 64.2662C148.798 64.3247 148.328 64.3832 147.859 64.3832C146.98 64.3832 146.158 64.1492 145.572 63.9152C144.927 63.6813 144.458 63.3888 144.164 63.1548C143.989 63.0378 143.93 62.9209 143.813 62.8624C143.754 62.8039 143.695 62.7454 143.695 62.7454C143.695 62.6869 144.34 63.3303 145.572 63.7983C146.217 64.0322 146.98 64.2077 147.859 64.2077C148.27 64.2077 148.739 64.2077 149.208 64.0907C149.677 64.0322 150.146 63.8567 150.616 63.6813C151.554 63.2718 152.316 62.6869 153.196 62.3944C153.607 62.2774 154.076 62.1604 154.428 62.2189C154.838 62.2189 155.19 62.3359 155.483 62.5699C155.776 62.7454 155.952 63.0378 156.07 63.2718C156.187 63.5058 156.187 63.7398 156.187 63.9737C156.187 64.1492 156.128 64.3247 156.07 64.3832C156.246 64.5002 156.187 64.5002 156.187 64.5002Z" fill="#455A64"/>
  </svg>