<svg width="193" height="137" viewBox="0 0 193 137" fill="none" xmlns="http://www.w3.org/2000/svg">
    <g clip-path="url(#clip0_4_3560)">
    <path d="M33.5784 2.54314C22.2575 -3.11734 8.47543 1.39463 2.73292 12.7156C-3.0096 24.0365 1.58441 37.8186 12.9054 43.5611C23.57 48.9755 36.3676 45.2018 42.6024 35.3575L49.0012 34.127L45.3916 29.1228C48.2629 18.7862 43.5048 7.54733 33.5784 2.54314Z" fill="white"/>
    <path d="M33.5783 2.54311C33.5783 2.54311 33.7424 2.62515 34.0705 2.78922C34.3987 2.95329 34.8909 3.1994 35.5472 3.60958C36.7777 4.42994 38.5825 5.66047 40.3873 7.71137C40.7975 8.20359 41.3717 8.77784 41.7819 9.43413C42.028 9.76227 42.2741 10.0904 42.4382 10.4186C42.6843 10.7467 42.8484 11.0748 43.0945 11.485C43.5867 12.2233 43.9149 12.9617 44.325 13.782C44.4891 14.1922 44.6532 14.6024 44.8172 15.0946C44.8993 15.3407 44.9813 15.5048 45.0634 15.7509C45.1454 15.997 45.2274 16.2431 45.3095 16.4072C46.458 20.0988 46.7861 24.6108 45.5556 29.2868V29.1227C46.7041 30.6814 47.9346 32.4042 49.1652 34.1269L49.3292 34.3731L49.0011 34.4551C47.0322 34.8653 44.8172 35.2754 42.6023 35.6856L42.7663 35.6036C40.2232 39.5413 36.2855 42.9868 31.3634 44.8736C26.5232 46.7605 20.6987 46.9245 15.4484 45.0377C12.9873 44.1353 10.6903 42.9048 8.72144 41.3461C6.75258 39.7874 5.02982 37.8186 3.71725 35.7677C3.3891 35.2754 3.06096 34.7012 2.81485 34.209C2.56874 33.6347 2.2406 33.1425 1.99449 32.5683C1.58431 31.4198 1.0921 30.3533 0.845988 29.2048C0.271737 26.9078 -0.056407 24.6108 0.107665 22.3138C0.271737 20.0988 0.599881 17.8838 1.3382 15.8329L1.58431 15.0946C1.66635 14.8485 1.83042 14.6024 1.91246 14.3563C2.15856 13.618 2.32263 13.1257 2.56874 12.7156C2.81485 12.2233 3.06096 11.8132 3.30707 11.403C3.55317 10.9928 3.79928 10.5006 4.12743 10.0904C6.42443 6.80898 9.29569 4.26586 12.4131 2.70718C15.4484 1.1485 18.4837 0.328139 21.1909 0.0820316C22.5035 -0.0820402 23.816 -4.30737e-06 24.9646 0.0820316C26.1131 0.246103 27.1795 0.328139 28.0819 0.574247C28.5741 0.656283 28.9843 0.738319 29.3945 0.902391C29.8047 1.06646 30.1328 1.1485 30.543 1.31257C30.8711 1.39461 31.1993 1.55868 31.5274 1.64071C31.7735 1.80479 32.1017 1.88682 32.2658 1.96886C32.6759 2.13293 33.0861 2.297 33.3322 2.46107C33.4963 2.46107 33.5783 2.54311 33.5783 2.54311C33.5783 2.54311 33.4143 2.54311 33.2502 2.37904C33.0041 2.297 32.6759 2.13293 32.1837 1.96886C31.9376 1.88682 31.6915 1.72275 31.4454 1.64071C31.1172 1.55868 30.7891 1.47664 30.461 1.31257C30.1328 1.23053 29.7226 1.06646 29.3125 0.984427C28.9023 0.902391 28.4921 0.820355 27.9999 0.656283C27.0975 0.410175 26.031 0.328139 24.8825 0.246103C23.734 0.246103 22.5035 0.164068 21.1089 0.328139C18.4837 0.574247 15.4484 1.39461 12.4131 2.95329C9.5418 4.51197 6.67054 6.97305 4.45557 10.2545C4.12743 10.6647 3.88132 11.0748 3.63521 11.485C3.3891 11.8952 3.14299 12.3874 2.89689 12.7976C2.65078 13.2898 2.48671 13.7 2.2406 14.1922C2.15856 14.4383 1.99449 14.6844 1.91246 14.9305L1.74838 15.7509C1.01006 17.7198 0.681916 19.9347 0.59988 22.1497C0.435809 24.3647 0.763952 26.6617 1.3382 28.8766C1.58431 30.0251 2.07653 31.0916 2.48671 32.2401C2.73281 32.7323 2.97892 33.3066 3.30707 33.8808C3.55317 34.4551 3.96335 34.9473 4.20946 35.4395C5.52204 37.4904 7.16276 39.3772 9.13162 40.9359C11.1005 42.4946 13.3155 43.7251 15.7765 44.6275C20.9448 46.5144 26.6053 46.2683 31.3634 44.4635C36.2035 42.6587 40.0592 39.2952 42.6023 35.3575L42.6843 35.2754H42.7663C44.9813 34.8653 47.1143 34.4551 49.1652 34.1269L49.0831 34.4551C47.8526 32.7323 46.622 31.0096 45.4735 29.4509L45.2274 29.2048V29.1227C46.458 24.5287 46.2119 20.0168 45.0634 16.4072C44.9813 16.1611 44.8993 15.915 44.8993 15.7509C44.8172 15.5048 44.7352 15.3407 44.6532 15.0946C44.4891 14.6844 44.325 14.2742 44.161 13.8641C43.7508 13.0437 43.4226 12.3054 43.0125 11.5671C42.7663 11.2389 42.6023 10.8287 42.3562 10.5006C42.1101 10.1725 41.864 9.84431 41.6999 9.51616C41.2897 8.85988 40.7975 8.36766 40.3873 7.87545C38.5825 5.82455 36.7777 4.59401 35.6292 3.77365C35.055 3.36347 34.5628 3.11736 34.2346 2.95329C33.7424 2.70718 33.5783 2.54311 33.5783 2.54311Z" fill="#263238"/>
    <path d="M11.7568 24.5287L14.8742 21.1653L21.273 26.4156L33.1682 14.1922L36.2856 17.3096L21.1089 32.7323L11.7568 24.5287Z" fill="#5971F2"/>
    <path d="M130.463 120.675C130.463 120.675 130.955 122.398 130.791 124.284C130.627 126.089 130.545 130.601 125.623 132.16C120.7 133.719 116.106 130.027 114.63 128.386C113.153 126.746 113.317 121.331 113.317 121.331L121.357 117.722L130.463 120.675Z" fill="#5971F2"/>
    <path d="M75.0063 51.7647L70.9045 58.3276L54.4153 65.3006L58.5171 132.816L61.4704 145.04L116.27 143.235L118.649 139.133L114.548 87.2042C113.317 75.5551 110.692 69.2383 105.442 66.3671L101.996 63.988L100.684 59.7222L95.8434 55.2102L80.3386 51.1904L75.0063 51.7647Z" fill="#5971F2"/>
    <g opacity="0.3">
    <path d="M56.7944 127.73C60.2399 133.144 67.0489 136.18 73.3657 135.113C78.8621 134.211 83.5381 130.519 88.7884 128.714C97.9765 125.515 108.395 128.058 117.501 124.531C117.665 122.972 117.583 121.085 117.665 120.019C113.153 119.772 108.313 119.526 104.293 117.393L100.684 116.081L56.7944 127.73Z" fill="black"/>
    </g>
    <path d="M54.4974 65.3006C54.4974 65.3006 46.704 72.0275 48.919 89.4192C51.0519 105.58 54.7435 128.14 59.7477 130.765C64.7519 133.39 75.4166 132.078 83.292 127.648C91.1675 123.218 113.891 111.159 113.891 111.159L104.457 94.4234L74.104 106.154C74.104 106.154 70.1663 79.3287 67.7872 74.6527" fill="#5971F2"/>
    <path d="M67.7872 74.7347C67.7872 74.7347 67.8693 74.8988 68.0333 75.2269C68.1154 75.391 68.1974 75.6371 68.2794 75.8832C68.3615 76.1293 68.4435 76.4575 68.6076 76.7856C69.0178 78.1802 69.592 80.2311 70.1663 82.9383C71.3148 88.3527 72.7094 96.3102 74.2681 106.154L74.022 105.99C82.6357 102.627 92.8902 98.6072 104.375 94.1772L104.539 94.0952L104.621 94.2593C107.575 99.5916 110.774 105.17 114.055 110.995L114.138 111.159L113.973 111.241C107.739 114.604 101.176 118.132 94.5309 121.741C91.3315 123.464 88.1321 125.187 85.0148 126.91C83.4561 127.73 81.8974 128.632 80.2567 129.289C78.616 129.945 76.9753 130.519 75.3345 131.011C71.9711 131.914 68.5256 132.406 65.2441 132.16C63.6034 132.078 61.8806 131.75 60.404 131.175L59.8297 130.929C59.6657 130.847 59.5016 130.683 59.2555 130.601C58.9274 130.355 58.5992 130.027 58.3531 129.699C57.8609 129.043 57.4507 128.386 57.0405 127.648C55.6459 124.777 54.7435 121.741 54.0052 118.87C53.2669 115.917 52.6106 113.128 52.1184 110.338C51.0519 104.76 50.2315 99.5916 49.5753 94.8335C48.919 90.0754 48.3447 85.7275 48.5088 81.9539C48.6729 78.0982 49.3291 74.8988 50.2315 72.3557C51.1339 69.8126 52.2824 68.0078 53.1028 66.8593C53.513 66.285 53.9232 65.8749 54.1693 65.6287C54.4154 65.3826 54.5794 65.3006 54.5794 65.3006C54.5794 65.3006 54.4154 65.4647 54.1693 65.7108C53.9232 65.9569 53.595 66.3671 53.1848 66.9413C52.3645 68.0898 51.298 69.8946 50.3956 72.4377C49.4932 74.9808 48.8369 78.1802 48.7549 82.0359C48.5908 85.8096 49.1651 90.1575 49.9034 94.9156C50.5597 99.6736 51.38 104.842 52.5286 110.338C53.1028 113.128 53.6771 115.917 54.4974 118.87C55.3178 121.741 56.1381 124.777 57.5327 127.566C57.8609 128.304 58.2711 128.96 58.7633 129.535C59.0094 129.863 59.2555 130.109 59.5836 130.355C59.7477 130.437 59.9118 130.601 60.0759 130.683L60.6501 130.929C62.1268 131.586 63.7675 131.832 65.4082 131.914C68.6896 132.078 72.0531 131.586 75.4166 130.765C77.0573 130.273 78.698 129.781 80.3387 129.043C81.9795 128.386 83.4561 127.484 85.0148 126.663C88.1321 124.941 91.3315 123.218 94.5309 121.495C101.176 117.886 107.739 114.358 113.973 110.995L113.891 111.323C110.61 105.498 107.493 99.8377 104.457 94.5874L104.703 94.6695C93.3004 99.0994 82.9639 103.119 74.3501 106.401L74.186 106.483V106.319C72.7094 96.4743 71.3968 88.5168 70.2483 83.1024C69.6741 80.3952 69.1818 78.2623 68.7717 76.8677C68.6896 76.5395 68.6076 76.2114 68.5256 75.9653C68.4435 75.7192 68.3615 75.4731 68.2794 75.309C67.8693 74.8988 67.7872 74.7347 67.7872 74.7347Z" fill="#263238"/>
    <path d="M70.4124 84.6611L90.183 83.3485L94.5309 91.5521L72.3812 95.4898L70.4124 84.6611Z" fill="#5971F2"/>
    <path d="M70.4124 84.6611C70.4124 84.6611 70.4944 84.9072 70.5764 85.4815C70.6585 86.0557 70.8225 86.794 70.9866 87.6964C71.3968 89.5833 71.889 92.2904 72.5453 95.5719L72.3812 95.4078C77.7136 94.4234 84.6866 93.1928 92.2339 91.7982C92.9722 91.6342 93.7106 91.5521 94.4489 91.388L94.2848 91.7162C92.7261 88.8449 91.3315 86.0557 89.9369 83.5126L90.101 83.5946C84.3585 83.9228 79.5183 84.2509 75.9908 84.415C74.268 84.497 72.8734 84.5791 71.889 84.6611C71.4788 84.6611 71.0686 84.6611 70.8225 84.7431C70.5764 84.6611 70.4124 84.6611 70.4124 84.6611C70.4124 84.6611 70.4944 84.6611 70.7405 84.5791C70.9866 84.5791 71.3968 84.497 71.807 84.497C72.7914 84.415 74.186 84.333 75.8267 84.1689C79.3543 83.9228 84.2764 83.5126 90.101 83.1024H90.2651L90.3471 83.1845C91.7417 85.7276 93.2183 88.5168 94.695 91.388L94.8591 91.6341L94.5309 91.7162C93.7926 91.8803 93.0543 91.9623 92.316 92.1264C84.6866 93.4389 77.7136 94.6695 72.3812 95.6539H72.2171V95.4898C71.6429 92.1264 71.1507 89.4192 70.8225 87.4503C70.6585 86.5479 70.5764 85.8096 70.4944 85.3174C70.4944 84.8252 70.4124 84.5791 70.4124 84.6611Z" fill="#263238"/>
    <path d="M74.1039 106.154C74.186 106.237 72.4632 108.287 70.9866 111.323C69.5099 114.276 68.8536 116.901 68.7716 116.901C68.6895 116.901 68.8536 116.245 69.0997 115.178C69.3458 114.112 69.8381 112.635 70.5764 111.159C71.3147 109.682 72.2171 108.369 72.8734 107.549C73.6117 106.647 74.0219 106.154 74.1039 106.154Z" fill="#263238"/>
    <path d="M93.8748 68.6641C93.8748 68.6641 93.4646 68.418 92.8083 67.8437C92.07 67.2695 91.0856 66.4491 89.9371 65.5467H90.1832C89.2808 67.0234 87.9682 68.7461 86.2454 70.4689L86.0814 70.6329L85.9173 70.4689C84.9329 69.6485 83.9484 68.8282 82.882 67.9258C79.6826 65.3006 76.6472 63.0036 74.4323 61.3629C73.3658 60.6246 72.5454 59.9683 71.8071 59.394C71.1508 58.9018 70.8227 58.6557 70.9047 58.6557C70.9047 58.6557 71.3149 58.8198 71.9712 59.2299C72.6275 59.6401 73.5299 60.2964 74.6784 61.0347C76.9754 62.5934 80.0107 64.8904 83.2101 67.5156C84.2766 68.418 85.261 69.2383 86.2454 70.0587H85.9173C87.6401 68.418 88.8706 66.6952 89.855 65.3006L89.9371 65.1365L90.1011 65.3006C91.2496 66.285 92.152 67.0234 92.8904 67.6797C93.5466 68.2539 93.9568 68.582 93.8748 68.6641Z" fill="#263238"/>
    <path d="M101.996 64.4802C101.996 64.4802 102.078 64.8904 102.16 65.5467C102.242 66.285 102.242 67.2694 102.078 68.5L101.996 68.9922L101.668 68.582C101.012 67.6796 100.273 66.6132 99.289 65.5467C98.9608 65.1365 98.5506 64.7263 98.2225 64.3982C98.0584 64.2341 97.8944 63.988 97.7303 63.906C97.5662 63.8239 97.5662 63.8239 97.4021 63.988C96.9099 64.7263 96.4177 65.3826 95.9255 66.0389C95.1051 67.1874 94.5309 67.8437 94.4489 67.8437C94.3668 67.8437 94.859 67.0233 95.5974 65.8748C96.0075 65.2185 96.4998 64.5623 96.992 63.8239C97.074 63.7419 97.156 63.5778 97.4021 63.4958C97.6483 63.4958 97.8123 63.5778 97.8944 63.6599C98.1405 63.8239 98.3045 63.988 98.4686 64.2341C98.7968 64.6443 99.2069 64.9724 99.5351 65.3826C100.437 66.4491 101.258 67.5155 101.832 68.5L101.504 68.582C101.996 66.1209 101.914 64.4802 101.996 64.4802Z" fill="#263238"/>
    <path d="M66.8849 72.0275C66.8028 72.0275 66.3927 71.4533 65.6543 70.5509C64.916 69.6485 63.8495 68.4179 62.4549 67.4335C60.9783 66.4491 59.4196 66.0389 58.2711 65.7928C57.1226 65.6287 56.3843 65.5467 56.3843 65.5467C56.3843 65.4647 57.1226 65.3826 58.2711 65.5467C59.4196 65.6287 61.1424 66.0389 62.619 67.1054C64.0957 68.1718 65.1621 69.4844 65.8184 70.3868C66.6388 71.3712 66.9669 72.0275 66.8849 72.0275Z" fill="#263238"/>
    <path d="M109.708 84.1689C109.626 84.1689 108.887 82.3641 108.149 79.9851C107.411 77.606 106.918 75.7192 107 75.6371C107.082 75.6371 107.821 77.4419 108.559 79.821C109.379 82.2 109.872 84.0868 109.708 84.1689Z" fill="#263238"/>
    <path d="M81.7332 90.4036C81.241 90.8958 81.4871 91.8803 82.1434 92.1264C82.7997 92.3725 83.6201 91.7162 83.538 91.0599C83.456 90.3216 82.5536 89.9114 81.9794 90.2395" fill="#E0E0E0"/>
    <g opacity="0.3">
    <path d="M69.0999 78.7545L74.6783 95.0797L92.8903 91.7982L75.3346 98.6892L73.8579 104.35L69.0999 78.7545Z" fill="black"/>
    </g>
    <g opacity="0.3">
    <path d="M71.3967 59.0659L87.7219 73.8323L90.265 66.9413L92.8901 67.8437L90.1009 65.4647C90.1009 65.4647 86.9836 70.2227 86.1632 70.3048L71.3967 59.0659Z" fill="black"/>
    </g>
    <path d="M102.489 94.3413C102.489 94.3413 102.324 94.0132 102.16 93.3569C101.914 92.6186 101.668 91.7162 101.422 90.6497C100.766 88.3527 99.8634 85.1533 98.7148 81.7078C97.5663 78.2623 96.4178 75.1449 95.5975 72.8479C95.1873 71.7815 94.8592 70.8791 94.6131 70.2228C94.3669 69.5665 94.2849 69.2383 94.2849 69.2383C94.2849 69.2383 94.449 69.5665 94.7771 70.1407C95.1053 70.715 95.4334 71.6174 95.9256 72.7659C96.828 74.9809 98.0586 78.0982 99.2071 81.5437C100.356 84.9892 101.258 88.2707 101.832 90.5677C102.078 91.7162 102.324 92.7006 102.489 93.3569C102.406 93.9312 102.489 94.3413 102.489 94.3413Z" fill="#263238"/>
    <path d="M102.242 76.1293C105.36 79.1647 113.153 87.2042 113.153 87.2042L115.204 85.9736L104.211 74.2425C103.719 73.7503 102.981 73.6682 102.406 73.9964C101.75 74.4886 101.586 75.5551 102.242 76.1293Z" fill="#263238"/>
    <path d="M104.457 94.4233L107.082 87.0401C107.657 85.3994 109.133 84.2509 110.856 84.1688C111.02 84.1688 111.102 84.1688 111.266 84.1688C112.825 84.3329 120.864 84.9071 120.864 84.9071L123.982 88.3527C124.474 88.9269 124.556 89.8293 123.982 90.4856L124.884 96.8024L123.161 98.0329L123.326 102.381C123.326 102.381 121.767 103.447 121.029 103.119C120.29 102.791 120.29 102.791 120.29 102.791L119.224 101.725L116.27 105.908L112.169 108.287L104.457 94.4233Z" fill="#FFBF9D"/>
    <path d="M123.982 90.8138C123.9 90.8138 123.654 90.2395 122.833 89.5832C122.423 89.2551 121.931 88.9269 121.357 88.6808C120.782 88.5167 119.962 88.4347 119.224 88.3527C116.024 88.0245 113.481 87.6964 113.481 87.6144C113.481 87.4503 116.106 87.6143 119.224 87.9425C120.044 88.0245 120.782 88.0245 121.521 88.2706C122.177 88.5167 122.669 88.9269 123.079 89.3371C123.818 90.1575 124.064 90.8138 123.982 90.8138Z" fill="#FF9A6C"/>
    <path d="M123.818 96.5562C123.736 96.5562 123.736 95.8999 123.161 94.9155C122.669 94.0131 121.603 92.9467 120.044 92.2904C118.567 91.7161 117.009 91.6341 115.942 91.6341C114.876 91.6341 114.219 91.6341 114.137 91.552C114.137 91.47 114.794 91.388 115.86 91.3059C116.927 91.2239 118.567 91.3059 120.126 91.8802C121.767 92.5365 122.833 93.767 123.325 94.7514C123.982 95.8999 123.818 96.5562 123.818 96.5562Z" fill="#FF9A6C"/>
    <path d="M122.997 101.971C122.915 101.971 122.669 101.314 122.587 100.248C122.505 99.6736 122.505 99.0994 122.177 98.4431C121.931 97.7868 121.357 97.3766 120.536 97.2126C118.978 96.8024 117.419 96.8024 116.352 96.6383C115.286 96.4742 114.63 96.3102 114.63 96.2281C114.63 96.1461 115.286 96.2281 116.352 96.3102C117.419 96.3922 118.978 96.3922 120.618 96.8024C121.028 96.8844 121.439 97.0485 121.767 97.3766C122.095 97.6227 122.341 98.0329 122.505 98.3611C122.833 99.0994 122.833 99.7557 122.833 100.33C122.915 101.314 123.079 101.971 122.997 101.971Z" fill="#FF9A6C"/>
    <path d="M127.427 88.1066L92.8081 123.792L94.1207 125.187L118.896 122.398L152.284 90.6497L152.202 89.091L127.427 88.1066Z" fill="#455A64"/>
    <g opacity="0.3">
    <path d="M129.642 110.584C128.33 109.354 126.443 108.78 124.638 108.944C122.833 109.108 121.111 109.928 119.716 110.995C118.567 111.897 117.583 113.128 117.255 114.522C116.681 116.983 118.321 119.608 120.536 120.757L120.864 120.429C123.736 118.132 126.525 115.835 129.396 113.62C129.806 113.292 130.299 112.881 130.381 112.389C130.545 111.651 130.135 110.995 129.642 110.584Z" fill="black"/>
    </g>
    <path d="M125.951 107.221C125.951 107.221 129.314 107.303 130.381 107.795C131.447 108.369 134.482 111.569 134.482 111.569C134.482 111.569 134.482 113.784 133.58 113.866C133.58 113.866 133.662 114.112 133.744 115.343C133.826 116.573 133.99 117.229 132.349 118.296C132.349 118.296 132.514 120.265 131.939 120.839C131.365 121.331 130.627 121.823 130.627 121.823C130.627 121.823 128.74 124.202 127.591 124.038C126.443 123.874 124.802 125.269 124.802 125.269C124.802 125.269 118.649 122.726 119.306 121.987C119.962 121.249 121.439 119.608 121.439 119.608C121.439 119.608 117.255 116.573 117.337 115.589C117.419 114.604 117.747 114.522 117.747 114.522C117.747 114.522 117.583 112.717 119.06 112.553C119.06 112.553 120.208 110.256 121.357 110.174C122.505 110.092 130.134 112.881 130.134 112.881L127.263 110.42C127.263 110.42 124.392 110.01 124.474 109.026C124.556 108.041 125.951 107.221 125.951 107.221Z" fill="#FFBF9D"/>
    <path d="M125.458 118.706C125.376 118.788 123.736 117.886 121.603 116.819C119.47 115.753 117.665 115.096 117.665 114.932C117.665 114.85 119.552 115.342 121.767 116.409C123.982 117.475 125.54 118.624 125.458 118.706Z" fill="#FF9A6C"/>
    <path d="M129.478 115.999C129.396 116.081 127.181 115.425 124.474 114.358C121.767 113.374 119.552 112.389 119.634 112.307C119.716 112.225 121.931 112.881 124.638 113.948C127.345 115.014 129.478 115.917 129.478 115.999Z" fill="#FF9A6C"/>
    <path d="M152.12 90.5676C152.12 90.5676 151.956 90.5676 151.628 90.5676C151.3 90.5676 150.889 90.5676 150.315 90.5676C149.085 90.5676 147.444 90.5676 145.393 90.4856C141.127 90.4035 135.139 90.3215 128.166 90.1574L128.33 90.0754C125.622 92.8646 122.751 95.9 119.634 99.0994C112.661 106.319 106.262 112.799 101.668 117.557C99.3709 119.854 97.4841 121.741 96.1715 123.136C95.5152 123.792 95.023 124.284 94.6949 124.613C94.3667 124.941 94.1206 125.105 94.1206 125.105C94.1206 125.105 94.2847 124.941 94.6128 124.53C94.941 124.12 95.4332 123.628 96.0895 122.972C97.402 121.577 99.2068 119.69 101.504 117.311C106.098 112.553 112.415 105.99 119.388 98.6892C122.423 95.4898 125.376 92.4544 128.083 89.7473L128.166 89.6652H128.248C135.221 89.8293 141.209 90.0754 145.475 90.1574C147.526 90.2395 149.249 90.3215 150.397 90.3215C150.972 90.3215 151.382 90.4035 151.71 90.4035C151.956 90.5676 152.12 90.5676 152.12 90.5676Z" fill="#263238"/>
    <path d="M76.4828 38.1467C75.3343 34.5372 74.1037 30.9276 73.6115 27.1539C73.0373 23.3803 73.2013 19.5246 74.4319 15.915C74.596 15.3408 76.3187 11.7312 76.893 11.8132C77.3031 11.8132 76.2367 15.2587 76.4828 15.5869C78.4516 18.9503 79.0259 23.0521 78.6978 26.9899C78.4516 30.8455 77.6313 34.3731 76.4828 38.1467Z" fill="#263238"/>
    <path d="M97.8942 59.0659C97.8942 56.3587 97.8942 54.3078 97.9762 54.3078C97.9762 54.3078 107.164 53.3234 107.738 44.2174C107.985 39.7875 107.821 30.6815 107.574 22.4779C107.328 13.618 100.273 6.48087 91.4133 5.98865L90.5109 5.90662C80.9948 5.98865 75.7445 14.1102 76.0726 23.6264L76.1547 51.9288L95.0229 65.4647L97.8942 59.0659Z" fill="#FFBF9D"/>
    <path d="M97.8942 54.3078C97.8942 54.3078 92.1517 54.3898 86.1631 50.206C86.1631 50.206 88.7062 57.097 97.8122 56.7689L97.8942 54.3078Z" fill="#FF9A6C"/>
    <path d="M104.457 30.2712C104.457 30.9275 103.883 31.5018 103.145 31.5018C102.406 31.5018 101.832 30.9275 101.832 30.2712C101.832 29.615 102.406 29.0407 103.145 29.0407C103.883 29.0407 104.457 29.5329 104.457 30.2712Z" fill="#263238"/>
    <path d="M105.36 26.1695C105.195 26.3335 104.211 25.5132 102.816 25.5132C101.422 25.4311 100.355 26.0874 100.191 25.9233C100.109 25.8413 100.273 25.5132 100.766 25.2671C101.258 24.9389 101.996 24.6928 102.898 24.6928C103.801 24.7748 104.457 25.103 104.867 25.4311C105.36 25.7593 105.442 26.0874 105.36 26.1695Z" fill="#263238"/>
    <path d="M91.9057 30.3533C91.9057 31.0096 91.3314 31.5838 90.5931 31.5838C89.8548 31.5838 89.2805 31.0096 89.2805 30.3533C89.2805 29.697 89.8548 29.1227 90.5931 29.1227C91.3314 29.1227 91.9057 29.615 91.9057 30.3533Z" fill="#263238"/>
    <path d="M91.6596 26.0874C91.4955 26.2515 90.5111 25.4311 89.1165 25.4311C87.7219 25.3491 86.6554 26.0054 86.4913 25.8413C86.4093 25.7593 86.5734 25.4311 87.0656 25.185C87.5578 24.8569 88.2961 24.6108 89.1985 24.6108C90.1009 24.6928 90.7572 25.021 91.1674 25.3491C91.5776 25.6772 91.7416 26.0054 91.6596 26.0874Z" fill="#263238"/>
    <path d="M96.0896 37.0802C96.0896 36.9982 96.992 36.9161 98.3866 36.7521C98.7147 36.7521 99.1249 36.67 99.1249 36.4239C99.2069 36.1778 99.1249 35.7676 98.9608 35.3575C98.6327 34.4551 98.3866 33.5527 98.0584 32.5682C96.7458 28.6305 95.8435 25.3491 96.0075 25.3491C96.1716 25.267 97.3201 28.4664 98.6327 32.4042C98.9608 33.3886 99.2069 34.291 99.5351 35.1934C99.6171 35.6036 99.8632 36.0958 99.6171 36.588C99.5351 36.8341 99.2069 36.9982 99.0428 37.0802C98.7967 37.1623 98.6327 37.1623 98.4686 37.1623C96.992 37.1623 96.0896 37.1623 96.0896 37.0802Z" fill="#263238"/>
    <path d="M91.9877 37.8185C92.2338 37.8185 92.1517 39.3772 93.3823 40.4437C94.6128 41.5922 96.2535 41.5102 96.2535 41.6742C96.2535 41.7563 95.8433 41.9203 95.1871 41.9203C94.5308 41.9203 93.5463 41.6742 92.808 40.9359C92.0697 40.1976 91.7415 39.2952 91.7415 38.7209C91.6595 38.1467 91.8236 37.8185 91.9877 37.8185Z" fill="#263238"/>
    <path d="M91.8236 20.3449C91.6595 20.7551 90.2649 20.509 88.6242 20.591C86.9835 20.673 85.5889 21.0832 85.4248 20.7551C85.3428 20.591 85.5889 20.2629 86.1631 19.9347C86.7374 19.6066 87.5577 19.2784 88.5422 19.1964C89.5266 19.1144 90.429 19.3605 91.0033 19.6066C91.6595 19.8527 91.9056 20.1808 91.8236 20.3449Z" fill="#263238"/>
    <path d="M105.031 21.4934C104.785 21.8216 103.801 21.4114 102.652 21.3293C101.504 21.2473 100.519 21.4114 100.273 21.0832C100.191 20.9192 100.355 20.591 100.765 20.3449C101.176 20.0988 101.914 19.8527 102.734 19.9347C103.555 20.0168 104.211 20.3449 104.621 20.6731C105.031 21.0012 105.195 21.3293 105.031 21.4934Z" fill="#263238"/>
    <path d="M76.4829 30.5174C76.3188 30.4353 70.3302 28.3844 70.1661 34.6192C70.084 40.8539 76.3188 39.7054 76.3188 39.5413C76.4008 39.2952 76.4829 30.5174 76.4829 30.5174Z" fill="#FFBF9D"/>
    <path d="M74.5141 37.0802C74.5141 37.0802 74.432 37.1623 74.1859 37.2443C74.0219 37.3263 73.6937 37.4084 73.3656 37.2443C72.7093 36.9982 72.135 35.9317 72.135 34.7832C72.135 34.209 72.2991 33.7168 72.4632 33.2245C72.6272 32.7323 72.9554 32.4862 73.2835 32.4042C73.6117 32.3222 73.8578 32.5683 73.9398 32.7323C74.0219 32.8964 73.9398 33.0605 74.0219 33.0605C74.0219 33.0605 74.1859 32.9784 74.1039 32.7323C74.1039 32.5683 74.0219 32.4862 73.8578 32.3222C73.6937 32.1581 73.5296 32.1581 73.2835 32.1581C72.7913 32.1581 72.3811 32.6503 72.135 33.1425C71.8889 33.6347 71.7249 34.209 71.7249 34.8653C71.7249 36.0958 72.3811 37.3263 73.2835 37.5725C73.6937 37.6545 74.1039 37.5725 74.268 37.4084C74.5141 37.1623 74.5141 37.0802 74.5141 37.0802Z" fill="#FF9A6C"/>
    <path d="M103.555 12.1413C104.539 11.5671 101.586 8.28563 99.1247 7.13713C95.351 5.41438 89.6906 4.26587 86.163 5.25031C81.9792 6.39881 78.5337 8.44971 76.4007 12.2234C74.2678 15.997 73.4474 20.427 73.5295 24.7749C73.5295 26.0874 73.6936 27.482 74.3498 28.6305C75.1702 30.0252 76.893 30.9276 76.8109 32.8144C76.8109 33.4707 76.975 34.209 77.4672 34.7012C78.6157 35.9317 80.0103 34.7832 80.6666 33.6347C82.0612 31.1737 82.2253 28.3024 82.3894 25.5132C82.4714 23.5443 82.5534 21.4934 82.0612 19.6066C81.7331 18.5401 81.3229 17.5557 81.0768 16.4892C80.8307 15.4228 80.9127 14.1922 81.569 13.3719C81.651 13.2078 81.8151 13.0437 82.0612 12.8796C83.866 11.321 86.3271 10.9108 88.5421 11.7311C92.0696 13.0437 98.0582 14.9305 99.6169 13.7C101.914 11.9773 102.406 10.9108 102.406 10.9108L103.555 12.1413Z" fill="#263238"/>
    <path d="M86.8195 1.64073C86.4093 1.64073 76.2369 3.52756 73.3656 10.9108C70.4944 18.294 71.1506 20.6731 71.1506 20.6731C71.1506 20.6731 70.5764 21.0012 70.0842 21.4934C69.674 21.9856 70.1662 24.3647 71.4788 24.1186C81.4872 20.1809 93.1363 20.2629 106.098 21.2473L116.024 21.5755C118.814 21.9856 119.798 21.3294 118.649 20.591C117.747 20.0168 110.036 16.4892 110.036 16.4892L108.559 15.2587L104.703 9.35211C104.703 9.35211 105.278 8.61379 104.293 7.87547C103.309 7.21918 95.0231 0.820376 86.8195 1.64073Z" fill="#5971F2"/>
    <path d="M108.559 15.2587C108.559 15.2587 108.395 15.2587 108.149 15.2587C107.821 15.2587 107.493 15.1766 107.082 15.1766C106.098 15.0946 104.703 15.0126 102.981 15.0126C99.5351 15.0126 94.777 15.1766 89.6087 16.079C84.4405 16.8994 79.8464 18.1299 76.483 19.1144C74.8423 19.6066 73.5297 20.0168 72.5453 20.2629C72.1351 20.4269 71.8069 20.509 71.4788 20.591C71.2327 20.673 71.0686 20.673 71.0686 20.673C71.0686 20.673 71.2327 20.591 71.3967 20.509C71.7249 20.4269 72.053 20.2629 72.4632 20.1808C73.3656 19.8527 74.6782 19.4425 76.4009 18.9503C79.6824 17.9659 84.3584 16.7353 89.5267 15.915C94.695 15.0126 99.5351 14.8485 102.981 14.9305C106.426 15.0126 108.559 15.2587 108.559 15.2587Z" fill="#263238"/>
    <g opacity="0.3">
    <path d="M77.3853 5.66052C77.3853 5.66052 88.296 4.34794 93.0541 6.97309C92.8901 6.89105 92.726 6.72698 92.4799 6.64495C93.9565 7.38327 95.5152 8.12159 96.9918 8.85992C97.7302 9.2701 98.6326 9.59824 99.4529 9.2701C99.4529 9.2701 97.0739 6.97309 92.6439 5.25034C88.132 3.44555 80.9948 2.46112 77.3853 5.66052Z" fill="black"/>
    </g>
    <path d="M77.2212 5.6605C77.2212 5.6605 77.5493 5.41439 78.2056 5.08624C78.8619 4.7581 79.8463 4.26589 81.1589 3.93774C82.4715 3.6096 84.0302 3.36349 85.835 3.44553C87.6398 3.52756 89.6086 3.85571 91.4134 4.7581C92.3158 5.25032 93.1362 5.74253 93.9565 6.31678C94.7769 6.89104 95.5152 7.38325 96.2535 7.87547C96.9918 8.44972 97.5661 8.94193 98.3044 9.27008C98.9607 9.68026 99.699 9.76229 100.355 9.76229C102.98 9.92636 104.703 9.43415 104.539 9.27008C104.539 9.27008 104.539 9.35211 104.293 9.43415C104.129 9.51619 103.801 9.59822 103.473 9.68026C102.734 9.84433 101.668 9.92636 100.273 9.84433C99.617 9.84433 98.8787 9.76229 98.1404 9.35211C97.402 9.02397 96.7457 8.44972 96.0895 7.9575C95.3511 7.46529 94.6128 6.97307 93.7924 6.39882C92.9721 5.9066 92.1517 5.33235 91.2493 4.84014C89.4445 3.93774 87.4757 3.6096 85.7529 3.52756C84.0302 3.44553 82.3895 3.6096 81.0769 3.93774C79.7643 4.26589 78.7799 4.67607 78.1236 5.00421C77.7954 5.16828 77.5493 5.33235 77.3853 5.41439C77.3032 5.6605 77.2212 5.6605 77.2212 5.6605Z" fill="#263238"/>
    <g opacity="0.3">
    <path d="M72.2991 13.9461C74.268 14.0282 75.7446 13.618 77.7135 13.2078C79.7644 12.8797 81.8153 12.5515 83.8662 12.1413C85.4249 11.8132 87.2296 11.485 88.2961 10.4186C88.3781 11.2389 88.132 11.9773 87.4758 12.4695C86.8195 13.0437 84.9326 13.618 84.1123 13.7821C79.5183 14.8485 76.4009 15.5048 71.7249 15.5868C71.8069 15.1767 72.2991 13.9461 72.2991 13.9461Z" fill="black"/>
    </g>
    <path d="M73.6938 10.0904C72.4633 10.5826 71.643 10.9108 71.5609 11.9773C71.4789 12.8796 71.6429 13.9461 72.4633 14.1102C72.7094 14.1922 72.9555 14.1102 73.2837 14.1102C77.7956 13.3719 82.3076 12.7156 86.8196 11.9773C87.3118 11.8952 87.804 11.8132 88.0501 11.485C88.5424 10.9108 88.2142 10.0084 87.64 9.59821C87.0657 9.18803 86.3274 9.106 85.5891 9.02396C81.6513 8.77785 77.7136 9.27007 73.6938 10.0904Z" fill="#5971F2"/>
    <path d="M87.8859 11.6491C87.8859 11.6491 88.132 11.485 88.2961 11.0749C88.4601 10.6647 88.3781 9.92635 87.8038 9.3521C87.2296 8.85989 86.1631 8.61378 85.0967 8.61378C84.0302 8.61378 82.7997 8.61378 81.5691 8.69581C79.108 8.77785 76.811 9.10599 75.2523 9.51617C74.432 9.68025 73.8577 9.92635 73.3655 10.0084C73.2014 10.0904 73.0374 10.0904 72.8733 10.1725C72.7913 10.1725 72.7092 10.2545 72.7092 10.2545C72.7092 10.2545 72.7913 10.2545 72.8733 10.1725C73.0374 10.0904 73.2014 10.0904 73.3655 10.0084C73.7757 9.84432 74.432 9.68025 75.2523 9.43414C76.811 9.02396 79.108 8.69581 81.5691 8.53174C82.7997 8.44971 84.0302 8.44971 85.0967 8.44971C86.1631 8.44971 87.2296 8.69581 87.8859 9.27007C88.5422 9.84432 88.5422 10.6647 88.3781 11.0749C88.2961 11.321 88.214 11.403 88.0499 11.485C87.9679 11.5671 87.8859 11.6491 87.8859 11.6491Z" fill="#263238"/>
    <path d="M105.852 11.2389L97.4841 10.6647L98.0584 13.1258L107.246 13.2898L105.852 11.2389Z" fill="white"/>
    <path d="M92.8081 18.212C92.8081 18.13 96.5818 17.8018 101.258 17.3917C105.934 16.9815 109.708 16.6533 109.708 16.7354C109.708 16.8174 105.934 17.1456 101.258 17.5557C96.5818 17.9659 92.8081 18.212 92.8081 18.212Z" fill="#263238"/>
    </g>
    <path d="M192.892 136.59C192.892 136.727 149.733 137 96.4802 137C43.2672 137 0.107666 136.863 0.107666 136.59C0.107666 136.453 43.2672 136.18 96.5195 136.18C149.733 136.316 192.892 136.453 192.892 136.59Z" fill="#263238"/>
    <defs>
    <clipPath id="clip0_4_3560">
    <rect width="182.12" height="136.18" fill="white" transform="translate(0.107666)"/>
    </clipPath>
    </defs>
    </svg>
    