<svg width="13" height="19" viewBox="0 0 13 19" fill="none" xmlns="http://www.w3.org/2000/svg">
<path d="M6.5 8.775C5.88432 8.775 5.29385 8.53171 4.8585 8.09865C4.42315 7.66559 4.17857 7.07823 4.17857 6.46579C4.17857 5.85335 4.42315 5.26599 4.8585 4.83293C5.29385 4.39987 5.88432 4.15658 6.5 4.15658C7.11568 4.15658 7.70615 4.39987 8.1415 4.83293C8.57685 5.26599 8.82143 5.85335 8.82143 6.46579C8.82143 6.76904 8.76138 7.06932 8.64472 7.34949C8.52806 7.62965 8.35706 7.88422 8.1415 8.09865C7.92593 8.31308 7.67002 8.48317 7.38837 8.59922C7.10672 8.71527 6.80485 8.775 6.5 8.775ZM6.5 0C4.77609 0 3.12279 0.681215 1.90381 1.89379C0.684819 3.10636 0 4.75096 0 6.46579C0 11.3151 6.5 18.4737 6.5 18.4737C6.5 18.4737 13 11.3151 13 6.46579C13 4.75096 12.3152 3.10636 11.0962 1.89379C9.87721 0.681215 8.22391 0 6.5 0Z" fill="#8C919F"/>
</svg>
