<svg width="20" height="23" viewBox="0 0 20 23" fill="none" xmlns="http://www.w3.org/2000/svg">
<path d="M13.92 11.3973C13.8 11.3152 13.66 11.3357 13.56 11.4179C12.56 12.1777 11.34 12.6089 10 12.6089C8.66004 12.6089 7.44004 12.1571 6.44004 11.4179C6.34004 11.3357 6.18004 11.3357 6.08004 11.3973C3.72004 12.958 2.54004 16.0179 2.54004 19.5295C2.54004 21.9527 17.46 21.9527 17.46 19.5295C17.46 16.0179 16.28 12.958 13.92 11.3973Z" fill="#2E41F4"/>
<path d="M10 11.0071C12.4632 11.0071 14.46 8.95684 14.46 6.42767C14.46 3.8985 12.4632 1.84821 10 1.84821C7.53685 1.84821 5.54004 3.8985 5.54004 6.42767C5.54004 8.95684 7.53685 11.0071 10 11.0071Z" fill="#2E41F4"/>
</svg>
