<svg width="130" height="31" viewBox="0 0 130 31" fill="none" xmlns="http://www.w3.org/2000/svg">
<g clip-path="url(#clip0_46_3463)">
<path d="M0.962731 30.6801C0.666536 30.5929 0.42958 30.4184 0.266673 30.1857C0.0889556 29.9386 9.71188e-05 29.6768 9.71188e-05 29.3715C9.71188e-05 28.7899 0.0445264 25.9836 0.133385 20.9381C0.148195 20.1093 0.118575 18.7861 0.0445264 16.9831C-0.0147126 15.1947 -0.0147126 13.8133 0.0297166 12.8246C0.0445264 12.4465 0.192624 12.1266 0.488819 11.8795C0.770204 11.6323 1.09602 11.5159 1.46626 11.5305H1.56993C1.73284 11.4432 1.91056 11.3851 2.08827 11.3705C2.93243 11.2978 3.59887 11.2542 4.08759 11.2251C4.57631 11.1961 5.27237 11.1815 6.17576 11.1815C7.06435 11.1815 7.83446 11.2397 8.48609 11.356C9.1229 11.4723 9.83377 11.6613 10.6187 11.9376C11.3888 12.2139 12.0849 12.5629 12.6921 12.9845C13.9657 13.9006 14.9135 15.0783 15.5059 16.5033C16.0983 17.9282 16.3649 19.4404 16.3204 21.0108C16.2612 22.5375 15.9206 24.0061 15.2838 25.431C14.6321 26.8269 13.7139 27.9756 12.5736 28.8771C11.1963 29.9531 9.34505 30.5783 7.00511 30.7674C6.30905 30.8255 5.39085 30.8546 4.26531 30.8546C3.0361 30.8546 2.20675 30.8691 1.76246 30.8837C1.46626 30.8837 1.19969 30.8255 0.962731 30.6801ZM4.23569 28.1501C5.3168 28.1501 6.16095 28.121 6.75334 28.0628C8.41204 27.932 9.73011 27.5103 10.6779 26.7688C11.4777 26.1435 12.1293 25.3002 12.618 24.2533C13.1067 23.2064 13.3585 22.0868 13.4029 20.8945C13.4622 19.7022 13.2696 18.6116 12.855 17.6083C12.4107 16.5905 11.7739 15.7763 10.9297 15.1801C10.2484 14.7003 9.44872 14.3513 8.51571 14.1332C7.56788 13.9151 6.63487 13.8279 5.74628 13.8569C4.84289 13.886 3.85063 13.9442 2.75471 14.0314C2.7399 14.5549 2.75471 15.5 2.81395 16.8668C2.888 18.8297 2.91762 20.1965 2.90281 20.9817C2.90281 21.5197 2.888 22.2758 2.87319 23.2355C2.85838 24.1951 2.84357 25.0821 2.81395 25.8818C2.79914 26.6961 2.78433 27.4376 2.78433 28.1501H4.23569Z" fill="#2E41F4"/>
<path d="M21.5184 30.622C21.1482 30.622 20.8372 30.4911 20.5706 30.2148C20.304 29.9386 20.1707 29.6332 20.1707 29.2697C20.0671 29.0516 20.0078 28.8335 20.0078 28.6008C20.0374 27.3795 20.0671 25.6201 20.0671 23.3227C20.0671 21.0253 20.0819 19.455 20.0967 18.6407C20.0967 18.3354 20.0819 17.7974 20.0671 17.0413C20.0522 16.2852 20.0522 15.5727 20.0671 14.9184C20.0819 14.2641 20.1411 13.6534 20.23 13.0718C20.2596 12.8246 20.3781 12.5919 20.5558 12.4029C20.7335 12.1993 20.9556 12.0685 21.2074 11.9958C21.4444 11.7777 21.7406 11.6613 22.0812 11.6468C23.4289 11.6177 25.3689 11.5886 27.8866 11.5596C30.4043 11.545 32.1222 11.5305 33.0256 11.5305C33.4106 11.5305 33.7365 11.6613 34.003 11.9231C34.2696 12.1848 34.4029 12.5047 34.4029 12.8827C34.4029 13.2608 34.2696 13.5807 34.003 13.8424C33.7365 14.1041 33.4106 14.235 33.0256 14.235C32.0629 14.235 30.4191 14.2495 28.1236 14.2641C25.828 14.2786 24.0657 14.2932 22.8217 14.3222C22.7624 14.5694 22.7476 15.2674 22.7772 16.387C22.8069 17.5066 22.8217 18.2917 22.8217 18.7134V19.8185C23.7103 19.7603 24.6729 19.7312 25.6948 19.7312C26.7166 19.7312 27.857 19.7458 29.1454 19.7603C30.4339 19.7749 31.3965 19.7894 32.0185 19.7894C32.4036 19.7894 32.7294 19.9203 32.996 20.182C33.2625 20.4437 33.3958 20.7636 33.3958 21.1416C33.3958 21.5197 33.2625 21.8396 32.996 22.1013C32.7294 22.363 32.4036 22.4939 32.0185 22.4939C31.3817 22.4939 30.4191 22.4794 29.1306 22.4648C27.8422 22.4503 26.687 22.4357 25.6948 22.4357C24.6877 22.4357 23.7251 22.4648 22.8069 22.523C22.8069 25.0675 22.792 26.8996 22.7772 27.9902C27.235 28.0629 30.6856 28.0774 33.1144 28.0483C33.4995 28.0483 33.8253 28.1792 34.1067 28.4264C34.3881 28.6735 34.5214 28.9934 34.5214 29.3715C34.5214 29.7495 34.3881 30.0694 34.1363 30.3457C33.8845 30.622 33.5587 30.7528 33.1737 30.7528C30.7005 30.7383 26.8203 30.7092 21.5184 30.622Z" fill="#2E41F4"/>
<path d="M39.6755 30.84C39.3348 30.8255 39.0238 30.6946 38.7721 30.4475C38.5203 30.2003 38.3722 29.9095 38.3574 29.546C38.3426 29.4587 38.3278 29.3715 38.3278 29.2988C38.313 28.2809 38.2685 25.8672 38.1945 22.0577C38.1204 18.2481 38.0908 15.151 38.0908 12.7373C38.0908 12.3593 38.2241 12.0394 38.4907 11.7777C38.7573 11.5159 39.0831 11.3851 39.4681 11.3851C39.8532 11.3851 40.179 11.5159 40.4456 11.7777C40.7121 12.0394 40.8454 12.3593 40.8454 12.7373C40.8454 14.5549 40.8602 16.2997 40.8899 17.9573C40.9195 19.6294 40.9491 21.4615 40.9935 23.4681C41.038 25.4747 41.0676 27.0305 41.0676 28.1646C42.0154 28.1792 43.4816 28.1792 45.4365 28.1355C47.4062 28.1065 48.9019 28.0919 49.9238 28.1065C50.3089 28.1065 50.6347 28.2373 50.8864 28.5136C51.1382 28.7899 51.2715 29.1097 51.2715 29.4878C51.2715 29.8658 51.1382 30.1857 50.8568 30.4329C50.5754 30.6801 50.2496 30.811 49.8646 30.811C48.8723 30.7964 47.1692 30.811 44.7552 30.8691C42.3708 30.8982 40.6825 30.8982 39.6755 30.84Z" fill="#2E41F4"/>
<path d="M53.626 30.7674C53.2706 30.9128 52.9152 30.9128 52.5597 30.7674C52.2043 30.622 51.9525 30.3748 51.8044 30.0258C51.6563 29.6768 51.6563 29.3279 51.8044 28.9934C52.1747 28.121 52.6486 26.7688 53.241 24.9803C53.8334 23.1918 54.2629 21.9705 54.5146 21.3452C54.6479 20.9817 55.1662 19.7167 56.0845 17.5211C56.9434 15.3691 57.6099 13.6098 58.0838 12.2721C58.2171 11.9085 58.4392 11.6468 58.7798 11.4723C59.1205 11.2978 59.4759 11.2833 59.8313 11.3996C59.9942 11.4578 60.1423 11.5305 60.2756 11.6468C60.6459 11.7777 60.8976 12.0103 61.0457 12.3738L67.873 28.9353C68.0211 29.2988 68.0211 29.6478 67.873 29.9967C67.7249 30.3457 67.4732 30.5929 67.1177 30.7383C66.7623 30.8837 66.4068 30.8837 66.0514 30.7383C65.696 30.5929 65.4442 30.3457 65.2961 30.0113L63.2376 24.7767C62.4823 24.8058 62.0676 24.8349 61.9787 24.8349C59.5055 24.9221 57.5654 24.9658 56.1585 24.9658C55.3292 27.3358 54.7368 29.0225 54.3813 29.9967C54.2332 30.3602 53.9815 30.622 53.626 30.7674ZM62.112 22.1159L59.6092 16.1834L57.1656 22.2176C58.7206 22.2031 60.3645 22.174 62.112 22.1159Z" fill="#2E41F4"/>
<path d="M71.5903 30.6801C71.2941 30.5929 71.0572 30.4184 70.8943 30.1857C70.7166 29.9385 70.6277 29.6768 70.6277 29.3715C70.6277 28.7899 70.6721 25.9836 70.761 20.9381C70.7758 20.1093 70.7462 18.7861 70.6721 16.9831C70.5981 15.2092 70.5833 13.8278 70.6425 12.8391C70.6573 12.4611 70.8054 12.1412 71.1016 11.894C71.383 11.6468 71.7088 11.5305 72.0791 11.545H72.1827C72.3456 11.4578 72.5233 11.3996 72.7011 11.3851C73.5452 11.3124 74.2117 11.2687 74.7004 11.2397C75.1891 11.2106 75.8852 11.196 76.7886 11.196C77.6771 11.196 78.4472 11.2542 79.0989 11.3705C79.7357 11.4869 80.4466 11.6759 81.2315 11.9521C82.0016 12.2284 82.6976 12.5774 83.3048 12.999C84.5785 13.9151 85.5263 15.0929 86.1187 16.5178C86.7111 17.9428 86.9777 19.455 86.9332 21.0253C86.874 22.552 86.5334 24.0206 85.8966 25.4456C85.2449 26.8414 84.3267 27.9901 83.1864 28.8916C81.8091 29.9676 79.9578 30.5929 77.6179 30.7819C76.9218 30.84 76.0036 30.8691 74.8781 30.8691C73.6489 30.8691 72.8195 30.8837 72.3753 30.8982C72.0791 30.8837 71.8273 30.8255 71.5903 30.6801ZM74.8485 28.1501C75.9296 28.1501 76.7738 28.121 77.3661 28.0628C79.0248 27.932 80.3429 27.5103 81.2907 26.7687C82.0905 26.1435 82.7421 25.3002 83.2308 24.2533C83.7195 23.2064 83.9713 22.0868 84.0157 20.8944C84.075 19.7021 83.8824 18.6116 83.4678 17.6083C83.0235 16.5905 82.3866 15.7763 81.5425 15.1801C80.8612 14.7003 80.0615 14.3513 79.1285 14.1332C78.1807 13.9151 77.2477 13.8278 76.3591 13.8569C75.4557 13.886 74.4634 13.9442 73.3675 14.0314C73.3527 14.5549 73.3675 15.5 73.4267 16.8668C73.5008 18.8297 73.5304 20.1965 73.5156 20.9817C73.5156 21.5197 73.5008 22.2758 73.486 23.2354C73.4712 24.1951 73.4564 25.0821 73.4267 25.8818C73.4119 26.696 73.3971 27.4376 73.3971 28.1501H74.8485Z" fill="black"/>
<path d="M93.8344 30.1566C93.0495 29.7931 92.383 29.3278 91.8351 28.7899C91.2871 28.2519 90.8132 27.6412 90.3985 26.9578C89.9839 26.2744 89.6877 25.5619 89.5248 24.8203C89.3471 24.0788 89.2286 23.3081 89.1693 22.523C89.1101 21.7378 89.1249 20.9672 89.2138 20.2401C89.3174 19.3096 89.5396 18.3935 89.8654 17.5211C90.1912 16.6487 90.6207 15.8053 91.1686 15.0347C91.7166 14.2495 92.3534 13.5952 93.0791 13.0427C93.8048 12.4901 94.6489 12.0975 95.6116 11.8504C96.5742 11.6032 97.5517 11.4578 98.5143 11.4141C98.9586 11.3996 99.4029 11.4141 99.8916 11.4723C100.78 11.5741 101.506 11.7195 102.054 11.9085C103.313 12.3157 104.364 12.9554 105.193 13.8133C106.023 14.6712 106.63 15.6163 106.985 16.6487C107.356 17.681 107.533 18.7716 107.548 19.9348C107.563 21.098 107.415 22.2322 107.134 23.3372C106.852 24.4568 106.423 25.5183 105.83 26.5361C105.238 27.5539 104.483 28.4409 103.52 29.1679C102.572 29.8949 101.476 30.4184 100.247 30.7237C99.0178 31.0291 97.7442 31.1018 96.4409 30.9273C95.4931 30.7673 94.6193 30.5202 93.8344 30.1566ZM101.595 27.1032C103.076 26.0999 104.038 24.5877 104.497 22.5811C104.779 21.3597 104.838 20.2111 104.69 19.1205C104.542 18.03 104.157 17.0849 103.535 16.2706C102.913 15.4564 102.157 14.8748 101.284 14.5403C100.869 14.3804 100.528 14.2641 100.277 14.2204C100.025 14.1623 99.7287 14.1332 99.3881 14.1332C99.1067 14.1332 98.8105 14.1187 98.4847 14.1041C98.144 14.0896 97.6849 14.1187 97.1074 14.1914C96.0707 14.3222 94.9896 14.9475 93.8936 16.0961C92.7977 17.2303 92.1461 18.7279 91.9388 20.56C91.7907 21.8396 91.8647 23.0319 92.1461 24.1369C92.4275 25.2566 92.9754 26.1435 93.8048 26.8269C94.6045 27.4958 95.6116 27.9465 96.826 28.1792C98.5439 28.4554 100.129 28.1065 101.595 27.1032Z" fill="black"/>
<path d="M129.408 30.4911C129.126 30.7383 128.801 30.8546 128.416 30.84C128.031 30.8255 127.705 30.6801 127.453 30.4038C127.201 30.1276 127.083 29.8077 127.098 29.4296C127.172 28.8916 127.201 26.7397 127.186 22.9883C127.172 19.2369 127.157 17.0849 127.157 16.5469C125.75 18.3499 124.121 20.6473 122.27 23.439C122.062 23.7589 121.781 23.9625 121.411 24.0352C121.04 24.1079 120.7 24.0497 120.389 23.8461C120.374 23.8316 120.359 23.8171 120.329 23.8171C120.167 23.7153 120.033 23.5844 119.915 23.439C119.145 22.3776 117.841 20.7781 116.02 18.6116L114.243 16.5178C114.302 17.8701 114.332 19.4113 114.332 21.1562C114.332 22.0141 114.317 23.3809 114.287 25.2275C114.257 27.0741 114.243 28.4845 114.243 29.4296C114.243 29.8077 114.109 30.1276 113.843 30.3893C113.576 30.651 113.25 30.7819 112.865 30.7819C112.48 30.7819 112.154 30.651 111.888 30.3893C111.621 30.1276 111.488 29.8077 111.488 29.4296C111.488 28.4845 111.503 27.0741 111.532 25.2275C111.562 23.3809 111.577 22.0141 111.577 21.1271C111.577 17.7683 111.473 15.0638 111.251 13.0136C111.221 12.6355 111.31 12.3011 111.547 12.0103C111.784 11.7195 112.095 11.5596 112.48 11.5305C112.658 11.5159 112.836 11.5305 112.999 11.5886C113.413 11.6032 113.769 11.7777 114.035 12.0976L118.123 16.8668C119.278 18.219 120.241 19.3968 121.026 20.4001C123.469 16.7359 125.602 13.9442 127.423 12.0249C127.497 11.9522 127.571 11.894 127.646 11.8358C127.942 11.5596 128.282 11.4432 128.667 11.4578C129.052 11.4723 129.378 11.6177 129.63 11.894C129.882 12.1703 130 12.4901 129.985 12.8682C129.911 14.7584 129.897 17.5502 129.911 21.258C129.941 24.9658 129.911 27.7284 129.837 29.546C129.837 29.924 129.689 30.2439 129.408 30.4911Z" fill="black"/>
<path d="M109.074 7.54644L106.201 5.37993V1.45404C106.201 1.23593 106.023 1.04691 105.786 1.04691H104.216C103.994 1.04691 103.802 1.22139 103.802 1.45404V3.57693L99.4328 0.247189C99.0033 -0.0872385 98.411 -0.0872385 97.9667 0.247189L88.3255 7.54644C87.8072 7.95357 87.7035 8.69513 88.1182 9.17496C88.5328 9.68387 89.2881 9.78565 89.7769 9.37852L98.6923 2.66089L107.608 9.39306C107.83 9.55301 108.082 9.64025 108.333 9.64025C108.704 9.64025 109.044 9.4803 109.266 9.1895C109.696 8.69513 109.607 7.95357 109.074 7.54644Z" fill="#2E41F4"/>
</g>
<defs>
<clipPath id="clip0_46_3463">
<rect width="130" height="31" fill="white"/>
</clipPath>
</defs>
</svg>
