<svg width="20" height="21" viewBox="0 0 20 21" fill="none" xmlns="http://www.w3.org/2000/svg">
<path id="Vector" d="M7.42857 0C9.39875 0 11.2882 0.821783 12.6814 2.28457C14.0745 3.74735 14.8571 5.73131 14.8571 7.8C14.8571 9.732 14.1829 11.508 13.0743 12.876L13.3829 13.2H14.2857L20 19.2L18.2857 21L12.5714 15V14.052L12.2629 13.728C10.96 14.892 9.26857 15.6 7.42857 15.6C5.45839 15.6 3.56891 14.7782 2.17578 13.3154C0.782651 11.8526 0 9.86869 0 7.8C0 5.73131 0.782651 3.74735 2.17578 2.28457C3.56891 0.821783 5.45839 0 7.42857 0ZM7.42857 2.4C4.57143 2.4 2.28571 4.8 2.28571 7.8C2.28571 10.8 4.57143 13.2 7.42857 13.2C10.2857 13.2 12.5714 10.8 12.5714 7.8C12.5714 4.8 10.2857 2.4 7.42857 2.4Z" fill="white"/>
</svg>
