<svg width="24" height="24" viewBox="0 0 24 24" fill="none" xmlns="http://www.w3.org/2000/svg">
<path d="M12 15.6C12.972 15.6 13.8 15.24 14.532 14.532C15.24 13.8 15.6 12.972 15.6 12C15.6 11.028 15.24 10.2 14.532 9.468C13.8 8.76 12.972 8.4 12 8.4C11.028 8.4 10.2 8.76 9.468 9.468C8.76 10.2 8.4 11.028 8.4 12C8.4 12.972 8.76 13.8 9.468 14.532C10.2 15.24 11.028 15.6 12 15.6ZM12 0C15.3 0 18.12 1.2 20.46 3.54C22.8 5.88 24 8.7 24 12V13.74C24 14.94 23.58 15.96 22.8 16.8C21.96 17.604 21 18 19.8 18C18.36 18 17.172 17.4 16.272 16.2C15.072 17.4 13.656 18 12 18C10.356 18 8.94 17.4 7.752 16.248C6.6 15.06 6 13.656 6 12C6 10.356 6.6 8.94 7.752 7.752C8.94 6.6 10.356 6 12 6C13.656 6 15.06 6.6 16.248 7.752C17.4 8.94 18 10.356 18 12V13.74C18 14.232 18.192 14.664 18.552 15.036C18.912 15.408 19.332 15.6 19.8 15.6C20.304 15.6 20.724 15.408 21.084 15.036C21.444 14.664 21.6 14.232 21.6 13.74V12C21.6 9.372 20.676 7.116 18.78 5.22C16.884 3.324 14.628 2.4 12 2.4C9.372 2.4 7.116 3.324 5.22 5.22C3.324 7.116 2.4 9.372 2.4 12C2.4 14.628 3.324 16.884 5.22 18.78C7.116 20.676 9.372 21.6 12 21.6H18V24H12C8.7 24 5.88 22.8 3.54 20.46C1.2 18.12 0 15.3 0 12C0 8.7 1.2 5.88 3.54 3.54C5.88 1.2 8.7 0 12 0Z" fill="#2E41F4"/>
</svg>
