<svg width="25" height="27" viewBox="0 0 25 27" fill="none" xmlns="http://www.w3.org/2000/svg">
<g id="noun-notification-1521800 1">
<g id="Group">
<path id="Vector" d="M12.4989 25.2315C14.2373 25.2315 15.6516 23.8356 15.74 22.113H9.25781C9.34621 23.8356 10.7605 25.2315 12.4989 25.2315Z" fill="#8C919F"/>
<path id="Vector_2" d="M6.7558 10.6785C6.7558 13.9158 5.90133 15.9651 3.39687 18.4896C1.98258 19.9152 3.22008 21.222 5.22366 21.222H12.5013H19.8379C21.8415 21.222 23.079 19.9152 21.6647 18.4896C19.1897 15.9948 18.3058 13.9158 18.3058 10.6785C18.3058 8.12431 16.7147 5.83741 14.446 4.97611C14.5049 4.76821 14.5638 4.53061 14.5638 4.32271C14.5638 3.16441 13.6504 2.24371 12.5013 2.24371C11.3522 2.24371 10.4978 3.16441 10.4978 4.32271C10.4978 4.56031 10.5272 4.76821 10.6156 4.97611C8.3174 5.83741 6.7558 8.09461 6.7558 10.6785Z" fill="#8C919F"/>
</g>
</g>
</svg>
