<svg width="18" height="18" viewBox="0 0 18 18" fill="none" xmlns="http://www.w3.org/2000/svg">
<g id="noun-lock-1009757 1" clip-path="url(#clip0_30_310)">
<path id="Vector" fill-rule="evenodd" clip-rule="evenodd" d="M2.92432 7.11H15.0407C15.7953 7.11 16.4127 7.72738 16.4127 8.48195V16.628C16.4127 17.3826 15.7953 18 15.0407 18H2.92432C2.16975 18 1.55237 17.3826 1.55237 16.628V8.48195C1.55237 7.72738 2.16975 7.11 2.92432 7.11ZM9.67465 12.7672C10.5359 12.3088 10.8925 11.7566 10.931 11.3254C11.1375 9.02096 6.97388 8.96993 7.03095 11.3268C7.04116 11.7496 7.35638 12.277 8.1441 12.7651C7.92162 13.8038 7.80386 14.44 7.80386 15.5159C8.54987 15.5159 9.2961 15.5159 10.0422 15.5159C10.0422 14.44 9.89713 13.8058 9.67465 12.7672ZM11.5632 6.12483C11.5896 1.23059 6.40172 1.25407 6.40172 6.21055C5.54145 6.21055 4.68129 6.21055 3.82103 6.21055C3.82103 -1.99394 14.1438 -2.0239 14.1438 6.12483C13.2836 6.12483 14.1438 6.12483 11.5632 6.12483Z" fill="#FF6B2C"/>
</g>
<defs>
<clipPath id="clip0_30_310">
<rect width="18" height="18" fill="white"/>
</clipPath>
</defs>
</svg>
