<svg width="24" height="24" viewBox="0 0 24 24" fill="none" xmlns="http://www.w3.org/2000/svg">
<g id="noun-share-5410262 1">
<path id="Vector" d="M18 2C15.7909 2 14 3.79086 14 6C14 6.27397 14.0275 6.54151 14.08 6.8L8.69472 9.04387C7.98378 8.39543 7.03807 8 6 8C3.79086 8 2 9.79086 2 12C2 14.2091 3.79086 16 6 16C7.03042 16 7.96983 15.6104 8.67896 14.9704L14.0007 18.0748C14.0405 20.2494 15.8158 22 18 22C20.2091 22 22 20.2091 22 18C22 15.7909 20.2091 14 18 14C16.4975 14 15.1885 14.8284 14.5048 16.0534L9.78411 13.2997C9.92404 12.8922 10 12.455 10 12C10 11.5634 9.93004 11.1431 9.80071 10.7497L14.9601 8.59995C15.6938 9.45691 16.7835 10 18 10C20.2091 10 22 8.20914 22 6C22 3.79086 20.2091 2 18 2Z" fill="#8C919F"/>
</g>
</svg>
