<svg width="20" height="20" viewBox="0 0 20 20" fill="none" xmlns="http://www.w3.org/2000/svg">
<g clip-path="url(#clip0_20_3263)">
<path d="M10 0.5C4.76 0.5 0.5 4.76 0.5 10C0.5 15.24 4.76 19.5 10 19.5C15.24 19.5 19.5 15.24 19.5 10C19.5 4.76 15.24 0.5 10 0.5ZM14.88 10.74H10C9.6 10.74 9.26 10.42 9.26 10V5.12C9.26 4.72 9.58 4.38 10 4.38C10.42 4.38 10.74 4.7 10.74 5.12V9.26H14.88C15.28 9.26 15.62 9.58 15.62 10C15.6 10.4 15.28 10.74 14.88 10.74Z" fill="#8B8E9F"/>
</g>
<defs>
<clipPath id="clip0_20_3263">
<rect width="20" height="20" fill="white"/>
</clipPath>
</defs>
</svg>
