<svg width="26" height="15" viewBox="0 0 26 15" fill="none" xmlns="http://www.w3.org/2000/svg">
<path d="M23.1751 10.354C25.2635 12.3158 25.6946 13.2558 25.762 13.3784C26.6243 14.8225 24.8188 14.9315 24.8188 14.9315L21.3427 14.986C21.3427 14.986 20.5882 15.1359 19.6181 14.4547C18.3111 13.5555 17.0581 11.1986 16.1284 11.512C15.1718 11.8253 15.1988 13.937 15.1988 13.937C15.1988 13.937 15.1988 14.2367 14.9832 14.4683C14.7407 14.7272 14.2691 14.6318 14.2691 14.6318H12.7196C12.7196 14.6318 9.2839 14.986 6.27931 11.8117C2.9783 8.35129 0.068027 1.53947 0.068027 1.53947C0.068027 1.53947 -0.0936549 1.13076 0.0815005 0.89916C0.283603 0.681182 0.84949 0.681182 0.84949 0.681182H4.56817C4.56817 0.681182 4.93196 0.681182 5.16101 0.89916C5.36311 1.04902 5.48437 1.36236 5.48437 1.36236C5.48437 1.36236 6.07721 2.87459 6.88562 4.2642C8.43507 6.97531 9.14916 7.56112 9.64768 7.27503C10.4561 6.85269 10.227 3.44678 10.227 3.44678C10.227 3.44678 10.2405 2.20703 9.83631 1.66208C9.52642 1.23975 8.93359 1.10352 8.67759 1.07627C8.46202 1.04902 8.81233 0.558569 9.25695 0.326967C9.93063 -3.04512e-07 11.1028 0 12.5041 0C13.5954 0 13.9053 0.081742 14.323 0.177108C15.6164 0.490451 15.1718 1.70296 15.1718 4.59117C15.1718 5.5312 15.0371 6.81182 15.6703 7.2614C15.9533 7.45213 16.6539 7.28865 18.4055 4.30507C19.2139 2.88821 19.8336 1.2125 19.8336 1.2125C19.8336 1.2125 19.9684 0.926408 20.1705 0.790171C20.3861 0.681182 20.6825 0.681182 20.6825 0.681182H24.5898C24.5898 0.681182 25.7755 0.544946 25.9641 1.07627C26.1662 1.63484 25.5195 2.95633 23.9161 5.09524C21.3023 8.63739 21.0058 8.31042 23.1751 10.354Z" fill="#0076FF"/>
</svg>
