<svg width="19" height="19" viewBox="0 0 19 19" fill="none" xmlns="http://www.w3.org/2000/svg">
<path d="M14.0125 11.362C14.25 11.4855 14.402 11.552 14.4495 11.647C14.5065 11.7515 14.4875 12.2265 14.25 12.768C14.06 13.3 13.072 13.813 12.635 13.832C12.198 13.851 12.1885 14.174 9.823 13.1385C7.4575 12.103 6.0325 9.576 5.9185 9.4145C5.8045 9.253 5.0065 8.1035 5.0445 6.935C5.092 5.776 5.7 5.225 5.947 4.997C6.175 4.75 6.4315 4.7215 6.593 4.75H7.0395C7.182 4.75 7.3815 4.693 7.562 5.1775L8.2175 6.954C8.2745 7.0775 8.3125 7.22 8.227 7.372L7.9705 7.7615L7.6 8.1605C7.486 8.2745 7.353 8.398 7.486 8.6355C7.6 8.8825 8.075 9.671 8.74 10.3265C9.6045 11.1625 10.3645 11.438 10.5925 11.5615C10.8205 11.6945 10.963 11.6755 11.1055 11.5235L11.875 10.6305C12.0555 10.393 12.2075 10.45 12.426 10.526L14.0125 11.362ZM9.5 0C10.7476 0 11.9829 0.245725 13.1355 0.723144C14.2881 1.20056 15.3354 1.90033 16.2175 2.78249C17.0997 3.66464 17.7994 4.71191 18.2769 5.86451C18.7543 7.0171 19 8.25244 19 9.5C19 12.0196 17.9991 14.4359 16.2175 16.2175C14.4359 17.9991 12.0196 19 9.5 19C7.6285 19 5.89 18.4585 4.4175 17.5275L0 19L1.4725 14.5825C0.5415 13.11 0 11.3715 0 9.5C0 6.98044 1.00089 4.56408 2.78249 2.78249C4.56408 1.00089 6.98044 0 9.5 0ZM9.5 1.9C7.48435 1.9 5.55126 2.70071 4.12599 4.12599C2.70071 5.55126 1.9 7.48435 1.9 9.5C1.9 11.134 2.413 12.6445 3.287 13.8795L2.375 16.625L5.1205 15.713C6.3555 16.587 7.866 17.1 9.5 17.1C11.5156 17.1 13.4487 16.2993 14.874 14.874C16.2993 13.4487 17.1 11.5156 17.1 9.5C17.1 7.48435 16.2993 5.55126 14.874 4.12599C13.4487 2.70071 11.5156 1.9 9.5 1.9Z" fill="#F8F8F8"/>
</svg>
