<svg width="47" height="47" viewBox="0 0 47 47" fill="none" xmlns="http://www.w3.org/2000/svg">
<circle cx="23.5" cy="23.5" r="23.5" fill="#FF6B2C"/>
<g clip-path="url(#clip0_64_4126)">
<path fill-rule="evenodd" clip-rule="evenodd" d="M14.3861 20.665H32.5607C33.6925 20.665 34.6186 21.5911 34.6186 22.7229V34.9421C34.6186 36.0739 33.6925 37 32.5607 37H14.3861C13.2542 37 12.3281 36.0739 12.3281 34.9421V22.7229C12.3281 21.5911 13.2542 20.665 14.3861 20.665ZM24.5115 29.1507C25.8034 28.4632 26.3383 27.635 26.3961 26.9881C26.7058 23.5314 20.4604 23.4549 20.546 26.9902C20.5613 27.6244 21.0341 28.4155 22.2157 29.1476C21.882 30.7057 21.7054 31.6599 21.7054 33.2738C22.8244 33.2738 23.9437 33.2738 25.0629 33.2738C25.0629 31.6599 24.8453 30.7087 24.5115 29.1507ZM27.3444 19.1872C27.3839 11.8459 19.6022 11.8811 19.6022 19.3158C18.3118 19.3158 17.0215 19.3158 15.7311 19.3158C15.7311 7.00909 31.2153 6.96415 31.2153 19.1872C29.925 19.1872 31.2153 19.1872 27.3444 19.1872Z" fill="white"/>
</g>
<defs>
<clipPath id="clip0_64_4126">
<rect width="27" height="27" fill="white" transform="translate(10 10)"/>
</clipPath>
</defs>
</svg>
