<svg width="40" height="40" viewBox="0 0 40 40" fill="none" xmlns="http://www.w3.org/2000/svg">
<path d="M36.6801 1.04002C35.9201 0.88002 35.2001 1.40002 35.0801 2.12002C35.0801 2.16002 34.2801 6.12002 33.4401 8.20002C33.0801 9.08002 31.8001 10.6 29.3601 10.6H25.4801C23.0401 10.6 21.7601 9.12002 21.4001 8.20002C20.5201 6.16002 19.7601 2.16002 19.7601 2.12002C19.6001 1.36002 18.8801 0.88002 18.1601 1.04002C17.4001 1.20002 16.9201 1.92002 17.0801 2.64002C17.0401 2.80002 17.8401 6.92002 18.8001 9.24002C19.5201 10.92 21.3201 12.64 23.8401 13.16C24.8001 15.28 24.8401 19.76 24.7601 22.04C23.5201 23.16 20.7201 25.72 20.0001 27.36C19.4001 28.64 19.1601 33.4 19.0401 37.16C19.0001 38.16 19.8001 38.96 20.7601 39C21.7601 39.04 22.5601 38.24 22.6001 37.28C22.6801 33.84 22.9601 29.68 23.2401 28.84C23.6001 28.16 25.6001 26 27.6801 24.24L27.7201 24.2C26.9201 28.84 28.7601 36.08 29.2001 37.72C29.4001 38.52 30.1201 39.04 30.9201 39.04C31.0801 39.04 31.2401 39 31.4001 38.96C32.3601 38.72 32.9201 37.72 32.6401 36.76C31.5201 32.6 30.4401 25.8 31.5601 23.72L31.6401 23.56C31.8001 23.24 31.9201 22.88 31.9601 22.6C32.5601 20.24 32.4801 15.32 31.3601 13.04C33.6401 12.4 35.2401 10.84 35.9201 9.24002C36.8801 6.92002 37.6801 2.80002 37.7201 2.64002C37.9201 1.88002 37.4401 1.16002 36.6801 1.04002Z" fill="#2E41F4"/>
<path d="M27.4001 9.16006C29.4988 9.16006 31.2001 7.45874 31.2001 5.36006C31.2001 3.26138 29.4988 1.56006 27.4001 1.56006C25.3014 1.56006 23.6001 3.26138 23.6001 5.36006C23.6001 7.45874 25.3014 9.16006 27.4001 9.16006Z" fill="#2E41F4"/>
<path d="M16.2799 13.08L7.31993 14.4C6.75993 14.48 6.31993 14.96 6.31993 15.56V23.96C5.79993 23.8 5.23993 23.76 4.63993 23.84C3.03993 24.16 1.99993 25.48 2.23993 26.8C2.51993 28.12 3.99993 28.96 5.59993 28.64C6.99993 28.36 8.03993 27.28 8.03993 26.08V17.68L15.9599 16.48V22.44C15.4399 22.28 14.8799 22.24 14.2799 22.32C12.6799 22.64 11.6399 23.96 11.8799 25.28C12.1599 26.6 13.6399 27.44 15.2399 27.12C16.6399 26.84 17.6799 25.76 17.6799 24.56V14.24C17.6399 13.52 16.9999 12.96 16.2799 13.08Z" fill="#2E41F4"/>
</svg>
