<svg width="40" height="40" viewBox="0 0 40 40" fill="none" xmlns="http://www.w3.org/2000/svg">
<path d="M9.23982 22.64C9.23982 23.64 8.39982 24.48 7.39982 24.48C6.39982 24.48 5.55982 23.64 5.55982 22.64C5.55982 21.64 6.39982 20.8 7.39982 20.8C8.43982 20.8 9.23982 21.6 9.23982 22.64ZM32.5998 20.8C31.5998 20.8 30.7598 21.64 30.7598 22.64C30.7598 23.64 31.5998 24.48 32.5998 24.48C33.5998 24.48 34.4398 23.64 34.4398 22.64C34.4398 21.6 33.5998 20.8 32.5998 20.8ZM38.7598 16.28H36.7598L37.9198 17.44C38.3198 17.84 38.5198 18.36 38.5198 18.92V26.84C38.5198 28 37.5998 28.92 36.4398 28.92H35.8798V31.6C35.8798 33.4 34.4398 34.84 32.6398 34.84C30.8398 34.84 29.3998 33.4 29.3998 31.6V28.92H10.6798V31.6C10.6798 33.4 9.23982 34.84 7.43982 34.84C5.63982 34.84 4.19982 33.4 4.19982 31.6V28.92H3.59982C2.43982 28.92 1.51982 28 1.51982 26.84V18.92C1.51982 18.36 1.75982 17.84 2.11982 17.44L3.27982 16.28H1.27982C0.719815 16.28 0.319815 15.76 0.439815 15.24L0.679815 14.12C0.759815 13.72 1.11982 13.44 1.51982 13.44H4.79982L7.31982 7.79996C8.03981 6.15996 9.67982 5.07996 11.4798 5.07996H28.5998C30.3998 5.07996 32.0398 6.15996 32.7598 7.79996L35.2798 13.44H38.5598C38.9598 13.44 39.3198 13.72 39.3998 14.12L39.6398 15.24C39.7198 15.8 39.3198 16.28 38.7598 16.28ZM6.35982 15.64H33.6798L30.5998 8.75996C30.2398 7.95996 29.4398 7.43996 28.5598 7.43996H11.4398C10.5598 7.43996 9.75982 7.95996 9.39982 8.75996L6.35982 15.64ZM10.6798 22.64C10.6798 20.84 9.23982 19.4 7.43982 19.4C5.63982 19.4 4.19982 20.84 4.19982 22.64C4.19982 24.44 5.63982 25.88 7.43982 25.88C9.19982 25.88 10.6798 24.44 10.6798 22.64ZM26.6798 22.64C26.6798 22.12 26.4798 21.68 26.1598 21.36C25.8398 21.04 25.3598 20.84 24.8798 20.84H15.1198C14.5998 20.84 14.1598 21.04 13.8398 21.36C13.5198 21.68 13.3198 22.16 13.3198 22.64C13.3198 23.64 14.1598 24.48 15.1598 24.48H24.8798C25.8798 24.48 26.6798 23.64 26.6798 22.64ZM35.8398 22.64C35.8398 20.84 34.3998 19.4 32.5998 19.4C30.7998 19.4 29.3598 20.84 29.3598 22.64C29.3598 24.44 30.7998 25.88 32.5998 25.88C34.3998 25.88 35.8398 24.44 35.8398 22.64Z" fill="#2E41F4"/>
</svg>
