<svg width="40" height="40" viewBox="0 0 40 40" fill="none" xmlns="http://www.w3.org/2000/svg">
<path d="M33.0926 19.0958H7.77012C7.64377 19.0956 7.52266 19.0453 7.43331 18.956C7.34397 18.8666 7.29368 18.7455 7.29346 18.6192V9C7.29566 7.67459 7.82315 6.4041 8.76036 5.4669C9.69756 4.5297 10.9681 4.0022 12.2935 4H29.8768C30.2761 4.00932 30.6558 4.17448 30.9349 4.46016C31.214 4.74584 31.3703 5.12937 31.3703 5.52875C31.3703 5.92813 31.214 6.31166 30.9349 6.59734C30.6558 6.88302 30.2761 7.04818 29.8768 7.0575H13.9301C13.4315 7.0575 12.9533 7.25557 12.6008 7.60814C12.2482 7.96071 12.0501 8.43889 12.0501 8.9375C12.0501 9.43611 12.2482 9.91429 12.6008 10.2669C12.9533 10.6194 13.4315 10.8175 13.9301 10.8175H31.2726C31.8815 10.8182 32.4652 11.0604 32.8956 11.491C33.326 11.9215 33.568 12.5053 33.5685 13.1142V18.6183C33.5686 18.6809 33.5563 18.7429 33.5325 18.8008C33.5086 18.8587 33.4736 18.9113 33.4294 18.9556C33.3853 19 33.3328 19.0352 33.275 19.0592C33.2172 19.0833 33.1552 19.0957 33.0926 19.0958Z" fill="#2E41F4"/>
<path d="M38.8976 22.1717C38.6728 21.7774 38.3504 21.4477 37.9613 21.2142C37.5722 20.9806 37.1295 20.8512 36.6759 20.8384H33.9851V23.4367C33.9851 23.5472 33.9412 23.6532 33.863 23.7313C33.7849 23.8095 33.6789 23.8534 33.5684 23.8534C33.4579 23.8534 33.3519 23.8095 33.2738 23.7313C33.1956 23.6532 33.1517 23.5472 33.1517 23.4367V20.8384H31.5967V23.4367C31.5967 23.5472 31.5528 23.6532 31.4747 23.7313C31.3965 23.8095 31.2906 23.8534 31.1801 23.8534C31.0696 23.8534 30.9636 23.8095 30.8854 23.7313C30.8073 23.6532 30.7634 23.5472 30.7634 23.4367V20.8384H29.2084V23.4367C29.2084 23.5472 29.1645 23.6532 29.0864 23.7313C29.0082 23.8095 28.9022 23.8534 28.7917 23.8534C28.6812 23.8534 28.5752 23.8095 28.4971 23.7313C28.419 23.6532 28.3751 23.5472 28.3751 23.4367V20.8384H26.8201V23.4375C26.8201 23.548 26.7762 23.654 26.698 23.7322C26.6199 23.8103 26.5139 23.8542 26.4034 23.8542C26.2929 23.8542 26.1869 23.8103 26.1088 23.7322C26.0306 23.654 25.9867 23.548 25.9867 23.4375V20.8375H24.4301V23.4367C24.4301 23.5472 24.3862 23.6532 24.308 23.7313C24.2299 23.8095 24.1239 23.8534 24.0134 23.8534C23.9029 23.8534 23.7969 23.8095 23.7188 23.7313C23.6406 23.6532 23.5967 23.5472 23.5967 23.4367V20.8375H22.0417V23.4367C22.0417 23.5472 21.9978 23.6532 21.9197 23.7313C21.8416 23.8095 21.7356 23.8534 21.6251 23.8534C21.5146 23.8534 21.4086 23.8095 21.3304 23.7313C21.2523 23.6532 21.2084 23.5472 21.2084 23.4367V20.8375H19.6534V23.4367C19.6534 23.5472 19.6095 23.6532 19.5314 23.7313C19.4532 23.8095 19.3472 23.8534 19.2367 23.8534C19.1262 23.8534 19.0202 23.8095 18.9421 23.7313C18.864 23.6532 18.8201 23.5472 18.8201 23.4367V20.8334H17.2651V23.4334C17.2651 23.5439 17.2212 23.6499 17.143 23.728C17.0649 23.8061 16.9589 23.85 16.8484 23.85C16.7379 23.85 16.6319 23.8061 16.5538 23.728C16.4756 23.6499 16.4317 23.5439 16.4317 23.4334V20.8334H14.8767V23.4334C14.8767 23.5439 14.8328 23.6499 14.7547 23.728C14.6766 23.8061 14.5706 23.85 14.4601 23.85C14.3496 23.85 14.2436 23.8061 14.1654 23.728C14.0873 23.6499 14.0434 23.5439 14.0434 23.4334V20.8334H12.4867V23.4334C12.4867 23.5439 12.4428 23.6499 12.3647 23.728C12.2866 23.8061 12.1806 23.85 12.0701 23.85C11.9596 23.85 11.8536 23.8061 11.7754 23.728C11.6973 23.6499 11.6534 23.5439 11.6534 23.4334V20.8334H10.0984V23.4342C10.0984 23.5447 10.0545 23.6507 9.97636 23.7288C9.89822 23.807 9.79224 23.8509 9.68173 23.8509C9.57122 23.8509 9.46524 23.807 9.3871 23.7288C9.30896 23.6507 9.26506 23.5447 9.26506 23.4342V20.8334H7.71006V23.4342C7.71006 23.5447 7.66617 23.6507 7.58803 23.7288C7.50988 23.807 7.4039 23.8509 7.2934 23.8509C7.18289 23.8509 7.07691 23.807 6.99877 23.7288C6.92063 23.6507 6.87673 23.5447 6.87673 23.4342V20.8334H4.3334C3.14113 21.0511 2.06397 21.6826 1.29173 22.6167C0.910915 23.0557 0.681087 23.6053 0.636081 24.1847C0.591076 24.764 0.73327 25.3425 1.04173 25.835C1.40378 26.2356 1.85285 26.5479 2.35442 26.7478C2.85599 26.9477 3.39672 27.03 3.93506 26.9884C5.01037 26.8977 6.09106 26.8899 7.16756 26.965C7.63041 27.0218 8.06956 27.2016 8.43923 27.4859C9.24006 28.1575 9.32006 29.3859 10.0317 30.1525C10.9151 31.1 12.4867 31.0184 13.6584 30.4584C14.8301 29.8984 15.7809 28.9659 16.9084 28.325C18.732 27.3967 20.782 27.0062 22.8192 27.1992C24.8509 27.31 26.8492 27.74 28.8684 27.9792C30.8351 28.2116 32.8191 28.2618 34.7951 28.1292C36.4934 28.015 37.5692 27.6875 38.5451 26.5834C39.014 25.9562 39.296 25.2091 39.3583 24.4284C39.4207 23.6478 39.261 22.8654 38.8976 22.1717Z" fill="#2E41F4"/>
<path d="M26.3383 31.7275C26.2589 32.0504 26.2916 32.3906 26.4311 32.6924C26.5706 32.9942 26.8085 33.2396 27.1058 33.3883C27.4274 33.5096 27.7636 33.5875 28.1058 33.62C28.5253 33.6599 28.9177 33.8447 29.2158 34.1425C29.5041 34.4817 29.56 34.9692 29.83 35.3233C30.1691 35.6941 30.6378 35.9203 31.1391 35.955C31.5401 36.041 31.9551 36.0369 32.3542 35.9431C32.7534 35.8493 33.1268 35.6681 33.4475 35.4125C33.8207 34.9858 34.0297 34.44 34.0369 33.8731C34.044 33.3062 33.849 32.7552 33.4866 32.3192C32.7269 31.4656 31.686 30.9132 30.5533 30.7625C29.3841 30.535 26.7808 30.1142 26.3383 31.7275Z" fill="#2E41F4"/>
<path d="M21.7501 29.455C21.49 29.455 21.2357 29.5321 21.0195 29.6766C20.8032 29.8211 20.6347 30.0264 20.5352 30.2667C20.4356 30.507 20.4096 30.7714 20.4603 31.0265C20.5111 31.2816 20.6363 31.5159 20.8202 31.6998C21.0041 31.8837 21.2384 32.0089 21.4935 32.0597C21.7486 32.1104 22.013 32.0844 22.2533 31.9849C22.4936 31.8853 22.6989 31.7168 22.8434 31.5005C22.9879 31.2843 23.0651 31.03 23.0651 30.77C23.0651 30.4212 22.9265 30.0867 22.6799 29.8401C22.4333 29.5935 22.0988 29.455 21.7501 29.455Z" fill="#2E41F4"/>
</svg>
