<svg width="40" height="40" viewBox="0 0 40 40" fill="none" xmlns="http://www.w3.org/2000/svg">
<g clip-path="url(#clip0_13_4082)">
<path fill-rule="evenodd" clip-rule="evenodd" d="M39.8167 24.2423C39.9439 23.7679 39.8655 23.2855 39.6359 22.8887C39.4071 22.4919 39.0279 22.1823 38.5535 22.0559L28.4383 19.3455L26.8887 18.9303C26.4143 18.8031 25.9319 18.8815 25.5351 19.1111C25.1383 19.3399 24.8287 19.7191 24.7023 20.1935L20.8343 34.6279C20.7071 35.1015 20.7855 35.5847 21.0151 35.9815C21.2439 36.3783 21.6231 36.6879 22.0975 36.8143L33.7623 39.9399H33.7639H33.7647C34.2383 40.0663 34.7199 39.9871 35.1159 39.7591C35.5127 39.5303 35.8223 39.1511 35.9495 38.6767C37.2015 34.0039 38.4815 29.2263 39.8167 24.2423ZM23.5311 5.32706C24.6775 7.37746 25.2287 10.1927 25.1855 13.7719C24.7015 13.7679 23.9871 13.7615 22.9823 13.7543C23.2063 12.8887 23.3287 11.9431 23.3287 10.9207C23.3287 10.4415 23.3255 10.7975 23.3263 10.6895C23.3287 10.4263 23.3295 10.3263 23.2951 10.0119C23.2951 9.99506 23.2943 9.97826 23.2935 9.96146C23.2655 9.48066 22.8527 9.11426 22.3719 9.14226C20.0655 9.28467 18.2383 9.10627 16.8895 8.60627C15.6679 8.15347 14.8599 7.43107 14.4647 6.44067C14.2879 5.99427 13.7815 5.77587 13.3351 5.95267C12.6023 6.24307 12.1551 7.87266 10.3999 8.58226C9.48871 8.95026 8.45751 8.95586 7.30551 8.59906C6.84551 8.45747 6.35831 8.71587 6.21671 9.17586C6.19751 9.23666 6.18631 9.29906 6.18071 9.35987L6.17671 9.38227C6.12951 9.68707 6.10471 9.91586 6.09271 10.1495C6.07831 10.4199 6.07751 10.6343 6.07751 10.9199C6.07751 11.9175 6.21031 12.8895 6.46951 13.8079C6.32391 13.8111 6.16791 13.8127 5.99911 13.8135C5.57831 13.8151 5.06711 13.8095 4.42311 13.7967C4.30471 9.36707 5.02231 6.10467 6.57511 4.01027C11.2839 -1.77933 20.0023 -1.26654 23.5311 5.32706ZM27.8759 21.0583L36.7623 23.4399C37.0767 23.5239 37.3279 23.7295 37.4799 23.9919C37.6311 24.2543 37.6831 24.5743 37.5991 24.8887L37.1879 26.4231C37.1039 26.7375 36.8983 26.9887 36.6359 27.1407C36.3735 27.2919 36.0535 27.3439 35.7391 27.2599L26.8519 24.8783C26.5375 24.7943 26.2863 24.5887 26.1343 24.3263C25.9831 24.0639 25.9311 23.7439 26.0151 23.4295L26.4263 21.8951C26.5103 21.5807 26.7159 21.3295 26.9783 21.1775C27.2407 21.0263 27.5615 20.9743 27.8759 21.0583ZM26.5199 26.1031C26.9159 26.2095 27.2319 26.4663 27.4223 26.7951C27.6127 27.1247 27.6767 27.5263 27.5711 27.9223C27.4647 28.3183 27.2079 28.6343 26.8791 28.8247C26.5495 29.0151 26.1479 29.0791 25.7519 28.9735C25.3559 28.8671 25.0399 28.6103 24.8495 28.2807C24.6591 27.9511 24.5951 27.5495 24.7007 27.1535C24.8071 26.7575 25.0639 26.4415 25.3935 26.2511C25.7223 26.0615 26.1239 25.9967 26.5199 26.1031ZM35.2407 34.3663L34.4391 37.3591C34.3327 37.7551 34.0759 38.0711 33.7471 38.2615C33.4175 38.4519 33.0159 38.5159 32.6199 38.4103C32.2239 38.3039 31.9079 38.0471 31.7175 37.7183C31.5271 37.3887 31.4631 36.9871 31.5687 36.5911L32.3703 33.5983C32.4767 33.2023 32.7335 32.8863 33.0623 32.6959C33.3919 32.5055 33.7935 32.4415 34.1895 32.5471C34.5855 32.6535 34.9015 32.9103 35.0919 33.2391C35.2823 33.5679 35.3471 33.9695 35.2407 34.3663ZM29.0047 34.3639C29.4007 34.4703 29.7167 34.7271 29.9071 35.0567C30.0975 35.3863 30.1615 35.7879 30.0559 36.1847C29.9495 36.5807 29.6927 36.8967 29.3639 37.0871C29.0343 37.2775 28.6327 37.3415 28.2367 37.2359C27.8407 37.1295 27.5247 36.8727 27.3343 36.5439C27.1439 36.2143 27.0799 35.8127 27.1855 35.4167C27.2919 35.0207 27.5487 34.7047 27.8775 34.5143C28.2063 34.3223 28.6087 34.2575 29.0047 34.3639ZM24.6215 33.1895C25.0175 33.2959 25.3335 33.5527 25.5239 33.8815C25.7143 34.2111 25.7783 34.6127 25.6727 35.0095C25.5663 35.4055 25.3095 35.7215 24.9799 35.9119C24.6503 36.1023 24.2487 36.1663 23.8527 36.0607C23.4567 35.9543 23.1407 35.6975 22.9503 35.3687C22.7599 35.0391 22.6959 34.6375 22.8015 34.2415C22.9079 33.8455 23.1647 33.5295 23.4935 33.3391C23.8231 33.1479 24.2247 33.0831 24.6215 33.1895ZM29.9543 30.8207C30.3503 30.9271 30.6663 31.1839 30.8567 31.5127C31.0471 31.8423 31.1111 32.2439 31.0055 32.6407C30.8991 33.0367 30.6423 33.3527 30.3135 33.5431C29.9839 33.7335 29.5823 33.7975 29.1855 33.6919C28.7895 33.5855 28.4735 33.3287 28.2831 32.9999C28.0927 32.6703 28.0287 32.2687 28.1343 31.8727C28.2407 31.4767 28.4975 31.1607 28.8263 30.9703C29.1559 30.7791 29.5575 30.7151 29.9543 30.8207ZM25.5711 29.6463C25.9671 29.7527 26.2831 30.0095 26.4735 30.3383C26.6639 30.6679 26.7279 31.0695 26.6223 31.4655C26.5159 31.8615 26.2591 32.1775 25.9303 32.3679C25.6007 32.5583 25.1991 32.6223 24.8031 32.5167C24.4071 32.4103 24.0911 32.1535 23.9007 31.8247C23.7103 31.4951 23.6463 31.0935 23.7519 30.6975C23.8583 30.3015 24.1151 29.9855 24.4439 29.7951C24.7727 29.6047 25.1743 29.5399 25.5711 29.6463ZM35.2871 28.4527C35.6831 28.5591 35.9991 28.8159 36.1895 29.1447C36.3799 29.4743 36.4439 29.8759 36.3383 30.2727C36.2319 30.6687 35.9751 30.9847 35.6463 31.1751C35.3167 31.3655 34.9151 31.4295 34.5191 31.3239C34.1231 31.2183 33.8071 30.9607 33.6167 30.6311C33.4263 30.3015 33.3623 29.8999 33.4679 29.5039C33.5743 29.1079 33.8311 28.7919 34.1607 28.6015C34.4887 28.4103 34.8903 28.3463 35.2871 28.4527ZM30.9031 27.2775C31.2991 27.3839 31.6151 27.6407 31.8055 27.9695C31.9959 28.2991 32.0599 28.7007 31.9543 29.0967C31.8479 29.4927 31.5911 29.8087 31.2623 29.9991C30.9327 30.1895 30.5311 30.2535 30.1351 30.1479C29.7391 30.0415 29.4231 29.7847 29.2327 29.4559C29.0423 29.1263 28.9783 28.7247 29.0839 28.3287C29.1903 27.9327 29.4471 27.6167 29.7759 27.4263C30.1055 27.2359 30.5071 27.1719 30.9031 27.2775ZM19.4791 34.9671C19.4791 35.5559 19.4791 36.1439 19.4791 36.7327C19.4791 37.4231 18.9159 37.9863 18.2255 37.9863H8.17111C2.67751 37.9863 0.122314 36.7279 0.122314 30.9607C0.122314 28.0623 1.30871 25.4271 3.21911 23.5159C5.13031 21.6047 7.76551 20.4191 10.6639 20.4191C14.7575 20.4191 19.0559 20.2759 23.1319 20.4367L20.0687 32.5263H7.61031V28.4927C7.61031 28.1303 7.31591 27.8359 6.95351 27.8359C6.59111 27.8359 6.29671 28.1303 6.29671 28.4927V33.7119C10.2727 33.7119 14.2495 33.7119 18.2255 33.7119C18.9159 33.7135 19.4791 34.2767 19.4791 34.9671ZM7.82711 10.5143C7.82551 10.6287 7.82551 10.7631 7.82551 10.9207C7.82551 12.6431 8.29031 14.2615 9.17671 15.5591C10.0055 16.7719 11.2087 17.7119 12.7503 18.1967L12.7495 18.1983C13.3671 18.3759 14.0151 18.4655 14.6711 18.4687H14.7207C16.1151 18.4647 17.5039 18.0559 18.6607 17.2415C19.8215 16.4239 20.7551 15.1935 21.2311 13.5495C21.4551 12.7767 21.5791 11.9023 21.5791 10.9247C19.4327 10.9863 17.6663 10.7599 16.2807 10.2455C15.1095 9.81107 14.2023 9.17587 13.5583 8.34066C12.8047 9.20947 11.9679 9.82946 11.0479 10.2015C10.0511 10.6039 8.97751 10.7087 7.82711 10.5143Z" fill="#2E41F4"/>
</g>
<defs>
<clipPath id="clip0_13_4082">
<rect width="40" height="40" fill="white"/>
</clipPath>
</defs>
</svg>
