<svg width="40" height="40" viewBox="0 0 40 40" fill="none" xmlns="http://www.w3.org/2000/svg">
<path fill-rule="evenodd" clip-rule="evenodd" d="M14.1202 6.08395C14.1202 2.83995 16.7602 0.199951 20.0002 0.199951C23.2402 0.199951 25.8842 2.83995 25.8842 6.08395C25.8842 9.32395 23.2442 11.964 20.0002 11.964C16.7602 11.964 14.1202 9.31995 14.1202 6.08395ZM34.4602 30.192C32.8122 20.984 26.9642 14.176 20.0002 14.176C13.0402 14.176 7.18824 20.98 5.54024 30.188C5.29624 31.544 5.63624 32.812 6.51624 33.868C6.97624 34.416 7.51624 34.828 8.12024 35.1V25.436C8.12024 24.236 9.10424 23.252 10.3042 23.252H30.3642C31.5642 23.252 32.5482 24.236 32.5482 25.436V34.7239C32.8842 34.492 33.2002 34.208 33.4802 33.868C34.3682 32.812 34.7042 31.548 34.4602 30.192ZM30.3642 24.528H10.3082C9.81224 24.528 9.40424 24.936 9.40424 25.436V38.892C9.40424 39.392 9.81224 39.796 10.3082 39.796H30.3682C30.8642 39.796 31.2722 39.392 31.2722 38.892V25.436C31.2722 24.936 30.8642 24.528 30.3642 24.528Z" fill="#2E41F4"/>
</svg>
