<svg width="40" height="40" viewBox="0 0 40 40" fill="none" xmlns="http://www.w3.org/2000/svg">
<path d="M14.8006 29.603C14.4419 29.8209 14.0688 30.014 13.6838 30.179L9.48648 31.9778C7.56969 32.7993 6.29109 34.6152 6.14648 36.6732H10.0391V34.7201C10.0391 34.5043 10.214 34.3294 10.4298 34.3294C10.6455 34.3294 10.8204 34.5043 10.8204 34.7201V36.6732H17.8516V31.9121C17.1978 31.7433 15.7551 31.2029 14.8006 29.603Z" fill="#2E41F4"/>
<path d="M20.9766 9.96749C20.9766 8.30834 20.9766 3.81217 20.9766 3.32678H19.0235C14.931 3.32678 11.6016 6.65623 11.6016 10.7487V16.2939L11.954 16.0737C15.1577 14.0713 17.0704 10.6204 17.0704 6.84241C17.0704 6.6267 17.2452 6.45178 17.461 6.45178C17.6767 6.45178 17.8516 6.6267 17.8516 6.84241C17.8516 8.81624 17.3458 10.7719 16.3891 12.4983C15.4322 14.2247 14.0418 15.6901 12.368 16.7362L11.6016 17.2152V19.7255C16.806 19.5197 20.9766 15.2215 20.9766 9.96749Z" fill="#2E41F4"/>
<path d="M14.0581 20.1235C14.7235 23.628 18.2634 25.9375 21.808 24.9898C21.8158 24.9871 21.8433 24.9709 21.9112 24.9604C24.5255 24.2128 26.4454 21.803 26.4454 18.9518V12.2325C24.3768 11.499 22.6873 9.958 21.7579 7.99011V9.96746C21.758 14.7968 18.4951 18.8782 14.0581 20.1235ZM22.9299 16.608H24.4924C24.7081 16.608 24.883 16.7829 24.883 16.9986C24.883 17.2143 24.7081 17.3893 24.4924 17.3893H22.9299C22.7141 17.3893 22.5393 17.2143 22.5393 16.9986C22.5393 16.7829 22.7141 16.608 22.9299 16.608ZM18.8446 21.41C18.9972 21.2575 19.2444 21.2575 19.397 21.41C19.854 21.8669 20.5974 21.8669 21.0544 21.41C21.2069 21.2575 21.4542 21.2575 21.6068 21.41C21.7594 21.5625 21.7594 21.8099 21.6068 21.9624C21.226 22.3432 20.7259 22.5336 20.2257 22.5336C19.7255 22.5336 19.2253 22.3432 18.8445 21.9624C18.6921 21.8099 18.6921 21.5625 18.8446 21.41Z" fill="#2E41F4"/>
<path d="M6.91406 23.7826C6.91406 23.1364 6.38836 22.6107 5.74219 22.6107C5.09602 22.6107 4.57031 23.1364 4.57031 23.7826C4.57031 24.4288 5.09602 24.9545 5.74219 24.9545C6.38836 24.9545 6.91406 24.4288 6.91406 23.7826Z" fill="#2E41F4"/>
<path d="M28.7891 11.9104V10.7486C28.7891 6.7873 25.6691 3.5409 21.7578 3.33691V4.49871C21.7578 8.45996 24.8777 11.7064 28.7891 11.9104Z" fill="#2E41F4"/>
<path d="M18.3484 25.7339C18.0931 26.2494 17.79 26.7396 17.4458 27.1982C18.2617 27.646 20.3561 28.5151 22.639 27.2426C22.3043 26.7951 22.0091 26.3156 21.7581 25.8078C20.6622 26.0575 19.4911 26.0471 18.3484 25.7339Z" fill="#2E41F4"/>
<path d="M24.8134 29.3236C24.1964 28.9032 23.6358 28.4098 23.1406 27.8552C21.7645 28.6596 20.2381 28.8731 18.7178 28.5099C17.9163 28.3184 17.2944 28.0107 16.9458 27.8107C16.4967 28.3157 15.9949 28.7718 15.4517 29.1683C16.4891 30.9397 18.2169 31.1975 18.2938 31.2079C18.4873 31.2344 18.6328 31.3999 18.6328 31.5951V36.6732H21.7578V31.5951C21.7578 31.3912 21.9147 31.2216 22.1179 31.2057C22.1948 31.1992 23.9458 31.0292 24.8134 29.3236Z" fill="#2E41F4"/>
<path d="M34.6484 15.5795C33.5715 15.5795 32.6953 16.4556 32.6953 17.5326C32.6953 18.6095 33.5715 19.4857 34.6484 19.4857C35.7254 19.4857 36.6016 18.6095 36.6016 17.5326C36.6016 16.4556 35.7254 15.5795 34.6484 15.5795Z" fill="#2E41F4"/>
<path d="M30.5693 31.9778L26.3719 30.179C26.0648 30.0474 25.7681 29.8983 25.4801 29.7362C24.6545 31.3073 23.2112 31.7868 22.5391 31.9281V36.6732H29.5703V34.7201C29.5703 34.5043 29.7452 34.3295 29.9609 34.3295C30.1766 34.3295 30.3516 34.5043 30.3516 34.7201V36.6732H33.9092C33.7647 34.6153 32.486 32.7993 30.5693 31.9778Z" fill="#2E41F4"/>
<path d="M4.17969 30.0326C4.61116 30.0326 4.96094 29.6828 4.96094 29.2513C4.96094 28.8199 4.61116 28.4701 4.17969 28.4701C3.74822 28.4701 3.39844 28.8199 3.39844 29.2513C3.39844 29.6828 3.74822 30.0326 4.17969 30.0326Z" fill="#2E41F4"/>
<path d="M7.30469 15.9701C7.73616 15.9701 8.08594 15.6203 8.08594 15.1888C8.08594 14.7574 7.73616 14.4076 7.30469 14.4076C6.87322 14.4076 6.52344 14.7574 6.52344 15.1888C6.52344 15.6203 6.87322 15.9701 7.30469 15.9701Z" fill="#2E41F4"/>
<path d="M5.74219 5.81384C6.17366 5.81384 6.52344 5.46407 6.52344 5.03259C6.52344 4.60112 6.17366 4.25134 5.74219 4.25134C5.31072 4.25134 4.96094 4.60112 4.96094 5.03259C4.96094 5.46407 5.31072 5.81384 5.74219 5.81384Z" fill="#2E41F4"/>
<path d="M33.0859 6.59509C33.5174 6.59509 33.8672 6.24532 33.8672 5.81384C33.8672 5.38237 33.5174 5.03259 33.0859 5.03259C32.6545 5.03259 32.3047 5.38237 32.3047 5.81384C32.3047 6.24532 32.6545 6.59509 33.0859 6.59509Z" fill="#2E41F4"/>
<path d="M32.3047 26.1263C32.7362 26.1263 33.0859 25.7766 33.0859 25.3451C33.0859 24.9136 32.7362 24.5638 32.3047 24.5638C31.8732 24.5638 31.5234 24.9136 31.5234 25.3451C31.5234 25.7766 31.8732 26.1263 32.3047 26.1263Z" fill="#2E41F4"/>
</svg>
