<svg width="40" height="40" viewBox="0 0 40 40" fill="none" xmlns="http://www.w3.org/2000/svg">
<path d="M27.1272 20.7225C26.909 20.5732 26.6545 20.6105 26.4726 20.7599C24.6545 22.1413 22.4363 22.9254 19.9999 22.9254C17.5636 22.9254 15.3454 22.104 13.5272 20.7599C13.3454 20.6105 13.0545 20.6105 12.8726 20.7225C8.58173 23.5602 6.43628 29.1235 6.43628 35.5082C6.43628 39.9141 33.5636 39.9141 33.5636 35.5082C33.5636 29.1235 31.4181 23.5602 27.1272 20.7225Z" fill="#2E41F4"/>
<path d="M20 20.0131C24.4785 20.0131 28.1091 16.2853 28.1091 11.6868C28.1091 7.08828 24.4785 3.36047 20 3.36047C15.5214 3.36047 11.8909 7.08828 11.8909 11.6868C11.8909 16.2853 15.5214 20.0131 20 20.0131Z" fill="#2E41F4"/>
</svg>
