<svg width="40" height="40" viewBox="0 0 40 40" fill="none" xmlns="http://www.w3.org/2000/svg">
<path fill-rule="evenodd" clip-rule="evenodd" d="M33.9296 9.66966C34.33 11.5247 33.8082 13.5391 32.3631 14.9808C30.6724 16.668 28.1964 17.0941 26.109 16.2594L16.0292 26.3189C16.8656 28.4021 16.4391 30.8736 14.7475 32.5608C13.3029 34.0026 11.2849 34.5234 9.42566 34.1237L12.2077 31.3477C13.2982 30.259 13.2982 28.4779 12.2077 27.3892L11.7369 26.9198C10.6464 25.8311 8.86179 25.8311 7.77041 26.9198L4.9893 29.6958C4.58882 27.8407 5.11067 25.8269 6.55529 24.3847C8.24597 22.6969 10.7225 22.2709 12.8094 23.106L22.8897 13.0465C22.0533 10.9634 22.4797 8.49188 24.1704 6.80414C25.6155 5.3629 27.6335 4.84164 29.4927 5.2413L26.7111 8.01775C25.6202 9.10646 25.6202 10.887 26.7111 11.9757L27.1815 12.4452C28.2724 13.5343 30.0575 13.5343 31.148 12.4452L33.9296 9.66966ZM23.939 21.9405C25.0044 21.0106 26.6384 21.0512 27.6533 22.064L34.3314 28.7282C35.3898 29.7839 35.3898 31.5117 34.3314 32.5674L32.8958 34.0002C31.8375 35.0559 30.1062 35.0559 29.0483 34.0002L22.3706 27.336C21.3558 26.3232 21.3152 24.6924 22.2469 23.6297L21.3539 22.7384L23.0464 21.0497L23.939 21.9405ZM18.0897 16.1029L11.9182 9.94396L11.3714 8.32739L7.82377 5.85494C7.25895 6.41862 6.69367 6.98229 6.12885 7.54644L8.6063 11.0869L10.2257 11.6326L16.3971 17.7916L18.0897 16.1029Z" fill="#2E41F4"/>
</svg>
