<svg width="40" height="40" viewBox="0 0 40 40" fill="none" xmlns="http://www.w3.org/2000/svg">
    <path
        d="M19.9999 23.5601C19.0399 23.5601 18.0799 23.4401 17.1599 23.1601L7.3999 20.2801V25.6001C7.3999 26.7601 8.15989 27.7601 9.23989 28.0801L13.3199 29.2801C17.7599 30.6001 22.5199 30.6001 26.9599 29.2801L31.0399 28.0801C32.1199 27.7601 32.8799 26.7601 32.8799 25.6001V20.2001L22.8799 23.1601C21.9199 23.4401 20.9599 23.5601 19.9999 23.5601Z"
        fill="white" />
    <path
        d="M38.1998 14.8L22.4398 10.12C20.8798 9.64001 19.1998 9.64001 17.5998 10.12L1.83979 14.8C0.759785 15.12 0.759785 16.68 1.83979 17L17.5998 21.68C19.1598 22.16 20.8398 22.16 22.4398 21.68L36.2398 17.6V24.88C35.9598 25 35.7198 25.28 35.7198 25.6V26.2C35.7198 26.56 35.9598 26.84 36.2398 26.92L35.3198 29.04C35.2398 29.28 35.3598 29.52 35.5998 29.56L36.3598 29.64C36.5198 29.64 36.6798 29.64 36.8398 29.64L37.5998 29.56C37.8398 29.52 37.9998 29.28 37.8798 29.04L36.9598 26.92C37.2798 26.8 37.4798 26.52 37.4798 26.2V25.6C37.4798 25.28 37.2798 25 36.9598 24.88V17.36L38.1598 17C39.2798 16.68 39.2798 15.12 38.1998 14.8Z"
        fill="white" />
</svg>