<svg width="40" height="40" viewBox="0 0 40 40" fill="none" xmlns="http://www.w3.org/2000/svg">
<path d="M11.1668 20.4067C13.8401 19.8334 16.4601 19.0201 18.9801 17.9734L19.0468 18.1934C19.3601 19.1801 20.4134 19.7334 21.4068 19.4267L24.0201 18.6201C24.5001 18.4667 24.8934 18.1401 25.1268 17.6934C25.3601 17.2534 25.4068 16.7401 25.2601 16.2601L23.6534 11.0934C23.5068 10.6134 23.1801 10.2201 22.7334 9.98006C22.4601 9.84006 22.1668 9.76672 21.8668 9.76672C21.6801 9.76672 21.4868 9.79339 21.3001 9.85339L18.6801 10.6667C17.6934 10.9734 17.1334 12.0267 17.4401 13.0201L17.5134 13.2334C14.8401 13.8067 12.2201 14.6201 9.69343 15.6667L9.62676 15.4467C9.48009 14.9667 9.15343 14.5734 8.70676 14.3401C8.2601 14.1067 7.75343 14.0601 7.27343 14.2067L4.65343 15.0201C3.66676 15.3334 3.10676 16.3867 3.4201 17.3801L5.02676 22.5467C5.17343 23.0267 5.50009 23.4201 5.94676 23.6534C6.22009 23.8001 6.52009 23.8734 6.82009 23.8734C7.00676 23.8734 7.19343 23.8467 7.3801 23.7867L9.99343 22.9734C10.4734 22.8267 10.8668 22.5001 11.1068 22.0534C11.3401 21.6067 11.3868 21.1001 11.2334 20.6201L11.1668 20.4067Z" fill="#2E41F4"/>
<path d="M36.6667 22.9334V28.3468C36.6667 29.3868 35.8201 30.2268 34.7867 30.2268H32.0467C31.0067 30.2268 30.1601 29.3868 30.1601 28.3468V28.1201C27.4467 28.3668 24.7001 28.3668 21.9801 28.1201V28.3468C21.9801 29.3868 21.1334 30.2268 20.1001 30.2268H17.3601C16.3201 30.2268 15.4734 29.3868 15.4734 28.3468V22.9334C15.4734 21.8934 16.3201 21.0468 17.3601 21.0468H20.1001C21.1334 21.0468 21.9801 21.8934 21.9801 22.9334V23.1601C24.7001 22.9068 27.4467 22.9068 30.1601 23.1601V22.9334C30.1601 21.8934 31.0067 21.0468 32.0467 21.0468H34.7867C35.8201 21.0468 36.6667 21.9001 36.6667 22.9334Z" fill="#2E41F4"/>
</svg>
