<svg width="40" height="40" viewBox="0 0 40 40" fill="none" xmlns="http://www.w3.org/2000/svg">
<path d="M29.5322 19.444L29.5682 19.388C28.8266 19.2809 28.092 19.13 27.3682 18.936C24.9143 18.3087 22.6336 17.1356 20.6962 15.504L18.5642 18.872L10.5642 19.06C9.1419 18.6425 7.86936 17.8254 6.89791 16.7057C5.92646 15.5861 5.29696 14.211 5.08424 12.744C4.61051 14.3684 4.69511 16.1048 5.32453 17.6754C5.95395 19.2461 7.09183 20.5603 8.55624 21.408C8.55624 21.408 8.58424 26.724 8.62024 26.856L6.16824 31.104C5.94414 31.4961 5.88482 31.961 6.00333 32.3968C6.12183 32.8326 6.40845 33.2035 6.80024 33.428C7.19108 33.6499 7.65375 33.7084 8.08753 33.5908C8.5213 33.4732 8.89104 33.189 9.11624 32.8L10.1362 31.032L10.3002 32.208C10.3637 32.655 10.6019 33.0586 10.9627 33.3301C11.3234 33.6016 11.7771 33.7188 12.2242 33.656C12.6712 33.5926 13.0748 33.3543 13.3463 32.9936C13.6178 32.6329 13.735 32.1791 13.6722 31.732L13.1642 28.104L19.8682 27.912L18.0402 31.076C17.8155 31.4671 17.7549 31.9313 17.8719 32.367C17.9889 32.8026 18.2738 33.1741 18.6642 33.4C19.0531 33.6293 19.5171 33.695 19.9544 33.5825C20.3916 33.47 20.7663 33.1886 20.9962 32.8L23.5002 28.464L24.0362 32.304C24.0997 32.751 24.3379 33.1546 24.6987 33.4261C25.0594 33.6976 25.5131 33.8148 25.9602 33.752C26.4072 33.6886 26.8108 33.4503 27.0823 33.0896C27.3538 32.7289 27.471 32.2751 27.4082 31.828L26.7042 26.8C26.9162 26.588 29.5322 19.444 29.5322 19.444Z" fill="#2E41F4"/>
<path d="M27.5161 18.3999C28.3048 18.611 29.1065 18.77 29.9161 18.8759L30.2801 18.2999L32.1801 18.3839C32.4498 18.444 32.7304 18.4332 32.9947 18.3526C33.2589 18.272 33.4978 18.1243 33.6881 17.9239L35.0361 14.5319C35.6521 13.8039 35.0841 12.7399 33.9761 12.5319L28.8001 9.87995L29.5361 6.77595C29.1446 6.72448 28.7465 6.77854 28.3829 6.93256C28.0193 7.08657 27.7035 7.33493 27.4681 7.65194L27.9281 5.71194C26.2161 5.35994 24.3801 6.99994 23.8041 9.42794C23.8041 9.47994 23.8041 9.53194 23.7761 9.58394L20.9761 15.0039C22.8683 16.6203 25.1054 17.782 27.5161 18.3999ZM27.8081 11.6759C27.9457 11.6759 28.0803 11.7168 28.1948 11.7932C28.3092 11.8697 28.3984 11.9784 28.4511 12.1056C28.5038 12.2328 28.5176 12.3727 28.4907 12.5077C28.4638 12.6427 28.3976 12.7668 28.3002 12.8641C28.2029 12.9614 28.0789 13.0277 27.9439 13.0546C27.8088 13.0814 27.6689 13.0676 27.5417 13.015C27.4146 12.9623 27.3058 12.8731 27.2294 12.7586C27.1529 12.6442 27.1121 12.5096 27.1121 12.3719C27.1099 12.2792 27.1264 12.187 27.1604 12.1007C27.1944 12.0144 27.2453 11.9358 27.3102 11.8694C27.375 11.8031 27.4525 11.7504 27.538 11.7144C27.6235 11.6784 27.7153 11.6599 27.8081 11.6599V11.6759Z" fill="#2E41F4"/>
</svg>
