<svg width="801" height="596" viewBox="0 0 801 596" fill="none" xmlns="http://www.w3.org/2000/svg">
<g clip-path="url(#clip0_54_23106)">
<path d="M801 523.699H0V524.179H801V523.699Z" fill="#EBEBEB"/>
<path d="M720.741 549.452H667.715V549.932H720.741V549.452Z" fill="#EBEBEB"/>
<path d="M530.582 553.931H516.645V554.411H530.582V553.931Z" fill="#EBEBEB"/>
<path d="M666.11 534.736H635.352V535.216H666.11V534.736Z" fill="#EBEBEB"/>
<path d="M153.312 537.296H84.1055V537.776H153.312V537.296Z" fill="#EBEBEB"/>
<path d="M177.663 537.296H167.57V537.776H177.663V537.296Z" fill="#EBEBEB"/>
<path d="M360.771 544.174H210.664V544.654H360.771V544.174Z" fill="#EBEBEB"/>
<path d="M379.673 452.359H70.3267C65.3605 452.359 61.1953 448.2 61.1953 443.241V9.11755C61.1953 4.15888 65.3605 0 70.3267 0H379.673C384.639 0 388.804 4.15888 388.804 9.11755V443.241C388.804 448.36 384.799 452.359 379.673 452.359ZM70.3267 0.479871C65.5207 0.479871 61.5157 4.31884 61.5157 9.27751V443.401C61.5157 448.2 65.3605 452.199 70.3267 452.199H379.673C384.479 452.199 388.484 448.36 388.484 443.401V9.11755C388.484 4.31884 384.639 0.319914 379.673 0.319914H70.3267V0.479871Z" fill="#EBEBEB"/>
<path d="M726.189 452.359H416.842C411.876 452.359 407.711 448.2 407.711 443.241V9.11755C407.711 4.15888 411.876 0 416.842 0H726.189C731.155 0 735.32 4.15888 735.32 9.11755V443.241C735.32 448.36 731.315 452.359 726.189 452.359ZM416.842 0.479871C412.036 0.479871 408.031 4.31884 408.031 9.27751V443.401C408.031 448.2 411.876 452.199 416.842 452.199H726.189C730.995 452.199 735 448.36 735 443.401V9.11755C735 4.31884 731.155 0.319914 726.189 0.319914H416.842V0.479871Z" fill="#EBEBEB"/>
<path d="M575.119 292.082H539.395V307.278H575.119V292.082Z" fill="#FAFAFA"/>
<path d="M531.865 292.082H496.141V307.278H531.865V292.082Z" fill="#FAFAFA"/>
<path d="M488.611 292.082H452.887V307.278H488.611V292.082Z" fill="#FAFAFA"/>
<path d="M596.744 313.196H561.02V328.392H596.744V313.196Z" fill="#FAFAFA"/>
<path d="M553.49 313.196H517.766V328.392H553.49V313.196Z" fill="#FAFAFA"/>
<path d="M510.236 313.196H474.512V328.392H510.236V313.196Z" fill="#FAFAFA"/>
<path d="M467.143 313.196H431.418V328.392H467.143V313.196Z" fill="#FAFAFA"/>
<path d="M666.432 334.31H630.707V349.506H666.432V334.31Z" fill="#FAFAFA"/>
<path d="M623.178 334.31H587.453V349.506H623.178V334.31Z" fill="#FAFAFA"/>
<path d="M531.865 334.31H496.141V349.506H531.865V334.31Z" fill="#FAFAFA"/>
<path d="M488.611 334.31H452.887V349.506H488.611V334.31Z" fill="#FAFAFA"/>
<path d="M445.518 334.31H409.793V349.506H445.518V334.31Z" fill="#FAFAFA"/>
<path d="M644.807 355.425H609.082V370.621H644.807V355.425Z" fill="#FAFAFA"/>
<path d="M553.49 355.425H517.766V370.621H553.49V355.425Z" fill="#FAFAFA"/>
<path d="M510.236 355.425H474.512V370.621H510.236V355.425Z" fill="#FAFAFA"/>
<path d="M467.143 355.425H431.418V370.621H467.143V355.425Z" fill="#FAFAFA"/>
<path d="M298.455 76.7794H262.73V91.9753H298.455V76.7794Z" fill="#FAFAFA"/>
<path d="M255.201 76.7794H219.477V91.9753H255.201V76.7794Z" fill="#FAFAFA"/>
<path d="M320.08 97.8937H284.355V113.09H320.08V97.8937Z" fill="#FAFAFA"/>
<path d="M276.826 97.8937H241.102V113.09H276.826V97.8937Z" fill="#FAFAFA"/>
<path d="M190.479 97.8937H154.754V113.09H190.479V97.8937Z" fill="#FAFAFA"/>
<path d="M147.225 97.8937H111.5V113.09H147.225V97.8937Z" fill="#FAFAFA"/>
<path d="M255.201 119.008H219.477V134.204H255.201V119.008Z" fill="#FAFAFA"/>
<path d="M648.65 200.426H612.926V215.622H648.65V200.426Z" fill="#FAFAFA"/>
<path d="M573.518 200.426H537.793V215.622H573.518V200.426Z" fill="#FAFAFA"/>
<path d="M670.279 221.541H634.555V236.736H670.279V221.541Z" fill="#FAFAFA"/>
<path d="M627.186 221.541H591.461V236.736H627.186V221.541Z" fill="#FAFAFA"/>
<path d="M258.244 179.152H222.52V194.348H258.244V179.152Z" fill="#FAFAFA"/>
<path d="M166.928 179.152H131.203V194.348H166.928V179.152Z" fill="#FAFAFA"/>
<path d="M279.869 200.266H244.145V215.462H279.869V200.266Z" fill="#FAFAFA"/>
<path d="M220.596 200.266H184.871V215.462H220.596V200.266Z" fill="#FAFAFA"/>
<path d="M648.65 242.655H612.926V257.851H648.65V242.655Z" fill="#FAFAFA"/>
<path d="M573.518 242.655H537.793V257.851H573.518V242.655Z" fill="#FAFAFA"/>
<path d="M168.854 119.008H133.129V134.204H168.854V119.008Z" fill="#FAFAFA"/>
<path d="M674.924 77.4192H639.199V92.6151H674.924V77.4192Z" fill="#FAFAFA"/>
<path d="M631.67 77.4192H595.945V92.6151H631.67V77.4192Z" fill="#FAFAFA"/>
<path d="M653.295 98.5336H617.57V113.729H653.295V98.5336Z" fill="#FAFAFA"/>
<path d="M481.24 77.7391H445.516V92.9351H481.24V77.7391Z" fill="#FAFAFA"/>
<path d="M437.986 77.7391H402.262V92.9351H437.986V77.7391Z" fill="#FAFAFA"/>
<path d="M502.869 98.8535H467.145V114.049H502.869V98.8535Z" fill="#FAFAFA"/>
<path d="M459.615 98.8535H423.891V114.049H459.615V98.8535Z" fill="#FAFAFA"/>
<path d="M416.361 98.8535H380.637V114.049H416.361V98.8535Z" fill="#FAFAFA"/>
<path d="M524.494 119.968H488.77V135.164H524.494V119.968Z" fill="#FAFAFA"/>
<path d="M481.24 119.968H445.516V135.164H481.24V119.968Z" fill="#FAFAFA"/>
<path d="M437.986 119.968H402.262V135.164H437.986V119.968Z" fill="#FAFAFA"/>
<path d="M502.869 141.082H467.145V156.278H502.869V141.082Z" fill="#FAFAFA"/>
<path d="M459.615 141.082H423.891V156.278H459.615V141.082Z" fill="#FAFAFA"/>
<path d="M212.428 286.323H176.703V301.519H212.428V286.323Z" fill="#FAFAFA"/>
<path d="M169.174 286.323H133.449V301.519H169.174V286.323Z" fill="#FAFAFA"/>
<path d="M336.42 288.243H300.695V303.439H336.42V288.243Z" fill="#FAFAFA"/>
<path d="M233.893 307.437H198.168V322.633H233.893V307.437Z" fill="#FAFAFA"/>
<path d="M190.799 307.437H155.074V322.633H190.799V307.437Z" fill="#FAFAFA"/>
<path d="M358.049 309.357H322.324V324.553H358.049V309.357Z" fill="#FAFAFA"/>
<path d="M314.795 309.357H279.07V324.553H314.795V309.357Z" fill="#FAFAFA"/>
<path d="M429.498 241.055H393.773V256.251H429.498V241.055Z" fill="#FAFAFA"/>
<path d="M205.377 230.978H169.652V246.174H205.377V230.978Z" fill="#FAFAFA"/>
<path d="M380.795 166.195H345.07V181.391H380.795V166.195Z" fill="#FAFAFA"/>
<path d="M407.869 219.941H372.145V235.137H407.869V219.941Z" fill="#FAFAFA"/>
<path d="M451.123 219.941H415.398V235.137H451.123V219.941Z" fill="#FAFAFA"/>
<path d="M613.408 508.344H577.684V523.539H613.408V508.344Z" fill="#FAFAFA"/>
<path d="M635.033 487.229H599.309V502.425H635.033V487.229Z" fill="#FAFAFA"/>
<path d="M212.428 328.552H176.703V343.748H212.428V328.552Z" fill="#FAFAFA"/>
<path d="M169.174 328.552H133.449V343.748H169.174V328.552Z" fill="#FAFAFA"/>
<path d="M233.893 349.666H198.168V364.862H233.893V349.666Z" fill="#FAFAFA"/>
<path d="M190.799 349.666H155.074V364.862H190.799V349.666Z" fill="#FAFAFA"/>
<path d="M280.189 408.05H244.465V423.246H280.189V408.05Z" fill="#FAFAFA"/>
<path d="M236.936 408.05H201.211V423.246H236.936V408.05Z" fill="#FAFAFA"/>
<path d="M193.682 408.05H157.957V423.246H193.682V408.05Z" fill="#FAFAFA"/>
<path d="M150.588 408.05H114.863V423.246H150.588V408.05Z" fill="#FAFAFA"/>
<path d="M301.818 429.165H266.094V444.361H301.818V429.165Z" fill="#FAFAFA"/>
<path d="M258.564 429.165H222.84V444.361H258.564V429.165Z" fill="#FAFAFA"/>
<path d="M172.057 429.165H136.332V444.361H172.057V429.165Z" fill="#FAFAFA"/>
<path d="M323.443 450.279H287.719V465.475H323.443V450.279Z" fill="#FAFAFA"/>
<path d="M280.189 450.279H244.465V465.475H280.189V450.279Z" fill="#FAFAFA"/>
<path d="M236.936 450.279H201.211V465.475H236.936V450.279Z" fill="#FAFAFA"/>
<path d="M301.818 471.393H266.094V486.589H301.818V471.393Z" fill="#FAFAFA"/>
<path d="M258.564 471.393H222.84V486.589H258.564V471.393Z" fill="#FAFAFA"/>
<path d="M215.311 471.393H179.586V486.589H215.311V471.393Z" fill="#FAFAFA"/>
<path d="M572.557 407.091H536.832V422.287H572.557V407.091Z" fill="#FAFAFA"/>
<path d="M481.4 407.091H445.676V422.287H481.4V407.091Z" fill="#FAFAFA"/>
<path d="M438.146 407.091H402.422V422.287H438.146V407.091Z" fill="#FAFAFA"/>
<path d="M594.182 428.205H558.457V443.401H594.182V428.205Z" fill="#FAFAFA"/>
<path d="M502.869 428.205H467.145V443.401H502.869V428.205Z" fill="#FAFAFA"/>
<path d="M459.775 428.205H424.051V443.401H459.775V428.205Z" fill="#FAFAFA"/>
<path d="M416.521 428.205H380.797V443.401H416.521V428.205Z" fill="#FAFAFA"/>
<path d="M615.811 449.319H580.086V464.515H615.811V449.319Z" fill="#FAFAFA"/>
<path d="M572.557 449.319H536.832V464.515H572.557V449.319Z" fill="#FAFAFA"/>
<path d="M481.4 449.319H445.676V464.515H481.4V449.319Z" fill="#FAFAFA"/>
<path d="M438.146 449.319H402.422V464.515H438.146V449.319Z" fill="#FAFAFA"/>
<path d="M546.123 470.434H510.398V485.63H546.123V470.434Z" fill="#FAFAFA"/>
<path d="M502.869 470.434H467.145V485.63H502.869V470.434Z" fill="#FAFAFA"/>
<path d="M459.775 470.434H424.051V485.63H459.775V470.434Z" fill="#FAFAFA"/>
<path d="M416.521 470.434H380.797V485.63H416.521V470.434Z" fill="#FAFAFA"/>
<path d="M495.145 336.382H649.418V160.109L495.145 160.109V336.382Z" fill="#E0E0E0"/>
<path d="M495.389 336.382H643.734V160.109L495.389 160.109V336.382Z" fill="#E0E0E0"/>
<path d="M490.333 336.382H644.605V160.109L490.333 160.109V336.382Z" fill="#F0F0F0"/>
<path d="M497.325 328.307H637.82V165.791L497.325 165.791V328.307Z" fill="white"/>
<path d="M497.323 328.307H501.648V165.791H497.323V328.307Z" fill="#E0E0E0"/>
<path d="M501.121 282.834V287.153H638.092V282.834H501.121Z" fill="#E0E0E0"/>
<path d="M497.277 282.755H640.176V275.397H497.277V282.755Z" fill="#F0F0F0"/>
<path d="M169.688 336.382H323.961V160.109L169.688 160.109L169.688 336.382Z" fill="#E0E0E0"/>
<path d="M169.932 336.382H318.277V160.109L169.932 160.109L169.932 336.382Z" fill="#E0E0E0"/>
<path d="M164.876 336.382H319.148V160.109L164.876 160.109L164.876 336.382Z" fill="#F0F0F0"/>
<path d="M171.868 328.307H312.363V165.791L171.868 165.791L171.868 328.307Z" fill="white"/>
<path d="M171.866 328.307H176.191L176.191 165.791H171.866L171.866 328.307Z" fill="#E0E0E0"/>
<path d="M175.711 282.789V287.108H312.682V282.789H175.711Z" fill="#E0E0E0"/>
<path d="M171.816 282.755H314.715V275.397H171.816V282.755Z" fill="#F0F0F0"/>
<path d="M400.499 596C572.054 596 711.127 587.907 711.127 577.925C711.127 567.942 572.054 559.85 400.499 559.85C228.944 559.85 89.8711 567.942 89.8711 577.925C89.8711 587.907 228.944 596 400.499 596Z" fill="#F5F5F5"/>
<path d="M143.216 536.656C143.216 536.656 140.973 520.34 130.56 518.581C120.147 516.821 123.351 508.983 120.628 505.944C117.905 502.905 110.856 511.863 116.943 520.66C123.031 529.298 118.065 526.579 120.628 534.736C123.191 542.574 144.177 550.092 143.216 536.656Z" fill="#263238"/>
<path opacity="0.2" d="M143.216 536.656C143.216 536.656 140.973 520.34 130.56 518.581C120.147 516.821 123.351 508.983 120.628 505.944C117.905 502.905 110.856 511.863 116.943 520.66C123.031 529.298 118.065 526.579 120.628 534.736C123.191 542.574 144.177 550.092 143.216 536.656Z" fill="white"/>
<path d="M142.735 547.213C142.735 547.213 134.725 530.578 138.89 503.545C143.056 476.512 158.915 465.955 145.138 436.203C131.521 406.451 115.822 385.177 123.671 364.062" stroke="#263238" stroke-width="0.9024" stroke-miterlimit="10" stroke-linecap="round" stroke-linejoin="round"/>
<path d="M136.809 543.854C136.809 543.854 130.08 533.777 139.853 528.498C149.625 523.219 151.547 527.538 157.475 523.699C163.562 520.02 168.048 510.903 169.009 516.661C169.97 522.42 163.082 525.779 165.485 528.498C168.048 531.217 149.144 548.493 136.809 543.854Z" fill="#263238"/>
<path d="M120.79 372.54C120.79 372.54 114.222 352.545 129.12 352.225C144.179 351.746 127.678 370.461 120.79 372.54Z" fill="#263238"/>
<path d="M133.766 387.896C133.766 387.896 138.251 369.821 148.824 373.66C159.398 377.339 144.339 388.216 133.766 387.896Z" fill="#263238"/>
<path d="M115.823 389.495C115.823 389.495 117.425 375.099 106.211 374.779C94.9968 374.459 99.963 387.096 115.823 389.495Z" fill="#263238"/>
<path d="M123.353 418.928C123.353 418.928 108.294 405.491 102.847 415.568C97.4005 425.486 114.222 427.565 123.353 418.928Z" fill="#263238"/>
<path d="M149.945 416.528C149.945 416.528 152.829 394.294 165.004 401.172C177.179 408.21 160.679 418.768 149.945 416.528Z" fill="#263238"/>
<path d="M160.678 448.52C160.678 448.52 151.706 425.966 168.367 428.525C185.188 431.084 172.532 442.921 160.678 448.52Z" fill="#263238"/>
<path d="M135.048 456.517C135.048 456.517 120.95 439.882 110.057 445.16C99.3233 450.439 108.134 466.915 135.048 456.517Z" fill="#263238"/>
<path d="M147.863 493.308C147.863 493.308 159.878 466.595 170.612 475.552C181.345 484.67 163.883 498.106 147.863 493.308Z" fill="#263238"/>
<path d="M130.399 491.708C130.399 491.708 133.603 471.074 121.588 472.673C109.733 474.433 112.937 487.069 130.399 491.708Z" fill="#263238"/>
<g opacity="0.2">
<path d="M120.79 372.54C120.79 372.54 114.222 352.545 129.12 352.225C144.179 351.746 127.678 370.461 120.79 372.54Z" fill="white"/>
<path d="M133.766 387.896C133.766 387.896 138.251 369.821 148.824 373.66C159.398 377.339 144.339 388.216 133.766 387.896Z" fill="white"/>
<path d="M115.823 389.495C115.823 389.495 117.425 375.099 106.211 374.779C94.9968 374.459 99.963 387.096 115.823 389.495Z" fill="white"/>
<path d="M123.353 418.928C123.353 418.928 108.294 405.491 102.847 415.568C97.4005 425.486 114.222 427.565 123.353 418.928Z" fill="white"/>
<path d="M149.945 416.528C149.945 416.528 152.829 394.294 165.004 401.172C177.179 408.21 160.679 418.768 149.945 416.528Z" fill="white"/>
<path d="M160.678 448.52C160.678 448.52 151.706 425.966 168.367 428.525C185.188 431.084 172.532 442.921 160.678 448.52Z" fill="white"/>
<path d="M135.048 456.517C135.048 456.517 120.95 439.882 110.057 445.16C99.3233 450.439 108.134 466.915 135.048 456.517Z" fill="white"/>
<path d="M147.863 493.308C147.863 493.308 159.878 466.595 170.612 475.552C181.345 484.67 163.883 498.106 147.863 493.308Z" fill="white"/>
<path d="M130.399 491.708C130.399 491.708 133.603 471.074 121.588 472.673C109.733 474.433 112.937 487.069 130.399 491.708Z" fill="white"/>
</g>
<path d="M112.137 384.697C112.137 384.697 118.545 394.294 127.356 399.093C127.356 399.093 133.123 387.896 137.769 385.177" stroke="#263238" stroke-width="0.9024" stroke-miterlimit="10" stroke-linecap="round" stroke-linejoin="round"/>
<path d="M111.656 417.648C111.656 417.648 127.997 417.168 140.973 426.925C140.973 426.925 148.182 414.769 157.634 409.17" stroke="#263238" stroke-width="0.9024" stroke-miterlimit="10" stroke-linecap="round" stroke-linejoin="round"/>
<path d="M165.646 437.802C165.646 437.802 158.597 456.198 149.626 463.396C149.626 463.396 131.043 452.678 117.426 452.359" stroke="#263238" stroke-width="0.9024" stroke-miterlimit="10" stroke-linecap="round" stroke-linejoin="round"/>
<path d="M123.031 479.391C123.031 479.391 132.163 497.306 139.051 501.145C139.051 501.145 145.459 492.188 159.236 488.029" stroke="#263238" stroke-width="0.9024" stroke-miterlimit="10" stroke-linecap="round" stroke-linejoin="round"/>
<path d="M137.768 541.455C137.768 541.455 132.001 532.337 125.433 530.897C118.865 529.618 116.141 522.1 113.738 526.579C111.335 531.217 117.904 546.253 137.768 541.455Z" fill="#263238"/>
<path d="M114.22 577.605H162.44L165.644 538.735H111.016L114.22 577.605Z" fill="#407BFF"/>
<path d="M109.895 546.093H166.766L167.567 537.776H109.094L109.895 546.093Z" fill="#407BFF"/>
<path opacity="0.3" d="M109.895 546.093H166.766L167.567 537.776H109.094L109.895 546.093Z" fill="white"/>
<path d="M310.469 418.608H378.874C386.724 418.608 392.972 425.006 392.972 432.684V456.677C392.972 464.515 386.564 470.754 378.874 470.754H333.377L312.551 492.988L323.765 470.754H310.309C302.459 470.754 296.211 464.355 296.211 456.677V432.684C296.211 425.006 302.619 418.608 310.469 418.608Z" fill="#407BFF"/>
<path opacity="0.7" d="M310.469 418.608H378.874C386.724 418.608 392.972 425.006 392.972 432.684V456.677C392.972 464.515 386.564 470.754 378.874 470.754H333.377L312.551 492.988L323.765 470.754H310.309C302.459 470.754 296.211 464.355 296.211 456.677V432.684C296.211 425.006 302.619 418.608 310.469 418.608Z" fill="white"/>
<path d="M313.832 443.401C313.832 438.922 317.356 435.563 322.002 435.563C326.648 435.563 330.172 438.922 330.172 443.401C330.172 447.88 326.648 451.239 322.002 451.239C317.196 451.239 313.832 447.88 313.832 443.401ZM327.769 443.401C327.769 440.042 325.206 437.483 321.842 437.483C318.478 437.483 315.915 440.042 315.915 443.401C315.915 446.76 318.478 449.319 321.842 449.319C325.366 449.319 327.769 446.76 327.769 443.401Z" fill="#407BFF"/>
<path d="M331.934 445.32C331.934 441.801 334.497 439.402 338.021 439.402C341.546 439.402 343.949 441.801 343.949 445.32C343.949 448.839 341.385 451.239 338.021 451.239C334.497 451.239 331.934 448.68 331.934 445.32ZM341.866 445.32C341.866 442.921 340.264 441.322 338.021 441.322C335.778 441.322 334.176 442.921 334.176 445.32C334.176 447.72 335.778 449.319 338.021 449.319C340.264 449.319 341.866 447.72 341.866 445.32Z" fill="#407BFF"/>
<path d="M358.847 445.32C358.847 448.839 356.444 451.239 352.92 451.239C351.318 451.239 349.876 450.599 348.915 449.319V455.238H346.832V439.402H348.915V441.162C349.876 439.882 351.318 439.242 353.08 439.242C356.444 439.402 358.847 441.801 358.847 445.32ZM356.764 445.32C356.764 442.921 355.162 441.322 352.92 441.322C350.677 441.322 349.075 442.921 349.075 445.32C349.075 447.72 350.677 449.319 352.92 449.319C355.002 449.319 356.764 447.72 356.764 445.32Z" fill="#407BFF"/>
<path d="M360.289 449.799L361.09 448.2C362.051 448.84 363.653 449.319 365.095 449.319C367.017 449.319 367.818 448.68 367.818 447.72C367.818 445.16 360.449 447.4 360.449 442.761C360.449 440.682 362.372 439.242 365.255 439.242C366.697 439.242 368.459 439.562 369.42 440.362L368.459 441.961C367.338 441.322 366.216 441.002 365.095 441.002C363.333 441.002 362.372 441.641 362.372 442.601C362.372 445.32 369.741 443.081 369.741 447.56C369.741 449.639 367.818 450.919 364.775 450.919C363.173 451.239 361.25 450.599 360.289 449.799Z" fill="#407BFF"/>
<path d="M372.305 449.799C372.305 448.999 372.946 448.36 373.747 448.36C374.548 448.36 375.188 448.999 375.188 449.799C375.188 450.599 374.548 451.239 373.747 451.239C372.785 451.239 372.305 450.599 372.305 449.799ZM372.465 435.883H374.868L374.387 446.28H372.785L372.465 435.883Z" fill="#407BFF"/>
<path d="M709.524 169.235C709.524 174.513 681.009 178.992 639.998 180.911C638.876 180.911 637.755 181.071 636.633 181.071C635.192 181.071 633.75 181.231 632.148 181.231C626.06 181.551 619.652 181.711 613.084 181.711C612.123 181.711 611.162 181.711 610.2 181.711C609.72 181.711 609.079 181.711 608.598 181.711C603.472 181.871 598.346 181.871 593.219 181.871C583.767 181.871 574.476 181.711 565.665 181.551C563.422 181.551 561.34 181.391 559.257 181.391C543.237 180.911 528.499 179.952 516.163 178.832C491.973 176.433 476.754 173.074 476.754 169.235C476.754 163.476 511.357 158.677 558.936 157.078C560.218 157.078 561.5 156.918 562.621 156.918C565.985 156.758 569.349 156.758 572.714 156.598C576.879 156.598 581.044 156.438 585.209 156.438C585.53 156.438 585.85 156.438 586.17 156.438C588.413 156.438 590.656 156.438 592.899 156.438C604.914 156.438 616.448 156.598 627.342 157.078C629.104 157.078 630.866 157.238 632.468 157.238C634.711 157.398 636.954 157.398 639.197 157.558C639.837 157.558 640.318 157.558 640.959 157.718C642.401 157.718 644.003 157.878 645.444 157.878C683.572 159.957 709.524 164.276 709.524 169.235Z" fill="#263238"/>
<path opacity="0.4" d="M709.524 169.235C709.524 174.513 681.009 178.992 639.998 180.911C638.876 180.911 637.755 181.071 636.633 181.071C635.192 181.071 633.75 181.231 632.148 181.231C626.06 181.551 619.652 181.711 613.084 181.711C612.123 181.711 611.162 181.711 610.2 181.711C609.72 181.711 609.079 181.711 608.598 181.711C603.472 181.871 598.346 181.871 593.219 181.871C583.767 181.871 574.476 181.711 565.665 181.551C563.422 181.551 561.34 181.391 559.257 181.391C543.237 180.911 528.499 179.952 516.163 178.832C491.973 176.433 476.754 173.074 476.754 169.235C476.754 167.475 479.798 165.875 485.244 164.436C492.133 166.355 502.706 167.955 516.163 169.235C528.499 170.354 543.077 171.314 559.257 171.794C561.34 171.794 563.582 171.954 565.665 171.954C574.476 172.114 583.767 172.274 593.219 172.274C598.506 172.274 603.632 172.274 608.598 172.114C609.079 172.114 609.72 172.114 610.2 172.114C611.162 172.114 612.123 172.114 613.084 172.114C619.652 171.954 626.06 171.794 632.148 171.634C633.59 171.634 635.192 171.474 636.633 171.474C637.755 171.474 638.876 171.314 639.998 171.314C667.552 170.034 689.5 167.475 701.034 164.436C706.641 166.035 709.524 167.635 709.524 169.235Z" fill="white"/>
<path d="M585.531 156.598C585.371 158.517 584.73 160.277 583.449 161.877C582.167 163.476 581.045 164.756 579.604 166.035C578.803 166.835 578.002 167.635 577.361 168.275C576.88 168.755 576.24 169.235 575.759 169.714C573.035 172.114 570.312 174.513 567.108 176.753C566.948 176.913 566.788 177.072 566.628 177.072C566.147 177.392 565.666 177.712 565.186 178.032C563.263 179.312 561.341 180.432 559.258 181.551C558.457 181.871 557.656 182.351 556.855 182.671C554.933 183.471 552.53 184.271 550.928 184.59C549.166 185.07 547.404 185.55 545.641 185.87C543.238 186.35 540.835 186.83 538.593 187.31C534.267 188.109 529.942 188.909 525.456 189.549C521.772 190.029 517.927 190.669 514.242 191.149C511.198 191.469 508.154 191.789 505.111 192.108C504.79 192.108 504.47 192.108 504.15 192.108C503.349 191.948 502.547 191.629 501.907 191.149C500.945 190.349 500.305 189.229 500.145 187.95C500.145 187.79 500.145 187.47 500.145 187.31C500.305 185.55 501.426 183.951 503.188 183.311C503.349 183.311 503.509 183.151 503.509 183.151C507.674 181.711 511.839 180.272 516.004 178.832C518.087 178.192 520.17 177.392 522.412 176.753C528.82 174.673 535.228 172.754 541.476 170.674C543.078 170.194 544.52 169.714 545.962 169.075C547.564 168.595 548.365 168.115 549.486 167.475C550.127 166.995 550.928 166.515 551.729 166.035C553.331 165.076 554.773 163.796 556.375 162.516C558.457 160.757 560.54 158.837 562.623 156.918C565.987 156.758 569.351 156.758 572.715 156.598C577.041 156.598 581.206 156.598 585.531 156.598Z" fill="#FFB573"/>
<path d="M585.693 162.996C585.533 163.316 585.533 163.636 585.373 163.956C585.212 164.276 585.052 164.596 584.892 164.916C584.732 165.236 584.572 165.556 584.411 165.875C584.251 166.195 584.091 166.515 583.931 166.835C583.931 166.835 583.931 166.835 583.931 166.995C583.61 167.475 583.13 168.115 582.809 168.595C582.329 169.235 582.008 169.714 581.368 170.194C581.207 170.354 581.047 170.514 580.887 170.674C580.246 171.474 579.445 172.114 578.644 172.754C578.324 173.074 578.164 173.233 577.843 173.393C577.683 173.553 577.683 173.553 577.523 173.713C574.639 175.953 571.756 177.712 569.833 178.832C569.513 178.992 569.192 179.152 568.872 179.312C568.391 179.472 568.071 179.632 567.911 179.792C567.751 179.952 567.59 179.952 567.59 179.952L566.469 178.992L565.508 178.032L563.265 176.113L552.051 166.195L551.25 165.396C551.25 165.396 554.614 161.557 559.26 157.078C560.542 157.078 561.823 156.918 562.945 156.918C566.309 156.758 569.673 156.758 573.037 156.598C577.202 156.598 581.368 156.438 585.533 156.438C585.853 156.438 586.174 156.438 586.494 156.438C586.654 158.677 586.494 160.757 585.693 162.996Z" fill="#407BFF"/>
<path opacity="0.7" d="M585.693 162.996C585.533 163.316 585.373 163.636 585.373 163.956C585.212 164.276 585.052 164.596 584.892 164.916C584.732 165.236 584.572 165.556 584.411 165.875C584.251 166.195 584.091 166.515 583.931 166.835C583.931 166.835 583.931 166.835 583.931 166.995C583.61 167.475 583.13 168.115 582.809 168.595C582.329 169.235 582.008 169.714 581.368 170.194C581.207 170.354 581.047 170.514 580.887 170.674C580.246 171.474 579.445 172.114 578.644 172.754C578.324 173.074 578.164 173.233 577.843 173.393C577.683 173.553 577.683 173.553 577.523 173.713C574.639 175.953 571.756 177.712 569.833 178.832C569.513 178.992 569.192 179.152 568.872 179.312C568.391 179.472 568.071 179.632 567.911 179.792C567.751 179.952 567.59 179.952 567.59 179.952L566.469 178.992L565.508 178.032L563.265 176.113L552.051 166.195L551.25 165.396C551.25 165.396 554.614 161.557 559.26 157.078C560.542 157.078 561.823 156.918 562.945 156.918C566.309 156.758 569.673 156.758 573.037 156.598C577.202 156.598 581.368 156.438 585.533 156.438C585.853 156.438 586.174 156.438 586.494 156.438C586.654 158.677 586.494 160.757 585.693 162.996Z" fill="white"/>
<path opacity="0.1" d="M577.524 173.713C572.557 177.712 567.431 179.952 567.431 179.952L562.945 176.113C566.149 165.556 575.121 158.677 575.121 158.677C577.203 162.196 577.684 169.874 577.524 173.713Z" fill="black"/>
<path d="M505.113 183.311L490.215 181.071L490.375 194.188C490.375 194.188 500.628 197.227 505.914 190.349L505.113 183.311Z" fill="#EBB376"/>
<path d="M480.121 184.59L482.524 194.348L490.374 194.188L490.214 181.071L480.121 184.59Z" fill="#EBB376"/>
<path d="M639.52 157.558C639.36 157.878 639.199 158.198 639.039 158.517C638.719 159.477 638.238 160.437 637.918 161.397C637.758 162.036 637.437 162.676 637.277 163.316C637.117 163.956 636.796 164.596 636.636 165.236C635.995 167.155 635.515 168.915 634.874 170.834C634.874 170.994 634.874 170.994 634.714 171.154C634.073 173.233 633.592 175.473 633.112 177.552C633.112 177.712 633.112 177.712 633.112 177.872C632.791 178.992 632.631 180.112 632.311 181.231C632.151 181.711 632.151 182.191 631.99 182.671C631.51 184.59 631.189 186.67 630.709 188.589C630.549 189.389 630.388 190.029 630.228 190.829C630.068 191.629 629.908 192.428 629.748 193.068C629.748 193.228 629.748 193.388 629.748 193.548C629.587 194.028 629.587 194.348 629.587 194.828C629.427 195.947 629.107 197.067 628.947 198.347C628.947 198.507 628.947 198.667 628.786 198.827C628.786 199.306 628.626 199.626 628.626 200.106C628.306 202.506 627.825 204.745 627.665 206.984C627.665 207.144 627.665 207.304 627.665 207.304C627.345 209.704 627.024 212.103 626.704 214.342C626.544 215.302 626.544 216.262 626.383 217.062C626.223 218.341 626.063 219.621 626.063 220.741C625.903 221.541 625.903 222.5 625.743 223.3C625.582 224.1 625.582 224.9 625.582 225.539C625.582 226.339 625.422 226.979 625.422 227.779C625.262 229.698 625.102 231.458 624.942 233.057C624.942 233.697 624.781 234.337 624.781 234.977C624.621 237.056 624.621 238.656 624.621 239.296C624.621 239.616 624.621 239.776 624.621 239.776L596.266 237.216H595.785L590.979 236.736L583.77 236.097L575.119 235.137L573.037 234.977L562.464 234.017C562.464 233.057 562.303 232.098 562.303 230.978C562.303 230.658 562.303 230.498 562.303 230.178C561.983 221.381 562.143 213.383 562.624 206.185C562.944 202.346 563.265 198.827 563.585 195.308C564.226 190.349 564.867 185.87 565.668 181.711C565.828 180.751 565.988 179.792 566.148 178.992C566.308 178.352 566.469 177.712 566.629 177.232C567.91 171.794 569.192 166.995 570.634 162.996C571.435 160.757 572.236 158.677 572.877 156.918C577.042 156.918 581.207 156.758 585.372 156.758C585.693 156.758 586.013 156.758 586.333 156.758C588.576 156.758 590.819 156.758 593.062 156.758C605.077 156.758 616.611 156.918 627.505 157.398C629.267 157.398 631.029 157.558 632.631 157.558C635.194 157.398 637.277 157.558 639.52 157.558Z" fill="#407BFF"/>
<path opacity="0.7" d="M639.52 157.558C639.36 157.878 639.199 158.198 639.039 158.517C638.719 159.477 638.238 160.437 637.918 161.397C637.758 162.036 637.437 162.676 637.277 163.316C637.117 163.956 636.796 164.596 636.636 165.236V165.396C635.995 167.155 635.515 169.075 635.034 170.834C635.034 170.994 635.034 170.994 634.874 171.154C634.073 173.873 633.432 176.593 632.631 179.472C632.471 180.112 632.311 180.751 632.151 181.231C631.99 181.711 631.99 182.191 631.83 182.671C631.35 184.59 631.029 186.67 630.549 188.589C630.388 189.389 630.228 190.029 630.068 190.829C629.908 191.629 629.748 192.428 629.587 193.068C629.587 193.228 629.587 193.388 629.427 193.548C629.267 194.028 629.267 194.348 629.267 194.828C629.107 195.947 628.786 197.067 628.626 198.347C628.626 198.507 628.626 198.667 628.466 198.827C628.466 199.306 628.306 199.626 628.306 200.106C627.985 202.506 627.505 204.745 627.345 206.984C627.345 207.144 627.345 207.304 627.345 207.304C627.024 209.704 626.704 212.103 626.383 214.342C626.223 215.302 626.223 216.262 626.063 217.062C625.903 218.341 625.743 219.621 625.743 220.741C625.582 221.541 625.582 222.5 625.422 223.3C625.262 224.1 625.262 224.9 625.262 225.539C625.262 226.339 625.102 226.979 625.102 227.779C624.942 229.698 624.781 231.458 624.621 233.057C624.621 233.697 624.461 234.337 624.461 234.977C624.301 237.056 624.301 238.656 624.301 239.296C624.301 239.616 624.301 239.776 624.301 239.776L595.945 237.216H595.465L590.659 236.736L583.45 236.097L575.119 235.137L573.037 234.977L562.464 234.017C562.464 233.057 562.303 232.098 562.303 230.978C562.303 230.658 562.303 230.498 562.303 230.178C561.983 221.381 562.143 213.383 562.624 206.185C562.944 202.346 563.265 198.827 563.585 195.308C564.226 190.349 564.867 185.87 565.668 181.711C565.828 180.751 565.988 179.792 566.148 178.992C566.308 178.352 566.469 177.712 566.629 177.232C567.91 171.794 569.192 166.995 570.634 162.996C571.435 160.757 572.236 158.677 572.877 156.918C577.042 156.918 581.207 156.758 585.372 156.758C585.693 156.758 586.013 156.758 586.333 156.758C588.576 156.758 590.819 156.758 593.062 156.758C605.077 156.758 616.611 156.918 627.505 157.398C629.267 157.398 631.029 157.558 632.631 157.558C635.194 157.398 637.277 157.558 639.52 157.558Z" fill="white"/>
<path d="M486.208 369.981C486.208 369.981 506.233 361.663 506.873 353.345C506.873 352.545 507.514 351.906 508.475 351.906L523.694 352.865C524.335 352.865 525.136 353.345 525.296 353.985L531.384 368.061L527.219 368.701L525.457 366.782L523.855 369.181C500.786 372.38 490.853 373.5 486.208 372.7C485.407 370.78 486.208 369.981 486.208 369.981Z" fill="black"/>
<path d="M580.086 286.803C579.285 286.643 578.644 286.483 578.644 286.483L506.554 277.525L528.021 353.825L506.234 355.904C506.234 355.904 456.412 259.93 476.757 246.174C497.103 232.418 560.221 247.614 560.221 247.614L562.624 228.579L625.423 233.217C635.515 295.761 588.737 288.722 580.086 286.803Z" fill="#263238"/>
<path d="M559.26 507.064C559.26 507.064 580.887 504.984 583.931 497.307C584.252 496.507 585.053 496.187 585.854 496.507L600.272 501.785C600.912 502.105 601.393 502.745 601.553 503.385L603.315 518.741L599.15 518.101L598.029 515.702L595.786 517.461C572.877 513.782 562.945 511.863 558.78 509.783C558.139 507.544 559.26 507.064 559.26 507.064Z" fill="black"/>
<path d="M626.064 255.931C625.904 256.251 623.34 268.408 619.976 285.523C619.816 286.483 619.656 287.443 619.335 288.563C617.733 296.72 615.971 305.998 614.209 315.595C612.126 327.272 610.044 339.589 608.282 351.266C605.718 368.221 603.956 384.057 603.636 395.254C602.835 432.364 601.233 505.464 601.233 505.464L581.208 502.265C581.208 502.265 570.154 424.206 570.314 386.456C570.474 362.463 576.402 313.036 580.407 282.324C582.489 266.488 584.091 255.611 584.091 255.611L606.68 255.771L626.064 255.931Z" fill="#263238"/>
<path d="M624.461 239.296L625.743 239.456V235.137L624.621 234.977L624.461 239.296Z" fill="#263238"/>
<path d="M575.121 235.457L601.875 237.536L602.035 233.217L575.442 231.138L575.121 235.457Z" fill="#263238"/>
<path d="M573.359 230.978L561.984 230.178L561.664 234.497L573.038 235.297L573.359 230.978Z" fill="#263238"/>
<path d="M622.54 234.817L604.117 233.377L603.957 237.696L622.38 239.136L622.54 234.817Z" fill="#263238"/>
<g opacity="0.2">
<path d="M624.461 239.296L625.743 239.456V235.137L624.621 234.977L624.461 239.296Z" fill="white"/>
<path d="M575.121 235.457L601.875 237.536L602.035 233.217L575.442 231.138L575.121 235.457Z" fill="white"/>
<path d="M573.359 230.978L561.984 230.178L561.664 234.497L573.038 235.297L573.359 230.978Z" fill="white"/>
<path d="M622.54 234.817L604.117 233.377L603.957 237.696L622.38 239.136L622.54 234.817Z" fill="white"/>
</g>
<path d="M583.613 232.578L583.453 235.137C583.453 235.617 583.774 235.937 584.094 235.937L590.822 236.576C591.303 236.576 591.623 236.257 591.623 235.777V233.057C591.623 232.578 591.303 232.258 590.822 232.258L584.254 231.778C583.934 231.778 583.613 232.258 583.613 232.578Z" stroke="white" stroke-width="0.7259" stroke-miterlimit="10"/>
<path d="M588.738 234.337L590.821 234.497" stroke="white" stroke-width="0.7259" stroke-miterlimit="10" stroke-linecap="round" stroke-linejoin="round"/>
<path opacity="0.1" d="M635.034 171.154C634.233 173.873 633.592 176.593 632.791 179.472C632.471 180.592 632.31 181.711 631.99 182.831C630.708 188.269 629.747 193.708 628.946 198.987C628.946 199.466 628.786 199.786 628.786 200.266C617.732 203.785 606.358 201.386 606.678 190.829C607.159 176.593 619.334 170.034 619.334 170.034C624.621 166.835 630.388 168.115 635.034 171.154Z" fill="black"/>
<path d="M527.38 577.605H542.119L493.899 197.387H479.16L527.38 577.605Z" fill="#263238"/>
<path opacity="0.4" d="M527.38 577.605H542.119L493.899 197.387H479.16L527.38 577.605Z" fill="white"/>
<path d="M496.302 253.692H543.401C544.523 253.692 545.484 252.892 546.125 251.772L549.168 245.374H490.695L493.739 251.772C494.22 252.892 495.181 253.692 496.302 253.692Z" fill="#263238"/>
<path opacity="0.4" d="M496.302 253.692H543.401C544.523 253.692 545.484 252.892 546.125 251.772L549.168 245.374H490.695L493.739 251.772C494.22 252.892 495.181 253.692 496.302 253.692Z" fill="white"/>
<path d="M491.497 248.413H548.368C550.131 248.413 551.412 246.974 551.412 245.374V244.734C551.412 242.975 549.97 241.695 548.368 241.695H491.497C489.735 241.695 488.454 243.135 488.454 244.734V245.374C488.293 247.134 489.735 248.413 491.497 248.413Z" fill="#263238"/>
<path opacity="0.1" d="M491.497 248.413H548.368C550.131 248.413 551.412 246.974 551.412 245.374V244.734C551.412 242.975 549.97 241.695 548.368 241.695H491.497C489.735 241.695 488.454 243.135 488.454 244.734V245.374C488.293 247.134 489.735 248.413 491.497 248.413Z" fill="white"/>
<path d="M504.951 308.077H552.05C553.171 308.077 554.132 307.277 554.773 306.158L557.817 299.76H499.344L502.388 306.158C502.708 307.277 503.829 308.077 504.951 308.077Z" fill="#263238"/>
<path opacity="0.4" d="M504.951 308.077H552.05C553.171 308.077 554.132 307.277 554.773 306.158L557.817 299.76H499.344L502.388 306.158C502.708 307.277 503.829 308.077 504.951 308.077Z" fill="white"/>
<path d="M499.985 302.799H556.856C558.618 302.799 559.9 301.359 559.9 299.76V299.12C559.9 297.36 558.458 296.081 556.856 296.081H499.985C498.223 296.081 496.941 297.52 496.941 299.12V299.76C496.941 301.359 498.383 302.799 499.985 302.799Z" fill="#263238"/>
<path opacity="0.1" d="M499.985 302.799H556.856C558.618 302.799 559.9 301.359 559.9 299.76V299.12C559.9 297.36 558.458 296.081 556.856 296.081H499.985C498.223 296.081 496.941 297.52 496.941 299.12V299.76C496.941 301.359 498.383 302.799 499.985 302.799Z" fill="white"/>
<path d="M513.603 379.898H560.702C561.823 379.898 562.785 379.098 563.425 377.979L566.469 371.58H507.836L510.88 377.979C511.36 379.258 512.482 379.898 513.603 379.898Z" fill="#263238"/>
<path opacity="0.4" d="M513.603 379.898H560.702C561.823 379.898 562.785 379.098 563.425 377.979L566.469 371.58H507.836L510.88 377.979C511.36 379.258 512.482 379.898 513.603 379.898Z" fill="white"/>
<path d="M508.638 374.779H565.509C567.271 374.779 568.552 373.34 568.552 371.74V371.1C568.552 369.341 567.111 368.061 565.509 368.061H508.638C506.875 368.061 505.594 369.501 505.594 371.1V371.74C505.594 373.34 506.875 374.779 508.638 374.779Z" fill="#263238"/>
<path opacity="0.1" d="M508.638 374.779H565.509C567.271 374.779 568.552 373.34 568.552 371.74V371.1C568.552 369.341 567.111 368.061 565.509 368.061H508.638C506.875 368.061 505.594 369.501 505.594 371.1V371.74C505.594 373.34 506.875 374.779 508.638 374.779Z" fill="white"/>
<path d="M522.091 451.879H569.19C570.312 451.879 571.273 451.079 571.914 449.959L574.957 443.561H516.484L519.528 449.959C520.009 451.239 520.97 451.879 522.091 451.879Z" fill="#263238"/>
<path opacity="0.4" d="M522.091 451.879H569.19C570.312 451.879 571.273 451.079 571.914 449.959L574.957 443.561H516.484L519.528 449.959C520.009 451.239 520.97 451.879 522.091 451.879Z" fill="white"/>
<path d="M517.126 446.6H573.997C575.759 446.6 577.041 445.16 577.041 443.561V442.921C577.041 441.162 575.599 439.882 573.997 439.882H517.126C515.364 439.882 514.082 441.322 514.082 442.921V443.561C514.082 445.32 515.524 446.6 517.126 446.6Z" fill="#263238"/>
<path opacity="0.1" d="M517.126 446.6H573.997C575.759 446.6 577.041 445.16 577.041 443.561V442.921C577.041 441.162 575.599 439.882 573.997 439.882H517.126C515.364 439.882 514.082 441.322 514.082 442.921V443.561C514.082 445.32 515.524 446.6 517.126 446.6Z" fill="white"/>
<path d="M530.744 523.859H577.843C578.964 523.859 579.925 523.06 580.566 521.94L583.61 515.542H525.137L528.181 521.94C528.501 523.06 529.622 523.859 530.744 523.859Z" fill="#263238"/>
<path opacity="0.4" d="M530.744 523.859H577.843C578.964 523.859 579.925 523.06 580.566 521.94L583.61 515.542H525.137L528.181 521.94C528.501 523.06 529.622 523.859 530.744 523.859Z" fill="white"/>
<path d="M525.778 518.581H582.649C584.411 518.581 585.693 517.141 585.693 515.542V514.902C585.693 513.142 584.251 511.863 582.649 511.863H525.778C524.016 511.863 522.734 513.302 522.734 514.902V515.542C522.734 517.301 524.176 518.581 525.778 518.581Z" fill="#263238"/>
<path opacity="0.1" d="M525.778 518.581H582.649C584.411 518.581 585.693 517.141 585.693 515.542V514.902C585.693 513.142 584.251 511.863 582.649 511.863H525.778C524.016 511.863 522.734 513.302 522.734 514.902V515.542C522.734 517.301 524.176 518.581 525.778 518.581Z" fill="white"/>
<path d="M584.572 577.605H599.31L551.09 197.387H536.352L584.572 577.605Z" fill="#263238"/>
<path opacity="0.7" d="M584.572 577.605H599.31L551.09 197.387H536.352L584.572 577.605Z" fill="white"/>
<path d="M429.016 577.605H414.117L462.337 197.387H477.076L429.016 577.605Z" fill="#263238"/>
<path opacity="0.4" d="M429.016 577.605H414.117L462.337 197.387H477.076L429.016 577.605Z" fill="white"/>
<path d="M517.124 253.692H470.025C468.904 253.692 467.942 252.892 467.302 251.772L464.258 245.374H522.731L519.687 251.772C519.206 252.892 518.245 253.692 517.124 253.692Z" fill="#263238"/>
<path opacity="0.5" d="M517.124 253.692H470.025C468.904 253.692 467.942 252.892 467.302 251.772L464.258 245.374H522.731L519.687 251.772C519.206 252.892 518.245 253.692 517.124 253.692Z" fill="white"/>
<path d="M522.091 248.413H465.22C463.457 248.413 462.176 246.974 462.176 245.374V244.734C462.176 242.975 463.618 241.695 465.22 241.695H522.091C523.853 241.695 525.134 243.135 525.134 244.734V245.374C525.134 247.134 523.693 248.413 522.091 248.413Z" fill="#263238"/>
<path opacity="0.2" d="M522.091 248.413H465.22C463.457 248.413 462.176 246.974 462.176 245.374V244.734C462.176 242.975 463.618 241.695 465.22 241.695H522.091C523.853 241.695 525.134 243.135 525.134 244.734V245.374C525.134 247.134 523.693 248.413 522.091 248.413Z" fill="white"/>
<path d="M508.475 308.077H461.377C460.255 308.077 459.294 307.277 458.653 306.158L455.609 299.76H514.243L511.199 306.158C510.718 307.277 509.597 308.077 508.475 308.077Z" fill="#263238"/>
<path opacity="0.5" d="M508.475 308.077H461.377C460.255 308.077 459.294 307.277 458.653 306.158L455.609 299.76H514.243L511.199 306.158C510.718 307.277 509.597 308.077 508.475 308.077Z" fill="white"/>
<path d="M513.442 302.799H456.571C454.809 302.799 453.527 301.359 453.527 299.76V299.12C453.527 297.36 454.969 296.081 456.571 296.081H513.442C515.204 296.081 516.486 297.52 516.486 299.12V299.76C516.486 301.359 515.204 302.799 513.442 302.799Z" fill="#263238"/>
<path opacity="0.2" d="M513.442 302.799H456.571C454.809 302.799 453.527 301.359 453.527 299.76V299.12C453.527 297.36 454.969 296.081 456.571 296.081H513.442C515.204 296.081 516.486 297.52 516.486 299.12V299.76C516.486 301.359 515.204 302.799 513.442 302.799Z" fill="white"/>
<path d="M499.983 379.898H452.884C451.763 379.898 450.802 379.098 450.161 377.979L447.117 371.58H505.59L502.546 377.979C502.066 379.258 501.105 379.898 499.983 379.898Z" fill="#263238"/>
<path opacity="0.5" d="M499.983 379.898H452.884C451.763 379.898 450.802 379.098 450.161 377.979L447.117 371.58H505.59L502.546 377.979C502.066 379.258 501.105 379.898 499.983 379.898Z" fill="white"/>
<path d="M504.79 374.779H447.919C446.157 374.779 444.875 373.34 444.875 371.74V371.1C444.875 369.341 446.317 368.061 447.919 368.061H504.79C506.552 368.061 507.834 369.501 507.834 371.1V371.74C507.994 373.34 506.552 374.779 504.79 374.779Z" fill="#263238"/>
<path opacity="0.2" d="M504.79 374.779H447.919C446.157 374.779 444.875 373.34 444.875 371.74V371.1C444.875 369.341 446.317 368.061 447.919 368.061H504.79C506.552 368.061 507.834 369.501 507.834 371.1V371.74C507.994 373.34 506.552 374.779 504.79 374.779Z" fill="white"/>
<path d="M491.335 451.879H444.236C443.115 451.879 442.153 451.079 441.513 449.959L438.469 443.561H496.942L493.898 449.959C493.578 451.239 492.456 451.879 491.335 451.879Z" fill="#263238"/>
<path opacity="0.5" d="M491.335 451.879H444.236C443.115 451.879 442.153 451.079 441.513 449.959L438.469 443.561H496.942L493.898 449.959C493.578 451.239 492.456 451.879 491.335 451.879Z" fill="white"/>
<path d="M496.302 446.6H439.431C437.668 446.6 436.387 445.16 436.387 443.561V442.921C436.387 441.162 437.829 439.882 439.431 439.882H496.302C498.064 439.882 499.345 441.322 499.345 442.921V443.561C499.345 445.32 497.904 446.6 496.302 446.6Z" fill="#263238"/>
<path opacity="0.2" d="M496.302 446.6H439.431C437.668 446.6 436.387 445.16 436.387 443.561V442.921C436.387 441.162 437.829 439.882 439.431 439.882H496.302C498.064 439.882 499.345 441.322 499.345 442.921V443.561C499.345 445.32 497.904 446.6 496.302 446.6Z" fill="white"/>
<path d="M482.682 523.859H435.584C434.462 523.859 433.501 523.06 432.86 521.94L429.816 515.542H488.289L485.246 521.94C484.925 523.06 483.804 523.859 482.682 523.859Z" fill="#263238"/>
<path opacity="0.5" d="M482.682 523.859H435.584C434.462 523.859 433.501 523.06 432.86 521.94L429.816 515.542H488.289L485.246 521.94C484.925 523.06 483.804 523.859 482.682 523.859Z" fill="white"/>
<path d="M487.649 518.581H430.778C429.016 518.581 427.734 517.141 427.734 515.542V514.902C427.734 513.142 429.176 511.863 430.778 511.863H487.649C489.411 511.863 490.693 513.302 490.693 514.902V515.542C490.693 517.301 489.411 518.581 487.649 518.581Z" fill="#263238"/>
<path opacity="0.2" d="M487.649 518.581H430.778C429.016 518.581 427.734 517.141 427.734 515.542V514.902C427.734 513.142 429.176 511.863 430.778 511.863H487.649C489.411 511.863 490.693 513.302 490.693 514.902V515.542C490.693 517.301 489.411 518.581 487.649 518.581Z" fill="white"/>
<path d="M486.207 577.605H471.309L519.529 197.387H534.267L486.207 577.605Z" fill="#263238"/>
<path opacity="0.7" d="M486.207 577.605H471.309L519.529 197.387H534.267L486.207 577.605Z" fill="white"/>
<path d="M553.492 199.306H459.615C458.493 199.306 457.532 198.507 456.891 197.387L453.848 190.989H559.099L556.055 197.387C555.735 198.507 554.613 199.306 553.492 199.306Z" fill="#263238"/>
<path opacity="0.5" d="M553.492 199.306H459.615C458.493 199.306 457.532 198.507 456.891 197.387L453.848 190.989H559.099L556.055 197.387C555.735 198.507 554.613 199.306 553.492 199.306Z" fill="white"/>
<path d="M558.459 194.028H454.809C453.047 194.028 451.766 192.588 451.766 190.989V190.349C451.766 188.589 453.207 187.31 454.809 187.31H558.459C560.221 187.31 561.503 188.749 561.503 190.349V190.989C561.503 192.588 560.061 194.028 558.459 194.028Z" fill="#263238"/>
<path opacity="0.2" d="M558.459 194.028H454.809C453.047 194.028 451.766 192.588 451.766 190.989V190.349C451.766 188.589 453.207 187.31 454.809 187.31H558.459C560.221 187.31 561.503 188.749 561.503 190.349V190.989C561.503 192.588 560.061 194.028 558.459 194.028Z" fill="white"/>
<path d="M560.056 197.707L547.72 189.069L541.953 200.906C541.953 200.906 549.643 208.104 557.653 204.425L560.056 197.707Z" fill="#EBB376"/>
<path d="M537.149 187.63L534.906 197.547L541.955 200.746L547.722 189.069L537.149 187.63Z" fill="#EBB376"/>
<path d="M644.324 170.354C641.921 174.033 639.358 177.712 636.795 181.071C634.872 183.631 632.95 186.19 630.707 188.749C630.066 189.549 629.426 190.349 628.785 190.989C627.503 192.428 626.222 193.868 624.94 195.308C623.338 197.067 621.576 198.827 619.653 200.586C619.333 200.906 619.013 201.226 618.532 201.546C617.09 202.826 615.809 203.945 614.046 205.225C611.964 206.665 609.881 208.104 606.677 209.384C605.876 209.704 605.075 209.864 604.274 210.184C603.473 210.344 602.832 210.503 602.031 210.663C600.75 210.823 599.468 210.983 598.187 210.983C595.784 211.143 593.541 210.983 591.298 210.823C586.812 210.663 582.647 210.024 578.322 209.384C572.875 208.584 567.588 207.464 562.462 206.185C560.54 205.705 558.617 205.225 556.695 204.745C555.734 204.425 554.612 204.105 553.651 203.945C551.568 203.305 550.287 201.386 550.447 199.306C550.447 198.987 550.447 198.667 550.607 198.347C551.088 196.587 552.53 195.308 554.292 195.148C554.612 195.148 554.772 194.988 555.093 195.148C555.413 195.148 555.894 195.148 556.214 195.148C558.617 195.148 561.02 195.308 563.423 195.468C568.87 195.627 574.157 195.787 579.443 195.947C583.448 196.107 587.453 195.947 591.298 195.787C593.22 195.627 595.143 195.468 596.745 195.308C598.507 195.148 599.949 194.668 600.429 194.348C601.07 194.028 602.352 193.068 603.473 192.108C604.434 191.309 605.396 190.349 606.357 189.389C606.677 189.069 606.998 188.909 607.158 188.589C607.799 187.95 608.279 187.47 608.76 186.83C610.202 185.39 611.483 183.791 612.765 182.191C613.406 181.391 614.046 180.751 614.527 179.952C617.411 176.273 620.294 172.434 623.018 168.595C624.94 166.035 626.702 163.316 628.625 160.757L628.785 160.597C629.746 159.317 631.028 158.198 632.309 157.558C634.552 157.718 636.795 157.718 639.038 157.878C639.678 157.878 640.159 157.878 640.8 158.038C640.96 158.198 641.12 158.198 641.28 158.357C645.926 160.757 646.887 166.195 644.324 170.354Z" fill="#FFB573"/>
<path d="M640.157 180.911C637.594 184.59 634.39 188.749 630.065 193.228C629.103 194.188 627.982 195.308 626.861 196.427L625.098 195.468L609.399 186.67L607.957 185.87C607.957 185.87 608.918 184.43 610.52 182.031C612.443 179.152 615.166 174.993 617.729 171.154C619.652 168.115 621.574 165.236 622.695 163.156C624.137 160.597 626.06 158.677 627.822 157.238C629.584 157.238 631.346 157.398 632.948 157.398C635.191 157.558 637.434 157.558 639.677 157.718C640.317 157.718 640.798 157.718 641.439 157.878C642.881 157.878 644.483 158.038 645.924 158.038C647.847 162.676 647.366 170.194 640.157 180.911Z" fill="#407BFF"/>
<path opacity="0.7" d="M640.157 180.911C637.594 184.59 634.39 188.749 630.065 193.228C629.103 194.188 627.982 195.308 626.861 196.427L625.098 195.468L609.399 186.67L607.957 185.87C607.957 185.87 608.918 184.43 610.52 182.031C612.443 179.152 615.166 174.993 617.729 171.154C619.652 168.115 621.574 165.236 622.695 163.156C624.137 160.597 626.06 158.677 627.822 157.238C629.584 157.238 631.346 157.398 632.948 157.398C635.191 157.558 637.434 157.558 639.677 157.718C640.317 157.718 640.798 157.718 641.439 157.878C642.881 157.878 644.483 158.038 645.924 158.038C647.847 162.676 647.366 170.194 640.157 180.911Z" fill="white"/>
<path d="M405.786 577.285C405.786 577.445 405.786 577.445 405.786 577.605C405.786 577.605 405.786 577.605 405.786 577.765C405.786 577.765 405.786 577.925 405.626 577.925C405.626 578.085 405.466 578.085 405.466 578.245C405.466 578.405 405.306 578.405 405.145 578.565C404.665 579.205 403.704 579.684 402.582 580.324C402.422 580.484 402.102 580.484 401.781 580.644C400.98 580.964 400.179 581.284 399.218 581.604C398.577 581.764 397.937 581.924 397.296 582.244C386.082 585.283 364.615 587.682 337.381 589.122C336.26 589.122 335.298 589.282 334.177 589.282C332.415 589.282 330.653 589.442 328.89 589.442C327.128 589.442 325.366 589.602 323.443 589.602C322.162 589.602 320.88 589.602 319.759 589.762C316.715 589.762 313.832 589.922 310.788 589.922C310.467 589.922 309.987 589.922 309.666 589.922C309.026 589.922 308.225 589.922 307.584 589.922C306.943 589.922 306.302 589.922 305.501 589.922C302.618 589.922 299.894 589.922 297.01 590.082C296.69 590.082 296.37 590.082 296.049 590.082C293.807 590.082 291.564 590.082 289.321 590.082C280.029 590.082 270.898 589.922 262.087 589.762C260.805 589.762 259.524 589.762 258.242 589.602C257.121 589.602 255.999 589.602 254.878 589.442C253.116 589.442 251.354 589.282 249.751 589.282C247.509 589.122 245.266 589.122 243.023 588.962C242.382 588.962 241.902 588.962 241.261 588.802C239.819 588.802 238.217 588.642 236.775 588.642C229.406 588.162 222.517 587.682 216.109 587.202C200.89 585.923 188.876 584.163 181.346 582.084C181.186 582.084 180.866 581.924 180.705 581.924C180.385 581.924 180.225 581.764 180.065 581.764C178.783 581.444 177.822 580.964 176.861 580.644C176.54 580.484 176.22 580.324 175.899 580.164C175.419 579.844 174.938 579.684 174.458 579.364C174.297 579.205 174.137 579.204 173.977 579.045C173.817 578.885 173.657 578.885 173.657 578.725C173.496 578.565 173.336 578.565 173.336 578.405C173.176 578.245 173.176 578.245 173.016 578.085C172.856 577.925 172.856 577.765 172.695 577.445V577.285C172.695 577.125 172.695 577.125 172.695 577.125C172.695 571.846 201.211 567.368 242.222 565.448C243.344 565.448 244.465 565.288 245.426 565.288C246.868 565.288 248.31 565.128 249.912 565.128C252.155 565.128 254.397 564.968 256.64 564.968C257.922 564.968 259.043 564.808 260.325 564.808C263.208 564.808 266.092 564.648 268.975 564.648H269.456C270.257 564.648 271.058 564.648 272.019 564.648C272.66 564.648 273.141 564.648 273.781 564.648C276.345 564.648 278.908 564.648 281.471 564.488C281.631 564.488 281.952 564.488 282.272 564.488C284.515 564.488 286.918 564.488 289.321 564.488C298.773 564.488 308.064 564.648 316.875 564.808C318.958 564.808 321.201 564.968 323.283 564.968C324.245 564.968 325.046 564.968 326.007 565.128C326.167 565.128 326.167 565.128 326.167 565.128C327.128 565.128 328.089 565.128 329.211 565.288C329.852 565.288 330.492 565.288 331.133 565.448C332.895 565.448 334.497 565.608 336.259 565.608C337.861 565.608 339.464 565.768 341.065 565.768C350.197 566.248 358.688 566.888 366.377 567.688C390.567 570.087 405.786 573.446 405.786 577.285Z" fill="#263238"/>
<path opacity="0.4" d="M173.176 577.285C173.176 572.006 201.691 567.528 242.703 565.608C243.824 565.608 244.945 565.448 246.067 565.448C247.509 565.448 248.95 565.288 250.552 565.288C256.64 564.968 263.048 564.808 269.616 564.648C270.577 564.648 271.539 564.648 272.5 564.648C272.98 564.648 273.621 564.648 274.102 564.648C279.228 564.648 284.355 564.488 289.481 564.488C298.933 564.488 308.224 564.648 317.035 564.808C319.278 564.808 321.361 564.968 323.443 564.968C339.624 565.448 354.202 566.408 366.537 567.528C390.727 569.927 405.946 573.286 405.946 577.125C405.946 578.885 402.903 580.484 397.456 581.924C390.567 580.004 379.994 578.405 366.537 577.125C354.202 576.005 339.624 575.046 323.443 574.566C321.361 574.566 319.118 574.406 317.035 574.406C308.224 574.246 298.933 574.086 289.481 574.086C284.194 574.086 279.068 574.086 274.102 574.246C273.621 574.246 272.98 574.246 272.5 574.246C271.539 574.246 270.577 574.246 269.616 574.246C263.048 574.406 256.64 574.566 250.552 574.886C249.111 574.886 247.509 575.046 246.067 575.046C244.945 575.046 243.824 575.206 242.703 575.206C215.148 576.485 193.201 579.045 181.666 582.084C176.22 580.644 173.176 579.045 173.176 577.285Z" fill="white"/>
<path d="M279.709 571.367C278.748 572.486 277.947 573.286 277.146 574.246C276.665 574.726 276.345 575.046 275.864 575.525C275.063 576.325 274.422 577.125 273.621 577.765C273.141 578.245 272.5 578.725 272.019 579.205C269.296 581.604 266.572 584.003 263.368 586.243C263.208 586.403 263.048 586.403 262.888 586.563C262.407 586.882 261.927 587.202 261.446 587.522C260.485 588.162 259.363 588.802 258.402 589.442C257.281 589.442 256.159 589.442 255.038 589.282C253.276 589.282 251.514 589.122 249.912 589.122C247.669 588.962 245.426 588.962 243.183 588.802C242.542 588.802 242.062 588.802 241.421 588.642C239.979 588.642 238.377 588.482 236.935 588.482C229.566 588.002 222.678 587.522 216.27 587.042C217.071 586.722 217.872 586.563 218.833 586.243C225.241 584.163 231.649 582.244 237.897 580.164C239.499 579.684 240.94 579.045 242.382 578.565C243.984 578.085 244.785 577.605 245.907 576.965C246.547 576.485 247.348 576.165 248.149 575.525C248.47 575.206 248.95 575.046 249.271 574.726C250.392 573.926 251.514 572.966 252.635 572.006C254.878 570.087 257.281 568.008 259.524 565.928C260.004 565.448 260.325 565.128 260.805 564.808C261.446 564.169 262.247 563.369 262.888 562.729L266.092 559.53L266.252 559.37C268.335 557.29 271.058 556.331 273.781 556.651C275.704 556.811 277.466 557.61 279.068 559.05C280.67 560.49 281.471 562.569 281.791 564.488C281.952 566.888 281.311 569.447 279.709 571.367Z" fill="#FFB573"/>
<path d="M276.184 552.972C267.212 552.812 247.348 574.886 247.348 574.886L263.688 589.442C263.688 589.442 278.426 583.043 281.951 572.646C285.635 562.089 276.184 552.972 276.184 552.972Z" fill="#407BFF"/>
<path opacity="0.7" d="M281.951 572.646C280.509 576.965 277.145 580.644 273.781 583.363C268.814 587.362 263.688 589.602 263.688 589.602L259.203 585.763L247.188 575.206C247.188 575.206 267.052 552.972 276.024 553.291C276.184 552.972 285.635 562.089 281.951 572.646Z" fill="white"/>
<path opacity="0.1" d="M273.781 583.363C268.815 587.362 263.689 589.602 263.689 589.602L259.203 585.763C262.407 575.206 271.378 568.327 271.378 568.327C273.461 571.686 273.942 579.524 273.781 583.363Z" fill="black"/>
<path d="M337.861 562.409C337.7 562.729 337.7 562.889 337.54 563.049C337.22 563.689 337.06 564.169 336.739 564.808C336.579 565.128 336.419 565.448 336.419 565.768C336.419 565.768 336.419 565.928 336.259 565.928C336.098 566.088 336.098 566.408 335.938 566.728C335.618 567.368 335.458 568.008 335.137 568.647C334.817 569.447 334.496 570.407 334.176 571.207C334.176 571.207 334.176 571.207 334.176 571.367C334.016 572.006 333.695 572.646 333.535 573.286C333.375 573.926 333.055 574.566 332.894 575.206V575.366C332.734 576.005 332.574 576.485 332.254 577.125C331.933 578.405 331.453 579.524 331.132 580.804C331.132 580.964 331.132 580.964 330.972 581.124C330.171 583.843 329.53 586.563 328.729 589.442V589.602C326.967 589.602 325.205 589.762 323.282 589.762C322.001 589.762 320.719 589.762 319.598 589.922C316.554 589.922 313.67 590.082 310.627 590.082C310.306 590.082 309.826 590.082 309.505 590.082C308.864 590.082 308.063 590.082 307.423 590.082C306.782 590.082 306.141 590.082 305.34 590.082C302.456 590.082 299.733 590.082 296.849 590.242C296.529 590.242 296.209 590.242 295.888 590.242C293.645 590.242 291.403 590.242 289.16 590.242C279.868 590.242 270.737 590.082 261.926 589.922C262.086 589.442 262.086 589.122 262.246 588.802C262.246 588.482 262.406 588.322 262.406 588.002C262.406 587.842 262.567 587.522 262.567 587.362C262.567 587.202 262.567 587.042 262.727 587.042C263.368 583.843 264.169 580.964 264.97 578.245C265.29 577.285 265.45 576.485 265.771 575.525C265.931 575.206 265.931 575.046 266.091 574.726C266.251 574.086 266.572 573.446 266.732 572.806C266.892 572.486 266.892 572.166 267.052 571.846C267.212 571.367 267.373 570.887 267.533 570.407C267.693 569.927 268.013 569.287 268.174 568.807C268.334 568.327 268.494 567.848 268.654 567.528C268.975 566.728 269.295 565.928 269.615 565.128C270.416 563.369 271.057 561.769 271.698 560.49C271.858 560.33 272.018 560.01 272.018 559.85C272.179 559.37 272.499 559.05 272.659 558.57C272.98 558.09 273.14 557.61 273.46 557.13C273.46 556.97 273.62 556.971 273.62 556.971C273.941 556.491 274.101 556.011 274.421 555.691C274.742 555.371 274.902 555.051 275.062 554.731C275.543 554.091 275.703 553.771 275.863 553.611C275.863 553.611 282.592 552.812 290.121 553.132C291.082 553.132 292.204 553.132 293.165 553.291C294.126 553.291 295.087 553.451 296.209 553.611C298.451 553.931 301.015 554.251 303.738 554.571C305.34 554.891 307.102 555.211 308.704 555.371C310.306 555.691 312.068 556.011 313.67 556.331C313.991 556.331 314.311 556.491 314.471 556.491C315.753 556.651 317.035 556.97 318.156 557.29C318.957 557.45 319.758 557.61 320.559 557.77C321.04 557.93 321.36 557.93 321.68 558.09C322.001 558.25 322.481 558.25 322.802 558.41C324.244 558.73 325.685 559.21 327.127 559.53C327.608 559.69 328.088 559.85 328.409 560.01C329.21 560.33 330.171 560.49 330.972 560.809C331.773 560.969 332.414 561.289 333.215 561.449C335.938 561.609 337.7 562.249 337.861 562.409Z" fill="#407BFF"/>
<path opacity="0.7" d="M337.861 562.409C337.7 562.729 337.7 562.889 337.54 563.049C337.22 563.689 337.06 564.169 336.739 564.808C336.579 565.128 336.419 565.448 336.419 565.768V565.928C336.259 566.088 336.259 566.408 336.098 566.728C335.778 567.368 335.618 568.008 335.297 568.647C334.977 569.447 334.657 570.407 334.336 571.207C334.336 571.207 334.336 571.207 334.336 571.367C334.176 572.006 333.856 572.646 333.695 573.286C333.535 573.926 333.215 574.566 333.055 575.206C333.055 575.206 333.055 575.206 333.055 575.366C332.894 576.005 332.734 576.485 332.414 577.125C332.093 578.405 331.613 579.524 331.292 580.804C331.292 580.964 331.292 580.964 331.132 581.124C330.331 583.843 329.69 586.563 328.889 589.442V589.602C327.127 589.602 325.365 589.762 323.443 589.762C322.161 589.762 320.879 589.762 319.758 589.922C316.714 589.922 313.831 590.082 310.787 590.082C310.466 590.082 309.986 590.082 309.665 590.082C309.025 590.082 308.224 590.082 307.583 590.082C306.942 590.082 306.301 590.082 305.5 590.082C302.617 590.082 299.893 590.082 297.01 590.242C296.689 590.242 296.369 590.242 296.048 590.242C293.806 590.242 291.563 590.242 289.32 590.242C280.028 590.242 270.897 590.082 262.086 589.922C262.246 589.442 262.246 589.122 262.406 588.802C262.567 588.322 262.567 587.842 262.727 587.362C262.727 587.202 262.727 587.042 262.887 587.042C263.528 583.843 264.329 580.964 265.13 578.245C265.45 577.285 265.61 576.485 265.931 575.525C266.091 575.206 266.091 575.046 266.251 574.726C266.411 574.086 266.732 573.446 266.892 572.806C267.052 572.486 267.052 572.166 267.212 571.846C267.373 571.367 267.533 570.887 267.693 570.407C267.853 569.927 268.174 569.287 268.334 568.807C268.494 568.327 268.654 567.848 268.814 567.528C269.135 566.728 269.455 565.928 269.776 565.128C270.577 563.369 271.217 561.769 271.858 560.49C272.018 560.33 272.179 560.01 272.179 559.85C272.339 559.37 272.659 559.05 272.819 558.57C273.14 558.09 273.3 557.61 273.62 557.13C273.62 556.97 273.781 556.971 273.781 556.971C274.101 556.491 274.421 556.011 274.582 555.691C274.902 555.371 275.062 555.051 275.222 554.731C275.703 554.091 275.863 553.771 276.023 553.611C276.023 553.611 282.752 552.812 290.281 553.132C291.242 553.132 292.364 553.132 293.325 553.291C294.286 553.291 295.247 553.451 296.369 553.611C298.612 553.931 301.175 554.251 303.898 554.571C305.5 554.891 307.262 555.211 308.864 555.371C310.466 555.691 312.229 556.011 313.831 556.331C314.151 556.331 314.471 556.491 314.632 556.491C315.913 556.651 317.195 556.97 318.316 557.29C319.117 557.45 319.918 557.61 320.719 557.77C321.2 557.93 321.52 557.93 321.841 558.09C322.321 558.09 322.642 558.25 322.962 558.41C324.404 558.73 325.846 559.21 327.287 559.53C327.768 559.69 328.249 559.85 328.569 560.01C329.37 560.33 330.331 560.49 331.132 560.809C331.933 560.969 332.574 561.289 333.375 561.449C335.938 561.609 337.7 562.249 337.861 562.409Z" fill="white"/>
<path d="M308.865 533.457C308.865 533.457 309.346 550.412 310.948 552.972C312.55 555.531 318.477 556.651 318.477 556.651C318.477 556.651 304.379 563.689 297.811 562.249C291.243 560.969 288.039 552.332 288.039 552.332C288.039 552.332 292.685 552.492 293.806 551.852C294.928 551.212 293.005 540.015 293.005 540.015L308.865 533.457Z" fill="#EBB376"/>
<path opacity="0.2" d="M294.286 544.334L293.645 545.134C293.324 542.574 292.844 540.015 292.844 540.015L308.704 533.297C308.704 533.297 309.184 547.053 310.306 551.692C304.058 552.492 296.528 547.693 294.286 544.334Z" fill="black"/>
<path d="M303.418 504.824C307.743 507.064 313.991 514.422 307.102 516.821C300.374 519.381 296.049 500.985 303.418 504.824Z" fill="#263238"/>
<path d="M284.034 533.137C288.36 537.936 291.564 541.775 294.928 544.494C297.812 546.893 300.855 548.333 304.86 548.813C317.837 550.412 326.007 536.816 320.88 525.619C320.24 524.339 319.599 523.06 318.798 521.94C313.191 512.662 302.297 502.905 291.724 506.104C279.709 509.623 276.024 524.179 284.034 533.137Z" fill="#EBB376"/>
<path d="M289.32 532.497L289.801 534.417C289.801 534.417 291.403 540.015 294.927 544.654C297.811 547.053 300.855 548.493 304.86 548.973C317.836 550.572 326.006 536.976 320.88 525.779C320.239 524.499 319.598 523.22 318.797 522.1C318.797 522.1 319.758 526.579 318.957 528.658C318.957 528.658 314.151 527.378 311.748 529.458C311.748 529.458 306.622 528.018 302.296 533.457C302.296 533.297 295.889 537.776 289.32 532.497Z" fill="#263238"/>
<path opacity="0.5" d="M289.32 532.497L289.801 534.417C289.801 534.417 291.403 540.015 294.927 544.654C297.811 547.053 300.855 548.493 304.86 548.973C317.836 550.572 326.006 536.976 320.88 525.779C320.239 524.499 319.598 523.22 318.797 522.1C318.797 522.1 319.758 526.579 318.957 528.658C318.957 528.658 314.151 527.378 311.748 529.458C311.748 529.458 306.622 528.018 302.296 533.457C302.296 533.297 295.889 537.776 289.32 532.497Z" fill="white"/>
<path d="M270.737 527.218C264.97 522.42 270.417 515.222 276.504 512.822C277.305 512.502 277.786 512.023 278.106 511.543L285.315 522.58C284.675 522.9 284.034 523.22 283.393 523.379C283.393 523.379 291.884 530.897 291.083 538.255C279.228 541.615 267.854 535.536 270.737 527.218Z" fill="#263238"/>
<path d="M286.596 543.854C289.319 545.613 292.523 546.093 295.087 545.613C295.407 545.613 295.727 545.454 295.888 545.454C298.291 543.214 291.082 535.056 290.761 534.736C289.159 534.257 287.397 534.417 286.115 535.376C283.072 537.456 283.552 541.775 286.596 543.854Z" fill="#EBB376"/>
<path d="M300.533 524.339C301.174 525.139 301.975 525.459 302.616 524.979C303.096 524.499 303.096 523.699 302.455 522.9C301.815 522.1 301.014 521.78 300.373 522.26C299.732 522.74 299.892 523.699 300.533 524.339Z" fill="#263238"/>
<path d="M309.185 517.461C309.826 518.261 310.627 518.581 311.268 518.101C311.749 517.621 311.749 516.821 311.108 516.021C310.467 515.222 309.666 514.902 309.025 515.382C308.384 515.702 308.545 516.661 309.185 517.461Z" fill="#263238"/>
<path d="M306.621 520.02C306.621 520.02 311.748 522.9 315.272 523.379C314.952 525.619 312.068 526.899 312.068 526.899L306.621 520.02Z" fill="#D58745"/>
<path d="M297.008 518.421C296.848 518.581 296.688 518.741 296.688 518.901C296.688 521.46 294.926 522.58 294.926 522.74C294.605 522.9 294.605 523.22 294.765 523.539C294.926 523.859 295.246 523.859 295.566 523.699C295.727 523.699 297.809 522.1 297.969 518.901C297.969 518.581 297.649 518.261 297.329 518.261C297.168 518.421 297.168 518.421 297.008 518.421Z" fill="#263238"/>
<path d="M310.626 511.223C310.786 511.223 310.786 511.063 310.786 510.903C310.947 510.583 310.786 510.263 310.466 510.103C307.422 508.983 305.34 510.583 305.34 510.743C305.019 510.903 305.019 511.223 305.179 511.543C305.34 511.863 305.66 511.863 305.98 511.703C306.141 511.703 307.743 510.423 310.146 511.223C310.146 511.383 310.466 511.383 310.626 511.223Z" fill="#263238"/>
<path d="M312.068 537.456C312.389 537.296 312.709 537.136 313.03 536.976L313.831 530.737C313.831 530.737 313.51 530.737 312.869 530.737C310.947 530.737 306.461 531.217 305.34 533.457C305.18 533.617 305.18 533.937 305.02 534.257C304.859 535.216 304.699 536.336 305.18 537.296C305.821 538.735 307.743 539.535 312.068 537.456Z" fill="#263238"/>
<path d="M305.02 534.417L312.709 531.697L312.869 530.897C310.947 530.897 306.461 531.377 305.34 533.617C305.18 533.777 305.02 533.937 305.02 534.417Z" fill="white"/>
<path d="M312.068 537.456C310.787 535.216 307.102 536.336 305.02 537.296C305.821 538.735 307.743 539.535 312.068 537.456Z" fill="#DE5753"/>
<path d="M270.736 527.218C268.333 525.459 264.969 520.5 269.615 515.382C274.261 510.263 279.708 507.704 277.144 504.025C274.581 500.346 279.067 497.147 282.431 499.546C282.431 499.546 290.121 487.069 295.407 496.667C295.407 496.667 300.694 492.988 303.898 496.987C307.102 500.826 307.903 505.144 303.577 506.584C299.252 508.024 298.932 508.503 299.572 511.063C300.373 513.462 296.529 515.542 296.529 515.542C296.529 515.542 298.771 514.102 297.49 512.342C297.49 512.342 297.169 515.542 293.004 516.821C288.839 518.101 290.761 522.1 290.761 522.1C290.761 522.1 288.519 522.9 288.038 519.86C288.038 519.86 286.276 526.899 281.79 528.658C277.305 530.258 274.261 529.938 270.736 527.218Z" fill="#263238"/>
<path opacity="0.1" d="M331.292 580.804C330.491 583.523 329.85 586.243 329.049 589.122V589.282C327.287 589.282 325.525 589.442 323.603 589.442C322.321 589.442 321.039 589.442 319.918 589.602C316.874 589.602 313.991 589.762 310.947 589.762C310.626 589.762 310.146 589.762 309.825 589.762C309.185 589.762 308.384 589.762 307.743 589.762C307.102 589.762 306.461 589.762 305.66 589.762C308.063 585.123 311.588 582.084 313.67 580.484C314.792 579.684 315.593 579.205 315.593 579.205C317.034 578.405 318.476 577.925 319.918 577.765C323.923 577.285 327.928 578.405 331.292 580.804Z" fill="black"/>
<path d="M342.024 575.525C342.024 577.125 341.544 578.565 340.582 580.004C338.5 583.203 336.417 586.243 334.334 589.122C332.572 589.122 330.81 589.282 329.048 589.282C327.286 589.282 325.524 589.442 323.601 589.442C322.32 589.442 321.038 589.442 319.916 589.602C316.873 589.602 313.989 589.762 310.945 589.762C311.106 589.602 311.266 589.442 311.426 589.122C314.309 585.443 317.193 581.604 319.916 577.765C320.717 576.645 321.519 575.525 322.159 574.566C323.281 572.966 324.242 571.527 325.363 569.927L325.523 569.767C327.926 566.248 332.252 564.968 336.097 566.408C336.738 566.728 337.539 567.048 338.179 567.528C340.743 569.447 342.184 572.486 342.024 575.525Z" fill="#FFB573"/>
<path d="M342.986 575.525C342.506 579.204 340.904 583.683 337.539 588.802C336.418 588.802 335.457 588.962 334.335 588.962C332.573 588.962 330.811 589.122 329.049 589.122C327.287 589.122 325.524 589.282 323.602 589.282C322.32 589.282 321.039 589.282 319.917 589.442C316.874 589.442 313.99 589.602 310.946 589.602C310.626 589.602 310.145 589.602 309.825 589.602C309.184 589.602 308.383 589.602 307.742 589.602C309.504 586.882 311.747 583.523 313.83 580.324C315.272 578.085 316.553 576.005 317.675 574.246C318.155 573.606 318.476 572.966 318.796 572.326C320.879 568.807 323.602 566.408 326.165 564.968C331.932 561.609 337.86 562.249 337.86 562.249C339.141 563.049 340.263 564.169 341.224 565.768C342.666 568.167 343.467 571.367 342.986 575.525Z" fill="#407BFF"/>
<path opacity="0.7" d="M342.986 575.525C342.506 579.204 340.904 583.683 337.539 588.802C336.418 588.802 335.457 588.962 334.335 588.962C332.573 588.962 330.811 589.122 329.049 589.122C327.287 589.122 325.524 589.282 323.602 589.282C322.32 589.282 321.039 589.282 319.917 589.442C316.874 589.442 313.99 589.602 310.946 589.602C310.626 589.602 310.145 589.602 309.825 589.602C309.184 589.602 308.383 589.602 307.742 589.602C309.504 586.882 311.747 583.523 313.83 580.324C315.272 578.085 316.553 576.005 317.675 574.246C318.155 573.606 318.476 572.966 318.796 572.326C320.879 568.807 323.602 566.408 326.165 564.968C331.932 561.609 337.86 562.249 337.86 562.249C339.141 563.049 340.263 564.169 341.224 565.768C342.666 568.167 343.467 571.367 342.986 575.525Z" fill="white"/>
</g>
<defs>
<clipPath id="clip0_54_23106">
<rect width="801" height="596" fill="white"/>
</clipPath>
</defs>
</svg>
